#N canvas 695 139 1013 979 12;
#X obj 733 229 cnv 15 197 88 empty empty empty 20 12 0 14 -261869 -66577
0;
#X obj 827 233 cnv 15 103 84 empty empty empty 20 12 0 14 -261400 -66577
0;
#X obj 215 73 notein;
#X obj 215 353 stripnote;
#X obj 598 789 vline~;
#X floatatom 641 626 5 0 0 0 - - -, f 5;
#X floatatom 684 626 5 0 0 0 - - -, f 5;
#X floatatom 727 626 5 0 0 0 - - -, f 5;
#X floatatom 828 626 5 0 0 0 - - -, f 5;
#X obj 753 714 pack f f;
#X obj 533 322 sel 0;
#X floatatom 138 155 5 0 0 0 - - -, f 5;
#X floatatom 97 155 5 0 0 0 - - -, f 5;
#X floatatom 97 427 5 0 0 0 - - -, f 5;
#X floatatom 319 456 5 0 0 0 - - -, f 5;
#X obj 400 295 makenote;
#X obj 598 685 pack f f f f f, f 25;
#X floatatom 848 108 5 0 0 0 - - -, f 5;
#X floatatom 735 108 5 0 127 0 - - -, f 5;
#X obj 400 73 inlet midinote;
#X floatatom 400 248 5 0 0 0 - - -, f 5;
#X obj 735 73 inlet velocity;
#X obj 848 73 inlet gate;
#X obj 770 597 / 127;
#X floatatom 770 626 5 0 0 0 - - -, f 5;
#X obj 598 856 outlet~;
#X obj 300 113 r qwertymidi;
#X floatatom 300 165 5 0 0 0 - - -, f 5;
#N canvas 1726 432 741 559 qwerty 0;
#X obj 103 226 list-find;
#X obj 103 141 key;
#X obj 163 80 loadbang;
#X obj 40 226 * 12;
#X obj 103 271 +;
#X obj 103 304 + 60;
#X obj 103 510 outlet;
#X msg 163 104 122 115 120 100 99 118 103 98 104 110 106 109 44, f
50;
#X obj 240 140 loadbang;
#X obj 180 226 list-find;
#X obj 180 271 +;
#X obj 180 304 + 72;
#X msg 240 170 113 50 119 51 101 114 53 116 54 121 55 117 105, f 49
;
#X obj 180 141 keyup;
#X obj 426 275 bng 15 250 50 0 empty empty empty 17 7 0 10 -262144
-1 -1;
#X msg 388 303 0;
#X msg 426 303 1;
#X obj 349 377 spigot;
#X obj 388 275 bng 15 250 50 0 empty empty empty 17 7 0 10 -262144
-1 -1;
#X floatatom 349 406 5 0 0 0 - - -, f 5;
#X obj 103 170 t f f b;
#X obj 388 332 tgl 15 0 empty empty empty 17 7 0 10 -262144 -1 -1 1
1;
#X obj 180 170 t f f b;
#X obj 326 275 bng 15 250 50 0 empty empty empty 17 7 0 10 -262144
-1 -1;
#X obj 249 377 spigot;
#X obj 288 275 bng 15 250 50 0 empty empty empty 17 7 0 10 -262144
-1 -1;
#X floatatom 249 406 5 0 0 0 - - -, f 5;
#X obj 288 332 tgl 15 0 empty empty empty 17 7 0 10 -262144 -1 -1 0
1;
#X msg 288 303 1;
#X msg 326 303 0;
#X obj 279 434 bng 15 250 50 0 empty empty empty 17 7 0 10 -262144
-1 -1;
#X obj 379 434 bng 15 250 50 0 empty empty empty 17 7 0 10 -262144
-1 -1;
#X obj 249 463 pack f f;
#X obj 40 59 inlet octave;
#X obj 619 59 inlet velocity;
#X obj 619 398 +;
#X obj 349 463 pack f 0;
#X floatatom 60 88 5 0 0 0 - - -, f 5;
#X floatatom 103 463 5 0 0 0 - - -, f 5;
#X obj 249 510 outlet midi msg;
#X obj 103 436 spigot;
#X connect 0 0 4 0;
#X connect 1 0 20 0;
#X connect 2 0 7 0;
#X connect 3 0 4 1;
#X connect 3 0 10 1;
#X connect 4 0 5 0;
#X connect 5 0 17 0;
#X connect 5 0 24 0;
#X connect 5 0 40 0;
#X connect 7 0 0 1;
#X connect 8 0 12 0;
#X connect 9 0 10 0;
#X connect 10 0 11 0;
#X connect 11 0 17 0;
#X connect 11 0 24 0;
#X connect 11 0 40 0;
#X connect 12 0 9 1;
#X connect 13 0 22 0;
#X connect 14 0 16 0;
#X connect 15 0 21 0;
#X connect 16 0 21 0;
#X connect 17 0 19 0;
#X connect 18 0 15 0;
#X connect 19 0 31 0;
#X connect 19 0 36 0;
#X connect 20 0 0 0;
#X connect 20 1 9 0;
#X connect 20 2 18 0;
#X connect 20 2 25 0;
#X connect 21 0 17 1;
#X connect 22 0 0 0;
#X connect 22 1 9 0;
#X connect 22 2 14 0;
#X connect 22 2 23 0;
#X connect 23 0 29 0;
#X connect 24 0 26 0;
#X connect 25 0 28 0;
#X connect 26 0 30 0;
#X connect 26 0 32 0;
#X connect 27 0 24 1;
#X connect 27 0 40 1;
#X connect 28 0 27 0;
#X connect 29 0 27 0;
#X connect 32 0 39 0;
#X connect 33 0 3 0;
#X connect 33 0 37 0;
#X connect 34 0 35 0;
#X connect 35 0 32 1;
#X connect 36 0 39 0;
#X connect 38 0 6 0;
#X connect 40 0 38 0;
#X restore 618 378 pd qwerty;
#X obj 618 351 - 2;
#X obj 740 378 s qwertymidi;
#X msg 598 714 \$5 \$2 \, \$4 \$3 \$2;
#X obj 830 245 vsl 15 64 5 500 1 1 empty empty A 3 -9 1 10 -262144
-1 -1 1700 1;
#X obj 857 245 vsl 15 64 7.5 750 1 1 empty empty D 3 -9 1 10 -262144
-1 -1 6300 1;
#X obj 884 245 vsl 15 64 0.01 1 1 1 empty empty S 3 -9 1 10 -262144
-1 -1 0 1;
#X obj 911 245 vsl 15 64 1 1200 1 1 empty empty R 3 -9 1 10 -262144
-1 -1 0 1;
#X obj 735 241 nbx 4 14 0 127 0 1 empty empty velocity 0 -8 1 10 -262144
-1 -1 49 256 0;
#X obj 779 241 nbx 4 14 0 1000 0 1 empty empty gate 0 -8 1 10 -262144
-1 -1 1000 256 0;
#X obj 740 301 hradio 11 0 1 5 empty empty oct 63 4 0 10 -262144 -1
-1 1;
#X obj 247 856 outlet;
#X obj 215 641 spigot;
#X obj 254 493 tgl 15 1 empty empty empty 17 7 0 10 -262144 -1 -1 1
1;
#X msg 254 458 1;
#X msg 223 458 0;
#X obj 138 353 sel 0;
#X obj 330 353 loadbang;
#X obj 215 680 sel 0;
#X floatatom 247 720 5 0 0 0 - - -, f 5;
#X obj 319 856 outlet;
#X text 252 887 note;
#X text 323 887 velo;
#X obj 300 193 t f b;
#X floatatom 756 269 3 0 0 1 midi - -, f 3;
#X floatatom 215 615 5 0 0 0 - - -, f 5;
#X obj 753 789 line;
#X floatatom 753 822 5 0 0 0 - - -, f 5;
#X obj 753 856 outlet;
#X obj 400 856 outlet;
#X text 405 887 midi msg, f 4;
#X floatatom 533 351 5 0 0 0 - - -, f 5;
#X obj 400 811 pack 0 0;
#X obj 418 752 * 12;
#X obj 400 780 +;
#X floatatom 367 613 5 0 0 0 - - -, f 5;
#X obj 36 117 sel 0 1 2 3 4 5 6 7 8 9 10;
#X connect 2 0 64 0;
#X connect 2 1 3 1;
#X connect 2 1 10 0;
#X connect 2 1 11 0;
#X connect 3 0 13 0;
#X connect 3 0 53 0;
#X connect 3 1 14 0;
#X connect 4 0 25 0;
#X connect 5 0 16 1;
#X connect 6 0 16 2;
#X connect 7 0 16 3;
#X connect 8 0 9 1;
#X connect 9 0 4 0;
#X connect 9 0 54 0;
#X connect 10 0 9 0;
#X connect 10 0 59 0;
#X connect 11 0 44 0;
#X connect 11 0 60 1;
#X connect 12 0 62 0;
#X connect 14 0 23 0;
#X connect 14 0 48 0;
#X connect 15 0 3 0;
#X connect 15 1 3 1;
#X connect 15 1 10 0;
#X connect 16 0 31 0;
#X connect 17 0 37 0;
#X connect 18 0 36 0;
#X connect 19 0 20 0;
#X connect 20 0 15 0;
#X connect 21 0 18 0;
#X connect 22 0 17 0;
#X connect 23 0 24 0;
#X connect 24 0 16 4;
#X connect 26 0 27 0;
#X connect 27 0 51 0;
#X connect 28 0 52 0;
#X connect 28 1 57 0;
#X connect 29 0 28 0;
#X connect 29 0 63 0;
#X connect 31 0 4 0;
#X connect 31 0 54 0;
#X connect 32 0 5 0;
#X connect 33 0 6 0;
#X connect 34 0 7 0;
#X connect 35 0 8 0;
#X connect 36 0 15 1;
#X connect 36 0 28 1;
#X connect 37 0 15 2;
#X connect 38 0 29 0;
#X connect 38 0 61 0;
#X connect 40 0 16 0;
#X connect 40 0 46 0;
#X connect 41 0 40 1;
#X connect 42 0 41 0;
#X connect 43 0 41 0;
#X connect 44 0 43 0;
#X connect 44 1 42 0;
#X connect 45 0 42 0;
#X connect 46 1 47 0;
#X connect 47 0 39 0;
#X connect 51 0 20 0;
#X connect 51 1 42 0;
#X connect 52 0 30 0;
#X connect 53 0 40 0;
#X connect 54 0 55 0;
#X connect 55 0 56 0;
#X connect 60 0 57 0;
#X connect 61 0 62 1;
#X connect 62 0 60 0;
#X connect 62 0 52 0;
#X connect 64 11 12 0;
#X connect 64 11 3 0;
#X coords 0 -1 1 1 203 113 1 730 207;
