#N canvas 435 245 774 773 12;
#X obj 124 537 cnv 15 23 33 empty empty empty 20 12 0 14 -248832 -66577
0;
#X obj 484 474 cnv 15 23 33 empty empty empty 20 12 0 14 -248832 -66577
0;
#X obj 448 441 cnv 15 23 33 empty empty empty 20 12 0 14 -248832 -66577
0;
#X obj 449 375 cnv 15 23 33 empty empty empty 20 12 0 14 -248832 -66577
0;
#X obj 461 332 cnv 15 23 33 empty empty empty 20 12 0 14 -248832 -66577
0;
#X obj 346 333 cnv 15 23 33 empty empty empty 20 12 0 14 -248832 -66577
0;
#X obj 309 297 cnv 15 23 33 empty empty empty 20 12 0 14 -248832 -66577
0;
#X obj 383 598 cnv 15 312 87 empty empty empty 20 12 0 14 -248832 -66577
0;
#X obj 75 63 inlet;
#X obj 344 126 inlet;
#X text 71 38 trigger;
#X obj 75 91 sel 0;
#X obj 298 194 t b;
#X obj 298 302 f \$1, f 7;
#X obj 298 338 pack 0 \$2, f 15;
#X obj 400 125 inlet;
#X obj 436 338 del \$2;
#X obj 262 652 line~;
#X obj 436 381 f \$4, f 19;
#X obj 436 480 pack 0 \$3;
#X obj 496 125 inlet;
#X obj 566 125 inlet;
#X obj 639 125 inlet;
#X msg 100 159 stop;
#X obj 75 543 pack 0 \$5, f 81;
#X text 344 99 level;
#X obj 436 447 * \$1;
#X obj 262 677 outlet~;
#X obj 436 414 * 0.01;
#X text 396 98 attack;
#X text 497 99 decay;
#X text 559 100 sustain;
#X text 636 100 release;
#X obj 230 126 moses;
#X obj 230 164 t b b;
#X msg 262 338 0;
#X text 348 83 peak;
#X text 392 607 Note how the use of $-variables lets this object use
either arguments passend when creating the object \, or by feeding
values into the inlets. Very flexible!, f 43;
#X obj 322 652 line;
#X obj 322 677 outlet;
#X connect 8 0 11 0;
#X connect 9 0 13 1;
#X connect 9 0 26 1;
#X connect 11 0 23 0;
#X connect 11 0 24 0;
#X connect 11 1 33 0;
#X connect 12 0 13 0;
#X connect 12 0 16 0;
#X connect 13 0 14 0;
#X connect 14 0 17 0;
#X connect 14 0 38 0;
#X connect 15 0 14 1;
#X connect 15 0 16 1;
#X connect 16 0 18 0;
#X connect 17 0 27 0;
#X connect 18 0 28 0;
#X connect 19 0 17 0;
#X connect 19 0 38 0;
#X connect 20 0 19 1;
#X connect 21 0 18 1;
#X connect 22 0 24 1;
#X connect 23 0 16 0;
#X connect 24 0 17 0;
#X connect 24 0 38 0;
#X connect 26 0 19 0;
#X connect 28 0 26 0;
#X connect 33 0 34 0;
#X connect 33 1 12 0;
#X connect 34 0 12 0;
#X connect 34 1 35 0;
#X connect 35 0 17 0;
#X connect 35 0 38 0;
#X connect 38 0 39 0;
