#N canvas 1201 187 636 550 12;
#X obj 197 49 notein;
#X obj 197 108 stripnote;
#X obj 197 251 mtof;
#X obj 197 287 phasor~;
#X obj 197 436 *~;
#X obj 197 494 dac~;
#X obj 323 138 vsl 15 128 0 300 0 0 empty empty empty 0 -9 0 10 -262144
-1 -1 0 1;
#X floatatom 323 280 5 0 0 0 - - -, f 5;
#X obj 296 319 pack f f f f;
#X obj 296 394 vline~;
#X obj 445 108 sel 0;
#X obj 445 319 pack f f;
#X msg 445 348 0 \$2;
#X obj 363 138 vsl 15 128 0 500 0 0 empty empty empty 0 -9 0 10 -262144
-1 -1 0 1;
#X floatatom 363 280 5 0 0 0 - - -, f 5;
#X obj 403 138 vsl 15 128 0 1 0 0 empty empty empty 0 -9 0 10 -262144
-1 -1 0 1;
#X floatatom 403 280 5 0 0 0 - - -, f 5;
#X obj 498 138 vsl 15 128 0 1000 0 0 empty empty empty 0 -9 0 10 -262144
-1 -1 0 1;
#X floatatom 498 280 5 0 0 0 - - -, f 5;
#X floatatom 60 106 5 0 0 0 - - -, f 5;
#X floatatom 100 106 5 0 0 0 - - -, f 5;
#X floatatom 140 106 5 0 0 0 - - -, f 5;
#X floatatom 100 156 5 0 0 0 - - -, f 5;
#X floatatom 140 156 5 0 0 0 - - -, f 5;
#X msg 296 348 1 \$2 \, \$4 %\$3 \$2;
#X connect 0 0 1 0;
#X connect 0 0 19 0;
#X connect 0 1 10 0;
#X connect 0 1 1 1;
#X connect 0 1 20 0;
#X connect 0 2 21 0;
#X connect 1 0 2 0;
#X connect 1 0 8 0;
#X connect 1 0 22 0;
#X connect 1 1 23 0;
#X connect 2 0 3 0;
#X connect 3 0 4 0;
#X connect 4 0 5 0;
#X connect 4 0 5 1;
#X connect 6 0 7 0;
#X connect 7 0 8 1;
#X connect 8 0 24 0;
#X connect 9 0 4 1;
#X connect 10 0 11 0;
#X connect 11 0 12 0;
#X connect 12 0 9 0;
#X connect 13 0 14 0;
#X connect 14 0 8 2;
#X connect 15 0 16 0;
#X connect 16 0 8 3;
#X connect 17 0 18 0;
#X connect 18 0 11 1;
#X connect 24 0 9 0;
