#N canvas 769 465 540 300 12;
#X obj 64 41 inlet;
#X obj 64 228 outlet;
#X floatatom 64 137 5 0 0 0 - - -, f 5;
#X obj 64 70 t b b b b, f 12;
#X floatatom 104 137 5 0 0 0 - - -, f 5;
#X floatatom 144 137 5 0 0 0 - - -, f 5;
#X floatatom 184 137 5 0 0 0 - - -, f 5;
#X obj 64 108 f \$4;
#X obj 104 108 f \$3;
#X obj 144 108 f \$2;
#X obj 184 108 f \$1;
#X obj 64 187 pack \$1 \$2 \$3 \$4;
#X text 244 108 The $-number variables are available inside this abstraction.
, f 36;
#X connect 0 0 3 0;
#X connect 2 0 11 0;
#X connect 3 0 7 0;
#X connect 3 1 8 0;
#X connect 3 2 9 0;
#X connect 3 3 10 0;
#X connect 4 0 11 1;
#X connect 5 0 11 2;
#X connect 6 0 11 3;
#X connect 7 0 2 0;
#X connect 8 0 4 0;
#X connect 9 0 5 0;
#X connect 10 0 6 0;
#X connect 11 0 1 0;
