#N canvas 957 294 761 405 12;
#X obj 228 156 metro;
#X obj 228 205 f;
#X obj 270 205 + 1;
#X obj 56 267 mod 32;
#X obj 260 120 expr 60000/(8*$f1);
#X obj 350 55 loadbang;
#X obj 350 84 f \$1;
#X obj 260 41 inlet BPM;
#X msg 436 150 0;
#X obj 436 41 inlet reset;
#X obj 116 41 inlet toggle;
#X obj 56 296 select 0;
#X obj 156 296 select 0;
#X obj 256 295 select 0;
#X obj 376 295 select 0;
#X obj 476 295 select 0;
#X obj 476 267 mod 2;
#X obj 376 267 mod 4;
#X obj 256 267 mod 8;
#X obj 156 267 mod 16;
#X obj 613 335 outlet 32nd;
#X obj 476 335 outlet 16th;
#X obj 376 335 outlet 8th;
#X obj 256 335 outlet quarter;
#X obj 156 335 outlet half;
#X obj 56 335 outlet whole;
#X obj 613 267 +;
#X connect 0 0 1 0;
#X connect 0 0 26 0;
#X connect 1 0 2 0;
#X connect 1 0 3 0;
#X connect 1 0 19 0;
#X connect 1 0 18 0;
#X connect 1 0 17 0;
#X connect 1 0 16 0;
#X connect 2 0 1 1;
#X connect 3 0 11 0;
#X connect 4 0 0 1;
#X connect 5 0 6 0;
#X connect 6 0 4 0;
#X connect 7 0 4 0;
#X connect 8 0 1 0;
#X connect 9 0 8 0;
#X connect 10 0 0 0;
#X connect 11 0 25 0;
#X connect 12 0 24 0;
#X connect 13 0 23 0;
#X connect 14 0 22 0;
#X connect 15 0 21 0;
#X connect 16 0 15 0;
#X connect 17 0 14 0;
#X connect 18 0 13 0;
#X connect 19 0 12 0;
#X connect 26 0 20 0;
