#N canvas 1000 228 1030 728 12;
#X obj 277 668 outlet~;
#X obj 277 534 *~;
#X obj 277 642 *~;
#N canvas 0 22 450 300 delWrite 0;
#X obj 68 80 delwrite~ \$0-comp 500;
#X obj 68 39 inlet~;
#X obj 68 156 outlet~;
#X connect 1 0 0 0;
#X restore 113 317 pd delWrite;
#X obj 509 421 dbtorms;
#X obj 561 392 /;
#X obj 561 361 swap 1;
#X obj 614 368 /;
#X obj 614 346 swap 1000;
#X obj 295 494 lop~;
#X obj 295 439 clip~ 0 1;
#X obj 509 443 s \$0-thresh;
#X obj 561 414 s \$0-ratio;
#X obj 292 617 line~;
#X obj 292 596 pack f 5;
#X obj 292 572 r \$0-gain;
#X obj 666 325 s \$0-gain;
#N canvas 0 22 872 621 rms 0;
#X obj 257 107 env~ 512;
#X obj 257 245 -~;
#X obj 257 293 *~;
#X obj 257 345 +~;
#X obj 257 385 /~;
#X obj 378 221 +~ 0;
#X obj 272 220 r \$0-thresh;
#X obj 272 318 r \$0-thresh;
#X obj 272 269 r \$0-ratio;
#X obj 257 34 inlet~;
#X obj 257 407 outlet~;
#X obj 373 37 inlet;
#X obj 373 59 switch~;
#X obj 257 135 dbtorms~;
#X text 221 74 Input;
#X text 231 136 RMS;
#X text 424 59 turn DSP on/off for this sub-patch;
#X connect 0 0 13 0;
#X connect 1 0 2 0;
#X connect 2 0 3 0;
#X connect 3 0 4 0;
#X connect 4 0 10 0;
#X connect 5 0 4 1;
#X connect 6 0 1 1;
#X connect 7 0 3 1;
#X connect 8 0 2 1;
#X connect 9 0 0 0;
#X connect 11 0 12 0;
#X connect 13 0 1 0;
#X connect 13 0 5 0;
#X restore 295 316 pd rms;
#N canvas 1059 231 859 629 peak 0;
#X obj 244 134 abs~;
#X obj 244 243 -~;
#X obj 244 291 *~;
#X obj 244 343 +~;
#X obj 244 383 /~;
#X obj 365 219 +~ 0;
#X obj 259 218 r \$0-thresh;
#X obj 259 316 r \$0-thresh;
#X obj 259 267 r \$0-ratio;
#X obj 244 49 inlet~;
#X obj 244 405 outlet~;
#X obj 470 125 inlet;
#X obj 470 147 switch~;
#X text 206 99 Input;
#X text 208 135 Peak;
#X text 521 148 turn DSP on/off for this sub-patch;
#X connect 0 0 1 0;
#X connect 0 0 5 0;
#X connect 1 0 2 0;
#X connect 2 0 3 0;
#X connect 3 0 4 0;
#X connect 4 0 10 0;
#X connect 5 0 4 1;
#X connect 6 0 1 1;
#X connect 7 0 3 1;
#X connect 8 0 2 1;
#X connect 9 0 0 0;
#X connect 11 0 12 0;
#X restore 343 316 pd peak;
#X obj 328 258 == 0;
#X obj 328 213 t f f;
#X obj 113 60 inlet~;
#X obj 328 189 r \$0-rmspeak;
#X obj 719 299 s \$0-rmspeak;
#X obj 771 275 s \$0-lookahead;
#X obj 170 369 r \$0-lookahead;
#X obj 509 251 route threshold ratio response gain rmspeak lookahead
;
#X obj 509 63 inlet control;
#X obj 540 124 loadbang;
#X obj 509 198 t a a;
#X obj 536 226 s \$0-dump;
#X obj 509 386 + 100;
#X obj 666 279 + 100;
#X obj 666 301 dbtorms;
#X obj 316 472 r \$0-response;
#X obj 614 390 s \$0-response;
#X obj 475 668 outlet;
#X obj 475 603 r \$0-dump;
#N canvas 368 180 728 661 dump 0;
#X obj 124 52 inlet;
#X obj 125 625 outlet;
#X msg 187 486 threshold \$1;
#X msg 239 436 ratio \$1;
#X msg 294 385 response \$1;
#X msg 344 336 gain \$1;
#X msg 397 284 rmspeak \$1;
#X msg 449 235 lookahead \$1;
#X obj 187 141 route threshold ratio response gain rmspeak lookahead
;
#X obj 166 509 list;
#X obj 218 460 list;
#X obj 273 409 list;
#X obj 323 359 list;
#X obj 376 304 list;
#X obj 428 257 list;
#X obj 585 219 t b b b b b b;
#X obj 502 171 sel dump;
#X obj 428 548 list trim;
#X connect 0 0 1 0;
#X connect 0 0 8 0;
#X connect 2 0 9 1;
#X connect 3 0 10 1;
#X connect 4 0 11 1;
#X connect 5 0 12 1;
#X connect 6 0 13 1;
#X connect 7 0 14 1;
#X connect 8 0 2 0;
#X connect 8 1 3 0;
#X connect 8 2 4 0;
#X connect 8 3 5 0;
#X connect 8 4 6 0;
#X connect 8 5 7 0;
#X connect 8 6 16 0;
#X connect 9 0 17 0;
#X connect 10 0 17 0;
#X connect 11 0 17 0;
#X connect 12 0 17 0;
#X connect 13 0 17 0;
#X connect 14 0 17 0;
#X connect 15 0 9 0;
#X connect 15 1 10 0;
#X connect 15 2 11 0;
#X connect 15 3 12 0;
#X connect 15 4 13 0;
#X connect 15 5 14 0;
#X connect 16 0 15 0;
#X connect 17 0 1 0;
#X restore 475 625 pd dump;
#N canvas 0 22 450 300 delRead 0;
#X obj 68 41 inlet~;
#X obj 133 155 outlet~;
#X obj 133 42 inlet lookAhead;
#X obj 133 116 delread~ \$0-comp 0;
#X connect 2 0 3 0;
#X connect 3 0 1 0;
#X restore 113 393 pd delRead;
#X text 157 60 Input;
#X text 53 315 delwrite~;
#X text 79 348 dymmy;
#X text 78 360 cable;
#X text 59 393 delread~;
#X text 169 348 Lookahead in ms;
#X text 362 437 Clip signal;
#X text 326 493 Attack/release using LPF;
#X text 302 533 Gain Control;
#X text 346 339 Gain computation;
#X text 346 353 RMS/Peak;
#X text 355 572 Make-up gain;
#X text 367 213 RMS/Peak;
#X text 367 226 selector;
#X text 523 656 Dump/send controls;
#X text 523 669 for UI object;
#X text 597 126 initialise controls;
#X text 566 209 send controls to UI;
#X text 507 465 Convert dB FS;
#X text 507 476 to Pd dB scale;
#X text 507 488 and then linear;
#X text 507 499 amplitude.;
#X text 589 431 inverse of ratio;
#X text 665 408 convert ms to frequency;
#X text 685 344 convert dBFS scale to Pd dB scale;
#X text 735 318 RMS/peak selection;
#X text 809 292 lookahead value in ms;
#X text 785 234 route incoming data;
#X text 838 46 Varun Nair;
#X text 838 59 2013;
#X text 839 72 re-sounding.com;
#X text 840 85 @ntkeep;
#X msg 540 153 threshold -8 \, ratio 4 \, response 40 \, gain 4 \,
rmspeak 0 \, lookahead 10;
#X connect 1 0 2 0;
#X connect 2 0 0 0;
#X connect 3 0 39 0;
#X connect 4 0 11 0;
#X connect 5 0 12 0;
#X connect 6 0 5 0;
#X connect 6 1 5 1;
#X connect 7 0 35 0;
#X connect 8 0 7 0;
#X connect 8 1 7 1;
#X connect 9 0 1 1;
#X connect 10 0 9 0;
#X connect 13 0 2 1;
#X connect 14 0 13 0;
#X connect 15 0 14 0;
#X connect 17 0 10 0;
#X connect 18 0 10 0;
#X connect 19 0 17 1;
#X connect 20 0 19 0;
#X connect 20 1 18 1;
#X connect 21 0 3 0;
#X connect 21 0 17 0;
#X connect 21 0 18 0;
#X connect 22 0 20 0;
#X connect 25 0 39 1;
#X connect 26 0 31 0;
#X connect 26 1 6 0;
#X connect 26 2 8 0;
#X connect 26 3 32 0;
#X connect 26 4 23 0;
#X connect 26 5 24 0;
#X connect 27 0 29 0;
#X connect 28 0 72 0;
#X connect 29 0 26 0;
#X connect 29 1 30 0;
#X connect 31 0 4 0;
#X connect 32 0 33 0;
#X connect 33 0 16 0;
#X connect 34 0 9 1;
#X connect 37 0 38 0;
#X connect 38 0 36 0;
#X connect 39 0 1 0;
#X connect 72 0 29 0;
