#N canvas 735 525 672 298 12;
#X obj 34 84 cnv 15 69 29 empty empty empty 20 12 0 14 -261869 -66577
0;
#X obj 46 88 hradio 22 0 1 2 empty empty empty 0 -8 0 10 -262144 -260097
-1 0;
#X obj 134 49 inlet A-L;
#X obj 234 49 inlet A-R;
#X obj 334 49 inlet B-L;
#X obj 435 49 inlet B-R;
#X obj 134 218 outlet L;
#X obj 324 218 outlet R;
#X obj 134 127 mux;
#X obj 324 127 mux;
#X connect 1 0 8 2;
#X connect 1 0 9 2;
#X connect 2 0 8 0;
#X connect 3 0 9 0;
#X connect 4 0 8 1;
#X connect 5 0 9 1;
#X connect 8 0 6 0;
#X connect 9 0 7 0;
#X coords 0 -1 1 1 75 54 1 31 62;
