#N canvas 162 258 774 508 12;
#X obj 57 341 select 1;
#X obj 57 448 outlet;
#X obj 57 70 f;
#X obj 121 86 + 1;
#X obj 57 154 mod \$1;
#X obj 57 229 * \$2;
#X obj 57 303 < \$2;
#X obj 57 266 % \$1;
#X obj 57 191 + \$3;
#X obj 57 33 inlet bang;
#X obj 253 33 inlet bar length;
#X obj 420 33 inlet hits per bar;
#X obj 623 33 inlet rotation;
#X connect 0 0 1 0;
#X connect 2 0 3 0;
#X connect 2 0 4 0;
#X connect 3 0 2 1;
#X connect 4 0 8 0;
#X connect 5 0 7 0;
#X connect 6 0 0 0;
#X connect 7 0 6 0;
#X connect 8 0 5 0;
#X connect 9 0 2 0;
#X connect 10 0 4 1;
#X connect 10 0 7 1;
#X connect 11 0 5 1;
#X connect 11 0 6 1;
#X connect 12 0 8 1;
