#N canvas 735 459 535 326 12;
#X obj 119 51 inlet;
#X obj 201 51 inlet;
#X obj 330 51 inlet reset;
#X msg 330 80 0;
#X obj 201 167 max 0;
#X obj 250 51 loadbang;
#X obj 250 130 f \$1;
#X obj 119 200 mod;
#X obj 119 130 f;
#X obj 166 130 + 1;
#X obj 119 229 select 0;
#X obj 119 258 outlet n;
#X obj 255 258 outlet others;
#X connect 0 0 8 0;
#X connect 1 0 4 0;
#X connect 2 0 3 0;
#X connect 3 0 8 0;
#X connect 4 0 7 1;
#X connect 5 0 6 0;
#X connect 6 0 4 0;
#X connect 7 0 10 0;
#X connect 8 0 9 0;
#X connect 8 0 7 0;
#X connect 9 0 8 1;
#X connect 10 0 11 0;
#X connect 10 1 12 0;
