#N canvas 311 129 1000 849 12;
#X obj 719 214 cnv 15 112 163 empty empty empty 20 12 0 14 -261869
-66577 0;
#X obj 738 234 tgl 38 0 empty empty start 7 -10 1 12 -259393 -1 -1
0 1;
#X msg 642 170 96;
#X obj 642 141 loadbang;
#X obj 140 338 metro;
#X obj 172 248 /, f 6;
#X obj 273 248 / 240;
#X msg 172 202 15000;
#X floatatom 723 353 10 0 0 1 16th - -, f 10;
#X floatatom 723 305 10 0 0 1 hz/4 - -, f 10;
#X obj 327 248 / 60;
#X floatatom 723 281 10 0 0 1 hz - -, f 10;
#X floatatom 723 329 10 0 0 1 bar - -, f 10;
#X obj 233 248 /;
#X msg 233 202 60000;
#X obj 172 163 t b f, f 28;
#X obj 199 459 f;
#X obj 261 428 + 1;
#X floatatom 199 488 5 0 0 0 - - -, f 5;
#X obj 199 516 sel 0;
#X obj 273 516 mod 64;
#X obj 273 573 sel 0;
#X floatatom 273 545 5 0 0 0 - - -, f 5;
#X obj 261 452 mod 128;
#X obj 350 573 mod 32;
#X floatatom 350 602 5 0 0 0 - - -, f 5;
#X obj 350 630 sel 0;
#X floatatom 424 659 5 0 0 0 - - -, f 5;
#X obj 424 687 sel 0;
#X obj 424 630 mod 16;
#X msg 199 412 0;
#X obj 199 383 bng 15 250 50 0 empty empty empty 17 7 0 10 -262144
-1 -1;
#X obj 199 354 sel 1, f 7;
#X obj 245 383 bng 15 250 50 0 empty empty empty 17 7 0 10 -262144
-1 -1;
#X floatatom 783 250 5 0 0 0 - - -, f 5;
#X obj 140 758 outlet;
#X obj 469 758 outlet;
#X obj 543 758 outlet;
#X obj 620 758 outlet;
#X obj 694 758 outlet;
#X msg 872 310 \; pd dsp 1;
#X text 788 229 bpm;
#X obj 245 758 outlet;
#X obj 199 545 bng 15 250 50 0 empty empty empty 17 7 0 10 -262144
-1 -1;
#X obj 273 602 bng 15 250 50 0 empty empty empty 17 7 0 10 -262144
-1 -1;
#X obj 350 659 bng 15 250 50 0 empty empty empty 17 7 0 10 -262144
-1 -1;
#X obj 424 716 bng 15 250 50 0 empty empty empty 17 7 0 10 -262144
-1 -1;
#X obj 798 34 inlet;
#X obj 708 35 inlet;
#X obj 859 368 sel 1;
#X obj 859 397 bng 15 250 50 0 empty empty empty 17 7 0 10 -262144
-1 -1;
#X obj 70 758 outlet;
#X connect 1 0 4 0;
#X connect 1 0 32 0;
#X connect 1 0 40 0;
#X connect 1 0 49 0;
#X connect 1 0 51 0;
#X connect 2 0 34 0;
#X connect 3 0 2 0;
#X connect 4 0 16 0;
#X connect 4 0 35 0;
#X connect 5 0 8 0;
#X connect 5 0 4 1;
#X connect 6 0 9 0;
#X connect 7 0 5 0;
#X connect 8 0 39 0;
#X connect 9 0 37 0;
#X connect 10 0 11 0;
#X connect 11 0 36 0;
#X connect 12 0 38 0;
#X connect 13 0 12 0;
#X connect 14 0 13 0;
#X connect 15 0 7 0;
#X connect 15 0 14 0;
#X connect 15 1 5 1;
#X connect 15 1 6 0;
#X connect 15 1 10 0;
#X connect 15 1 13 1;
#X connect 16 0 17 0;
#X connect 16 0 18 0;
#X connect 17 0 23 0;
#X connect 18 0 19 0;
#X connect 18 0 20 0;
#X connect 19 0 43 0;
#X connect 20 0 22 0;
#X connect 21 0 44 0;
#X connect 22 0 21 0;
#X connect 22 0 24 0;
#X connect 23 0 16 1;
#X connect 24 0 25 0;
#X connect 25 0 26 0;
#X connect 25 0 29 0;
#X connect 26 0 45 0;
#X connect 27 0 28 0;
#X connect 28 0 46 0;
#X connect 29 0 27 0;
#X connect 30 0 16 0;
#X connect 31 0 30 0;
#X connect 32 0 31 0;
#X connect 32 1 33 0;
#X connect 33 0 42 0;
#X connect 34 0 15 0;
#X connect 47 0 34 0;
#X connect 48 0 1 0;
#X connect 49 0 50 0;
#X connect 50 0 34 0;
#X coords 0 -1 1 1 118 187 1 716 194;
