#N canvas 1112 324 486 346 12;
#X obj 74 38 cnv 15 94 15 empty \$0-scaleName Minor.Pentatonic 2 6
1 10 -262005 -66577 0;
#N canvas 91 182 860 656.938 scales 0;
#X msg 736 173 0 2 4 5 7 9 11;
#X msg 736 194 0 2 3 5 7 8 10;
#X msg 736 215 0 4 7;
#X msg 736 236 0 3 7;
#X msg 736 257 0 2 4 7 9;
#X msg 736 278 0 3 5 7 10;
#X msg 736 314 0 2 3 5 7 9 10;
#X msg 736 335 0 2 4 5 7 9 10;
#X msg 736 356 0 2 4 6 7 9 11;
#X msg 736 377 0 1 3 5 7 8 10;
#X msg 736 398 0 1 3 4 7 8 10;
#X msg 736 434 0 1 3 4 6 7 9 10;
#X msg 736 455 0 2 3 5 6 8 9 11;
#X msg 736 476 0 2 4 6 8 10;
#X msg 736 497 0 3 5 6 7 10;
#X msg 736 518 0 2 3 5 7 8 11;
#X msg 736 554 0 2 3 5 7 9 11;
#X msg 736 575 0 1 3 4 6 8 10;
#X msg 736 596 0 1 4 5 7 8 11;
#X msg 736 617 0 2 3 6 7 8 11;
#X msg 736 638 0 1 4 5 7 8 10;
#X msg 736 674 0 2 3 7 8;
#X msg 736 695 0 1 5 7 10;
#X msg 736 716 0 1 5 6 10;
#X msg 736 737 0 2 3 7 9;
#X msg 736 758 0 1 3 4 7 8;
#X msg 736 778 0 1 3 4 5 6 8 10;
#X obj 112 121 sel 0 1 2 3 4 5 6 7 8 9 10 11 12 13 14 15 16 17 18 19
20 21 22 23 24 25 26 27, f 84;
#X msg 736 818 0 1 2 3 4 5 6 7 8 9 10 11;
#X obj 112 62 inlet;
#X obj 112 895 outlet scale;
#X obj 112 94 hradio 15 0 1 28 empty empty empty 0 -8 0 10 -262144
-1 -1 5;
#X msg 996 173 Major;
#X msg 996 194 Minor;
#X msg 996 215 Major.Triad;
#X msg 996 236 Minor.Triad;
#X msg 996 257 Major.Pentatonic;
#X msg 996 278 Minor.Pentatonic;
#X msg 996 314 Dorian;
#X msg 996 335 Mixolydian;
#X msg 996 356 Lydian;
#X msg 996 377 Phrygian;
#X msg 996 398 Locrian;
#X msg 996 434 Diminished;
#X msg 996 455 Whole-half;
#X msg 996 476 Whole.Tone;
#X msg 996 497 Minor.Blues;
#X msg 996 518 Harmonic.Minor;
#X msg 996 554 Melodic.Minor;
#X msg 996 575 Super.Locrian;
#X msg 996 596 Bhairav;
#X msg 996 617 Hungarian.Minor;
#X msg 996 638 Minor.Gypsy;
#X msg 996 674 Hirojoshi;
#X msg 996 695 In-Sen;
#X msg 996 716 Iwato;
#X msg 996 737 Kumoi;
#X msg 996 758 Pelog;
#X msg 996 778 Spanish;
#X msg 996 818 None;
#X obj 252 895 outlet scale name;
#X connect 0 0 30 0;
#X connect 1 0 30 0;
#X connect 2 0 30 0;
#X connect 3 0 30 0;
#X connect 4 0 30 0;
#X connect 5 0 30 0;
#X connect 6 0 30 0;
#X connect 7 0 30 0;
#X connect 8 0 30 0;
#X connect 9 0 30 0;
#X connect 10 0 30 0;
#X connect 11 0 30 0;
#X connect 12 0 30 0;
#X connect 13 0 30 0;
#X connect 14 0 30 0;
#X connect 15 0 30 0;
#X connect 16 0 30 0;
#X connect 17 0 30 0;
#X connect 18 0 30 0;
#X connect 19 0 30 0;
#X connect 20 0 30 0;
#X connect 21 0 30 0;
#X connect 22 0 30 0;
#X connect 23 0 30 0;
#X connect 24 0 30 0;
#X connect 25 0 30 0;
#X connect 26 0 30 0;
#X connect 27 0 0 0;
#X connect 27 0 32 0;
#X connect 27 1 1 0;
#X connect 27 1 33 0;
#X connect 27 2 2 0;
#X connect 27 2 34 0;
#X connect 27 3 3 0;
#X connect 27 3 35 0;
#X connect 27 4 4 0;
#X connect 27 4 36 0;
#X connect 27 5 5 0;
#X connect 27 5 37 0;
#X connect 27 6 6 0;
#X connect 27 6 38 0;
#X connect 27 7 7 0;
#X connect 27 7 39 0;
#X connect 27 8 8 0;
#X connect 27 8 40 0;
#X connect 27 9 9 0;
#X connect 27 9 41 0;
#X connect 27 10 10 0;
#X connect 27 10 42 0;
#X connect 27 11 11 0;
#X connect 27 11 43 0;
#X connect 27 12 12 0;
#X connect 27 12 44 0;
#X connect 27 13 13 0;
#X connect 27 13 45 0;
#X connect 27 14 14 0;
#X connect 27 14 46 0;
#X connect 27 15 15 0;
#X connect 27 15 47 0;
#X connect 27 16 16 0;
#X connect 27 16 48 0;
#X connect 27 17 17 0;
#X connect 27 17 49 0;
#X connect 27 18 18 0;
#X connect 27 18 50 0;
#X connect 27 19 19 0;
#X connect 27 19 51 0;
#X connect 27 20 20 0;
#X connect 27 20 52 0;
#X connect 27 21 21 0;
#X connect 27 21 53 0;
#X connect 27 22 22 0;
#X connect 27 22 54 0;
#X connect 27 23 23 0;
#X connect 27 23 55 0;
#X connect 27 24 24 0;
#X connect 27 24 56 0;
#X connect 27 25 25 0;
#X connect 27 25 57 0;
#X connect 27 26 26 0;
#X connect 27 26 58 0;
#X connect 27 27 28 0;
#X connect 27 27 59 0;
#X connect 28 0 30 0;
#X connect 29 0 31 0;
#X connect 31 0 27 0;
#X connect 32 0 60 0;
#X connect 33 0 60 0;
#X connect 34 0 60 0;
#X connect 35 0 60 0;
#X connect 36 0 60 0;
#X connect 37 0 60 0;
#X connect 38 0 60 0;
#X connect 39 0 60 0;
#X connect 40 0 60 0;
#X connect 41 0 60 0;
#X connect 42 0 60 0;
#X connect 43 0 60 0;
#X connect 44 0 60 0;
#X connect 45 0 60 0;
#X connect 46 0 60 0;
#X connect 47 0 60 0;
#X connect 48 0 60 0;
#X connect 49 0 60 0;
#X connect 50 0 60 0;
#X connect 51 0 60 0;
#X connect 52 0 60 0;
#X connect 53 0 60 0;
#X connect 54 0 60 0;
#X connect 55 0 60 0;
#X connect 56 0 60 0;
#X connect 57 0 60 0;
#X connect 58 0 60 0;
#X connect 59 0 60 0;
#X restore 228 163 pd scales;
#X obj 288 190 symbol;
#X msg 288 215 \; \$0-scaleName label \$1;
#X obj 228 136 nbx 3 12 0 27 0 1 empty empty empty 0 -8 1 10 -262144
-1 -1 5 256 0;
#X obj 40 147 +;
#X obj 40 38 bng 14 250 50 0 empty empty < 3 4 0 10 -240986 -260225
-1;
#X obj 85 212 int;
#X msg 40 106 -1;
#X msg 78 106 1;
#N canvas 245 404 422 402 once 0;
#X obj 174 194 spigot;
#X obj 107 51 inlet;
#X obj 174 132 t a b;
#X obj 206 162 f 1;
#X obj 174 226 t a b;
#X obj 206 268 f 0;
#X obj 174 309 outlet;
#X obj 280 51 inlet;
#X obj 280 92 bang;
#X obj 280 132 f 1;
#X obj 107 92 route bang;
#X obj 107 132 t b b;
#X obj 107 194 spigot;
#X obj 107 226 t b b;
#X connect 0 0 4 0;
#X connect 1 0 10 0;
#X connect 2 0 0 0;
#X connect 2 1 3 0;
#X connect 3 0 0 1;
#X connect 3 0 12 1;
#X connect 4 0 6 0;
#X connect 4 1 5 0;
#X connect 5 0 3 1;
#X connect 7 0 8 0;
#X connect 8 0 9 0;
#X connect 9 0 3 1;
#X connect 10 0 11 0;
#X connect 10 1 2 0;
#X connect 11 0 12 0;
#X connect 11 1 3 0;
#X connect 12 0 13 0;
#X connect 13 0 6 0;
#X connect 13 1 5 0;
#X restore 116 106 pd once;
#X obj 57 38 bng 14 250 50 0 empty empty > 4 4 0 10 -240986 -260225
-1;
#X obj 85 147 max 0;
#X obj 85 176 min 27;
#X obj 228 262 outlet;
#X obj 228 71 inlet;
#X connect 1 0 14 0;
#X connect 1 1 2 0;
#X connect 2 0 3 0;
#X connect 4 0 10 0;
#X connect 4 0 1 0;
#X connect 5 0 12 0;
#X connect 6 0 8 0;
#X connect 7 0 5 1;
#X connect 7 0 4 0;
#X connect 8 0 5 0;
#X connect 9 0 5 0;
#X connect 10 0 5 1;
#X connect 11 0 9 0;
#X connect 12 0 13 0;
#X connect 13 0 7 0;
#X connect 15 0 4 0;
#X coords 0 -1 1 1 132 18 2 38 36;
