#N canvas 814 663 552 377 12;
#X obj 83 93 cnv 15 78 41 empty empty empty 20 12 0 14 -262115 -66577
0;
#X obj 85 95 bng 15 50 20 0 empty empty play 18 6 1 10 -260993 -262144
-1;
#X msg 124 174 stop;
#X obj 85 277 *~;
#X obj 124 95 bng 15 250 50 0 empty empty stop 18 6 1 10 -258049 -1
-1;
#X obj 85 306 outlet~;
#X obj 159 306 outlet;
#X obj 85 114 hsl 70 9 0 1 0 1 empty empty volume 1 13 1 10 -262144
-1 -1 2200 1;
#X obj 85 40 inlet play;
#X obj 173 40 inlet stop;
#X obj 263 40 inlet volume;
#X obj 367 40 inlet samplename;
#X obj 85 216 tabplay~ \$1;
#X msg 367 174 set \$1;
#X connect 1 0 12 0;
#X connect 2 0 12 0;
#X connect 3 0 5 0;
#X connect 4 0 2 0;
#X connect 7 0 3 1;
#X connect 8 0 1 0;
#X connect 9 0 4 0;
#X connect 10 0 7 0;
#X connect 11 0 13 0;
#X connect 12 0 3 0;
#X connect 12 1 6 0;
#X connect 13 0 12 0;
#X coords 0 -1 1 1 84 47 1 80 90;
