#N canvas 1211 378 591 499.969 12;
#X obj 204 69 loadbang;
#X obj 60 182 array set \$0-scale;
#X obj 112 388 tabread \$0-scale;
#X obj 173 437 +;
#X obj 244 388 * 12;
#X obj 112 336 t f f;
#X obj 330 246 notein;
#X obj 330 294 - 36;
#X obj 221 182 list length;
#X floatatom 221 211 5 0 0 0 - - -, f 5;
#X obj 112 362 %, f 16;
#X obj 244 362 div;
#X obj 60 211 array define \$0-scale;
#X obj 330 202 inlet note;
#X obj 410 202 inlet velocity;
#X obj 357 505 pack f f;
#X obj 357 534 outlet;
#N canvas 870 233 1282 1004 scales 0;
#X msg 856 193 0 2 4 5 7 9 11;
#X msg 856 214 0 2 3 5 7 8 10;
#X msg 856 235 0 4 7;
#X msg 856 256 0 3 7;
#X msg 856 277 0 2 4 7 9;
#X msg 856 298 0 3 5 7 10;
#X msg 856 334 0 2 3 5 7 9 10;
#X text 983 334 Dorian;
#X msg 856 355 0 2 4 5 7 9 10;
#X text 983 355 Mixolydian;
#X msg 856 376 0 2 4 6 7 9 11;
#X text 983 376 Lydian;
#X text 983 397 Phrygian;
#X msg 856 397 0 1 3 5 7 8 10;
#X msg 856 418 0 1 3 4 7 8 10;
#X text 983 418 Locrian;
#X msg 856 454 0 1 3 4 6 7 9 10;
#X text 983 454 Diminished;
#X msg 856 475 0 2 3 5 6 8 9 11;
#X text 983 475 Whole-half;
#X text 983 496 Whole Tone;
#X msg 856 496 0 2 4 6 8 10;
#X text 983 517 Minor Blues;
#X msg 856 517 0 3 5 6 7 10;
#X msg 856 538 0 2 3 5 7 8 11;
#X text 984 538 Harmonic Minor;
#X text 983 277 Major Pentatonic;
#X text 983 298 Minor Pentatonic;
#X text 983 235 Major Triad;
#X text 983 256 Minor Triad;
#X text 983 193 Major;
#X text 983 214 Minor;
#X msg 856 574 0 2 3 5 7 9 11;
#X text 983 574 Melodic Minor;
#X msg 856 595 0 1 3 4 6 8 10;
#X text 983 595 Super Locrian;
#X msg 856 616 0 1 4 5 7 8 11;
#X text 983 616 Bhairav;
#X text 983 637 Hungarian Minor;
#X msg 856 637 0 2 3 6 7 8 11;
#X text 983 658 Minor Gypsy;
#X msg 856 658 0 1 4 5 7 8 10;
#X msg 856 694 0 2 3 7 8;
#X text 983 694 Hirojoshi;
#X text 983 715 In-Sen;
#X text 983 736 Iwato;
#X text 983 757 Kumoi;
#X text 983 778 Pelog;
#X text 983 798 Spanish;
#X msg 856 715 0 1 5 7 10;
#X msg 856 736 0 1 5 6 10;
#X msg 856 757 0 2 3 7 9;
#X msg 856 778 0 1 3 4 7 8;
#X msg 856 798 0 1 3 4 5 6 8 10;
#X text 1053 838 None;
#X obj 232 141 sel 0 1 2 3 4 5 6 7 8 9 10 11 12 13 14 15 16 17 18 19
20 21 22 23 24 25 26 27, f 84;
#X msg 856 838 0 1 2 3 4 5 6 7 8 9 10 11;
#X obj 232 82 inlet;
#X obj 232 915 outlet scale;
#X obj 232 114 hradio 15 0 1 28 empty empty empty 0 -8 0 10 -262144
-1 -1 2;
#X connect 0 0 58 0;
#X connect 1 0 58 0;
#X connect 2 0 58 0;
#X connect 3 0 58 0;
#X connect 4 0 58 0;
#X connect 5 0 58 0;
#X connect 6 0 58 0;
#X connect 8 0 58 0;
#X connect 10 0 58 0;
#X connect 13 0 58 0;
#X connect 14 0 58 0;
#X connect 16 0 58 0;
#X connect 18 0 58 0;
#X connect 21 0 58 0;
#X connect 23 0 58 0;
#X connect 24 0 58 0;
#X connect 32 0 58 0;
#X connect 34 0 58 0;
#X connect 36 0 58 0;
#X connect 39 0 58 0;
#X connect 41 0 58 0;
#X connect 42 0 58 0;
#X connect 49 0 58 0;
#X connect 50 0 58 0;
#X connect 51 0 58 0;
#X connect 52 0 58 0;
#X connect 53 0 58 0;
#X connect 55 0 0 0;
#X connect 55 1 1 0;
#X connect 55 2 2 0;
#X connect 55 3 3 0;
#X connect 55 4 4 0;
#X connect 55 5 5 0;
#X connect 55 6 6 0;
#X connect 55 7 8 0;
#X connect 55 8 10 0;
#X connect 55 9 13 0;
#X connect 55 10 14 0;
#X connect 55 11 16 0;
#X connect 55 12 18 0;
#X connect 55 13 21 0;
#X connect 55 14 23 0;
#X connect 55 15 24 0;
#X connect 55 16 32 0;
#X connect 55 17 34 0;
#X connect 55 18 36 0;
#X connect 55 19 39 0;
#X connect 55 20 41 0;
#X connect 55 21 42 0;
#X connect 55 22 49 0;
#X connect 55 23 50 0;
#X connect 55 24 51 0;
#X connect 55 25 52 0;
#X connect 55 26 53 0;
#X connect 55 27 56 0;
#X connect 56 0 58 0;
#X connect 57 0 59 0;
#X connect 59 0 55 0;
#X restore 204 124 pd scales;
#X obj 204 99 hradio 15 0 1 28 empty empty empty 0 -8 0 10 -262144
-1 -1 2;
#X connect 0 0 18 0;
#X connect 2 0 3 0;
#X connect 3 0 15 0;
#X connect 4 0 3 1;
#X connect 5 0 10 0;
#X connect 5 1 11 0;
#X connect 6 0 7 0;
#X connect 6 1 15 1;
#X connect 7 0 5 0;
#X connect 8 0 9 0;
#X connect 9 0 10 1;
#X connect 9 0 11 1;
#X connect 10 0 2 0;
#X connect 11 0 4 0;
#X connect 13 0 5 0;
#X connect 14 0 15 1;
#X connect 15 0 16 0;
#X connect 17 0 1 0;
#X connect 17 0 8 0;
#X connect 18 0 17 0;
