#N canvas 887 199 988 771 12;
#X obj 228 295 cnv 15 107 32 empty empty empty 20 12 0 14 -261869 -66577
0;
#X obj 234 308 hsl 57 12 0 1 0 1 empty empty volume -2 -8 1 10 -262144
-1 -1 5500 1;
#X obj 92 47 inlet note;
#X obj 92 482 outlet~;
#X obj 92 392 *~;
#X obj 184 47 inlet velocity;
#X obj 228 328 cnv 15 107 84 empty empty empty 20 12 0 14 -261400 -66577
0;
#X obj 234 339 vsl 15 64 5 500 1 1 A empty A 3 -9 1 10 -262144 -1 -1
2700 1;
#X obj 261 339 vsl 15 64 1 750 0 1 D empty D 3 -9 1 10 -262144 -1 -1
5400 1;
#X obj 288 339 vsl 15 64 0.01 100 0 1 S empty S 3 -9 1 10 -262144 -1
-1 4400 1;
#X obj 315 339 vsl 15 64 1 3000 0 1 R empty R 3 -9 1 10 -262144 -1
-1 4500 1;
#X floatatom 92 73 5 0 0 0 - - -, f 5;
#X floatatom 184 73 5 0 0 0 - - -, f 5;
#X obj 92 183 pack f f f;
#X obj 92 257 clone strings 6;
#X obj 92 151 - 1;
#X obj 424 47 inlet midimsg;
#X obj 424 76 unpack 0 0;
#X floatatom 434 105 5 0 0 0 - - -, f 5;
#X floatatom 501 105 5 0 0 0 - - -, f 5;
#X obj 424 224 mscale;
#X msg 700 116 0 2 4 5 7 9 11;
#X msg 700 137 0 2 3 5 7 8 10;
#X msg 700 158 0 4 7;
#X msg 700 179 0 3 7;
#X msg 700 200 0 2 4 7 9;
#X msg 700 221 0 3 5 7 10;
#X obj 443 140 showkey;
#X floatatom 443 190 5 0 0 0 - - -, f 5;
#X floatatom 424 265 5 0 0 0 - - -, f 5;
#X obj 424 293 pack 0 0, f 10;
#X obj 628 75 loadbang;
#X msg 567 106 66;
#X obj 510 76 r mainRoot;
#X msg 252 124 vis 0 1;
#X msg 252 148 vis 1 1;
#X msg 252 172 vis 2 1;
#X msg 314 124 vis 3 1;
#X msg 314 148 vis 4 1;
#X msg 314 173 vis 5 1;
#X msg 322 224 all 0 0;
#X obj 92 122 poly 6 1, f 10;
#X obj 318 308 tgl 12 1 octUp empty +oct -2 -8 1 8 -262144 -1 -1 1
1;
#X obj 302 308 tgl 12 1 octDown empty -oct -2 -8 1 8 -262144 -1 -1
1 1;
#X obj 104 302 clone strings 6;
#X obj 152 482 outlet~;
#X obj 152 392 *~;
#X floatatom 369 384 5 0 20 0 - - lopKT, f 5;
#X obj 369 350 hsl 40 9 0 20 0 1 empty empty LOPKT 1 -6 1 8 -262144
-1 -1 3900 1;
#X msg 700 257 0 2 3 5 7 9 10;
#X text 827 257 Dorian;
#X msg 700 278 0 2 4 5 7 9 10;
#X text 827 278 Mixolydian;
#X msg 700 299 0 2 4 6 7 9 11;
#X text 827 299 Lydian;
#X text 827 320 Phrygian;
#X msg 700 320 0 1 3 5 7 8 10;
#X msg 700 341 0 1 3 4 7 8 10;
#X text 827 341 Locrian;
#X msg 700 377 0 1 3 4 6 7 9 10;
#X text 827 377 Diminished;
#X msg 700 398 0 2 3 5 6 8 9 11;
#X text 827 398 Whole-half;
#X text 827 419 Whole Tone;
#X msg 700 419 0 2 4 6 8 10;
#X text 827 440 Minor Blues;
#X msg 700 440 0 3 5 6 7 10;
#X msg 700 461 0 2 3 5 7 8 11;
#X text 828 461 Harmonic Minor;
#X text 827 200 Major Pentatonic;
#X text 827 221 Minor Pentatonic;
#X text 827 158 Major Triad;
#X text 827 179 Minor Triad;
#X text 827 116 Major;
#X text 827 137 Minor;
#X msg 700 497 0 2 3 5 7 9 11;
#X text 827 497 Melodic Minor;
#X msg 700 518 0 1 3 4 6 8 10;
#X text 827 518 Super Locrian;
#X msg 700 539 0 1 4 5 7 8 11;
#X text 827 539 Bhairav;
#X text 827 560 Hungarian Minor;
#X msg 700 560 0 2 3 6 7 8 11;
#X text 827 581 Minor Gypsy;
#X msg 700 581 0 1 4 5 7 8 10;
#X msg 700 617 0 2 3 7 8;
#X text 827 617 Hirojoshi;
#X text 827 638 In-Sen;
#X text 827 659 Iwato;
#X text 827 680 Kumoi;
#X text 827 701 Pelog;
#X text 827 721 Spanish;
#X msg 700 638 0 1 5 7 10;
#X msg 700 659 0 1 5 6 10;
#X msg 700 680 0 2 3 7 9;
#X msg 700 701 0 1 3 4 7 8;
#X msg 700 721 0 1 3 4 5 6 8 10;
#X connect 1 0 4 1;
#X connect 1 0 46 1;
#X connect 2 0 11 0;
#X connect 4 0 3 0;
#X connect 5 0 12 0;
#X connect 11 0 41 0;
#X connect 12 0 41 1;
#X connect 13 0 14 0;
#X connect 13 0 44 0;
#X connect 14 0 4 0;
#X connect 15 0 13 0;
#X connect 16 0 17 0;
#X connect 17 0 18 0;
#X connect 17 0 20 0;
#X connect 17 1 19 0;
#X connect 17 1 30 1;
#X connect 20 0 29 0;
#X connect 21 0 20 2;
#X connect 22 0 20 2;
#X connect 23 0 20 2;
#X connect 24 0 20 2;
#X connect 25 0 20 2;
#X connect 26 0 20 2;
#X connect 27 0 28 0;
#X connect 28 0 20 1;
#X connect 29 0 30 0;
#X connect 30 0 41 0;
#X connect 31 0 22 0;
#X connect 31 0 32 0;
#X connect 32 0 27 0;
#X connect 33 0 27 0;
#X connect 34 0 14 0;
#X connect 35 0 14 0;
#X connect 36 0 14 0;
#X connect 37 0 14 0;
#X connect 38 0 14 0;
#X connect 39 0 14 0;
#X connect 40 0 14 0;
#X connect 40 0 44 0;
#X connect 41 0 15 0;
#X connect 41 1 13 1;
#X connect 41 2 13 2;
#X connect 44 0 46 0;
#X connect 46 0 45 0;
#X connect 48 0 47 0;
#X connect 49 0 20 2;
#X connect 51 0 20 2;
#X connect 53 0 20 2;
#X connect 56 0 20 2;
#X connect 57 0 20 2;
#X connect 59 0 20 2;
#X connect 61 0 20 2;
#X connect 64 0 20 2;
#X connect 66 0 20 2;
#X connect 67 0 20 2;
#X connect 75 0 20 2;
#X connect 77 0 20 2;
#X connect 79 0 20 2;
#X connect 82 0 20 2;
#X connect 84 0 20 2;
#X connect 85 0 20 2;
#X connect 92 0 20 2;
#X connect 93 0 20 2;
#X connect 94 0 20 2;
#X connect 95 0 20 2;
#X connect 96 0 20 2;
#X coords 0 -1 1 1 113 141 1 225 274;
