#N canvas 389 410 422 598 12;
#X obj 74 41 inlet;
#X floatatom 74 68 5 0 0 0 - - -, f 5;
#X obj 74 234 +~;
#X obj 74 170 sig~;
#X obj 142 194 *~ 2;
#X obj 142 140 + 1;
#X obj 74 553 outlet~;
#X obj 142 108 * 0.011;
#X obj 142 170 osc~;
#X obj 74 272 phasor~;
#X obj 74 411 +~ 1;
#X obj 74 381 *~ 2048;
#X obj 74 351 +~ 0.5, f 7;
#X obj 74 441 tabread4~ square;
#X obj 74 501 *~ 0.25;
#X obj 245 108 loadbang;
#X obj 245 133 random 1000;
#X obj 245 183 + 1;
#X obj 245 158 * 0.002;
#X obj 74 321 *~;
#X obj 245 233 *~ -0.3;
#X obj 245 258 +~ -1.5;
#X obj 74 471 -~ 0.5, f 7;
#X obj 245 208 osc~ 1.2;
#X connect 0 0 1 0;
#X connect 1 0 3 0;
#X connect 1 0 7 0;
#X connect 2 0 9 0;
#X connect 3 0 2 0;
#X connect 4 0 2 1;
#X connect 5 0 8 0;
#X connect 7 0 5 0;
#X connect 8 0 4 0;
#X connect 9 0 19 0;
#X connect 10 0 13 0;
#X connect 11 0 10 0;
#X connect 12 0 11 0;
#X connect 13 0 22 0;
#X connect 14 0 6 0;
#X connect 15 0 16 0;
#X connect 16 0 18 0;
#X connect 17 0 23 0;
#X connect 18 0 17 0;
#X connect 19 0 12 0;
#X connect 20 0 21 0;
#X connect 21 0 19 1;
#X connect 22 0 14 0;
#X connect 23 0 20 0;
