#N canvas 1315 418 883 639 12;
#X obj 72 239 mtof;
#X obj 72 609 outlet~;
#X obj 72 502 lop~ 5000;
#X obj 156 450 * 10;
#X obj 182 355 * 1.0045;
#X obj 72 40 inlet;
#X obj 72 69 unpack;
#X obj 72 551 *~;
#X obj 72 580 *~ 0.18;
#X floatatom 690 313 5 0 0 0 - A -, f 5;
#X floatatom 734 313 5 0 0 0 - D -, f 5;
#X floatatom 778 313 5 0 0 0 - S -, f 5;
#X floatatom 823 313 5 0 0 0 - R -, f 5;
#X floatatom 602 191 5 0 0 0 - - -, f 5;
#X obj 646 263 / 127;
#X floatatom 646 313 5 0 0 0 - - -, f 5;
#X obj 602 234 sel 0;
#X floatatom 602 263 5 0 0 0 - - -, f 5;
#X obj 72 199 spigot;
#X obj 111 177 tgl 15 1 empty empty empty 17 7 0 10 -262144 -1 -1 0
1;
#X msg 143 142 1;
#X msg 111 142 0;
#X obj 111 113 sel 0;
#X obj 602 427 adsr, f 32;
#X obj 692 527 hsl 128 15 0 1 0 0 empty empty empty -2 -8 0 10 -262144
-1 -1 0 1;
#X floatatom 692 551 5 0 0 0 - - -, f 5;
#X obj 292 355 * 2;
#X obj 402 355 * 0.5;
#X obj 267 425 tgl 15 1 empty octUp empty 17 7 0 10 -262144 -1 -1 0
1;
#X obj 377 425 tgl 15 1 empty octDown empty 17 7 0 10 -262144 -1 -1
1 1;
#X obj 267 460 mux~;
#X obj 377 460 mux~;
#X floatatom 181 424 5 0 0 0 - lopKT -, f 5;
#X obj 402 386 string_osc;
#X obj 292 386 string_osc;
#X obj 182 386 string_osc;
#X obj 72 386 string_osc;
#X connect 0 0 3 0;
#X connect 0 0 4 0;
#X connect 0 0 26 0;
#X connect 0 0 27 0;
#X connect 0 0 36 0;
#X connect 2 0 7 0;
#X connect 3 0 2 1;
#X connect 4 0 35 0;
#X connect 5 0 6 0;
#X connect 6 0 18 0;
#X connect 6 1 13 0;
#X connect 6 1 22 0;
#X connect 7 0 8 0;
#X connect 8 0 1 0;
#X connect 9 0 23 2;
#X connect 10 0 23 3;
#X connect 11 0 23 4;
#X connect 12 0 23 5;
#X connect 13 0 16 0;
#X connect 14 0 15 0;
#X connect 15 0 23 1;
#X connect 15 0 23 0;
#X connect 16 0 17 0;
#X connect 16 1 14 0;
#X connect 17 0 23 0;
#X connect 18 0 0 0;
#X connect 19 0 18 1;
#X connect 20 0 19 0;
#X connect 21 0 19 0;
#X connect 22 0 21 0;
#X connect 22 1 20 0;
#X connect 23 0 7 1;
#X connect 23 1 24 0;
#X connect 24 0 25 0;
#X connect 26 0 34 0;
#X connect 27 0 33 0;
#X connect 28 0 30 0;
#X connect 29 0 31 0;
#X connect 30 0 2 0;
#X connect 31 0 2 0;
#X connect 32 0 3 1;
#X connect 33 0 31 1;
#X connect 34 0 30 1;
#X connect 35 0 2 0;
#X connect 36 0 2 0;
