#N canvas 69 283 642 501 12;
#X obj 72 129 mtof;
#X obj 72 439 outlet~;
#X obj 72 322 lop~ 5000;
#X obj 132 298 * 10;
#N canvas 1232 247 361 476 string_osc 0;
#X obj 43 43 inlet;
#X obj 43 274 phasor~;
#X obj 43 331 expr~ $v1 > $v2;
#X obj 205 293 +~ 0.5;
#X obj 43 356 *~ 0.25;
#X floatatom 43 110 5 0 0 0 - - -, f 5;
#X obj 205 268 *~ 0.3;
#X obj 43 236 +~;
#X obj 43 172 sig~;
#X obj 205 236 osc~ 1.864;
#X obj 111 172 osc~ 5;
#X obj 111 196 *~ 2;
#X obj 111 142 + 1;
#X obj 205 81 loadbang;
#X obj 205 110 random 1000;
#X obj 205 172 + 1;
#X obj 205 142 * 0.002;
#X obj 43 380 outlet~;
#X obj 111 110 * 0.011;
#X connect 0 0 5 0;
#X connect 0 0 18 0;
#X connect 1 0 2 0;
#X connect 2 0 4 0;
#X connect 3 0 2 1;
#X connect 4 0 17 0;
#X connect 5 0 8 0;
#X connect 6 0 3 0;
#X connect 7 0 1 0;
#X connect 8 0 7 0;
#X connect 9 0 6 0;
#X connect 10 0 11 0;
#X connect 11 0 7 1;
#X connect 12 0 10 0;
#X connect 13 0 14 0;
#X connect 14 0 16 0;
#X connect 15 0 9 0;
#X connect 16 0 15 0;
#X connect 18 0 12 0;
#X restore 188 257 pd string_osc;
#X obj 188 235 * 1.0045;
#X obj 72 40 inlet;
#N canvas 1232 247 361 476 string_osc 0;
#X obj 43 43 inlet;
#X obj 43 274 phasor~;
#X obj 43 331 expr~ $v1 > $v2;
#X obj 205 293 +~ 0.5;
#X obj 43 356 *~ 0.25;
#X floatatom 43 110 5 0 0 0 - - -, f 5;
#X obj 205 268 *~ 0.3;
#X obj 43 236 +~;
#X obj 43 172 sig~;
#X obj 205 236 osc~ 1.864;
#X obj 111 172 osc~ 5;
#X obj 111 196 *~ 2;
#X obj 111 142 + 1;
#X obj 205 81 loadbang;
#X obj 205 110 random 1000;
#X obj 205 172 + 1;
#X obj 205 142 * 0.002;
#X obj 43 380 outlet~;
#X obj 111 110 * 0.011;
#X connect 0 0 5 0;
#X connect 0 0 18 0;
#X connect 1 0 2 0;
#X connect 2 0 4 0;
#X connect 3 0 2 1;
#X connect 4 0 17 0;
#X connect 5 0 8 0;
#X connect 6 0 3 0;
#X connect 7 0 1 0;
#X connect 8 0 7 0;
#X connect 9 0 6 0;
#X connect 10 0 11 0;
#X connect 11 0 7 1;
#X connect 12 0 10 0;
#X connect 13 0 14 0;
#X connect 14 0 16 0;
#X connect 15 0 9 0;
#X connect 16 0 15 0;
#X connect 18 0 12 0;
#X restore 72 257 pd string_osc;
#X obj 72 69 unpack;
#X obj 72 381 *~, f 15;
#X obj 72 410 *~ 0.18;
#X obj 358 123 vsl 15 64 5 500 1 1 empty A A 3 -9 1 10 -262144 -1 -1
50 1;
#X obj 385 123 vsl 15 64 7.5 750 1 1 empty D D 3 -9 1 10 -262144 -1
-1 4500 1;
#X obj 412 123 vsl 15 64 0.01 1 1 1 empty S S 3 -9 1 10 -262144 -1
-1 6300 1;
#X obj 439 123 vsl 15 64 1 1200 1 1 empty R R 3 -9 1 10 -262144 -1
-1 6300 1;
#X obj 340 325 vline~;
#X floatatom 341 212 5 0 0 0 - - -, f 5;
#X floatatom 388 212 5 0 0 0 - - -, f 5;
#X floatatom 435 212 5 0 0 0 - - -, f 5;
#X floatatom 528 212 5 0 0 0 - - -, f 5;
#X obj 475 280 pack f f;
#X floatatom 475 110 5 0 0 0 - - -, f 5;
#X obj 340 251 pack f f f f f;
#X obj 482 173 / 127;
#X floatatom 482 212 5 0 0 0 - - -, f 5;
#X msg 340 280 \$5 \$2 \, \$4 \$3 \$2;
#X obj 475 133 sel 0;
#X connect 0 0 3 0;
#X connect 0 0 5 0;
#X connect 0 0 7 0;
#X connect 0 0 22 0;
#X connect 2 0 9 0;
#X connect 3 0 2 1;
#X connect 4 0 2 0;
#X connect 5 0 4 0;
#X connect 6 0 8 0;
#X connect 7 0 2 0;
#X connect 8 0 0 0;
#X connect 8 1 21 0;
#X connect 9 0 10 0;
#X connect 10 0 1 0;
#X connect 11 0 16 0;
#X connect 12 0 17 0;
#X connect 13 0 18 0;
#X connect 14 0 19 0;
#X connect 15 0 9 1;
#X connect 16 0 22 1;
#X connect 17 0 22 2;
#X connect 18 0 22 3;
#X connect 19 0 20 1;
#X connect 20 0 15 0;
#X connect 21 0 26 0;
#X connect 22 0 25 0;
#X connect 23 0 24 0;
#X connect 24 0 22 4;
#X connect 25 0 15 0;
#X connect 26 0 20 0;
#X connect 26 1 23 0;
