#N canvas 265 328 883 639 12;
#X obj 72 239 mtof;
#X obj 72 609 outlet~;
#X obj 72 502 lop~ 5000;
#X obj 156 450 * 10;
#N canvas 1232 247 361 476 string_osc 0;
#X obj 43 43 inlet;
#X obj 43 274 phasor~;
#X obj 43 331 expr~ $v1 > $v2;
#X obj 205 293 +~ 0.5;
#X obj 43 356 *~ 0.25;
#X floatatom 43 110 5 0 0 0 - - -, f 5;
#X obj 205 268 *~ 0.3;
#X obj 43 236 +~;
#X obj 43 172 sig~;
#X obj 205 236 osc~ 1.864;
#X obj 111 172 osc~ 5;
#X obj 111 196 *~ 2;
#X obj 111 142 + 1;
#X obj 205 81 loadbang;
#X obj 205 110 random 1000;
#X obj 205 172 + 1;
#X obj 205 142 * 0.002;
#X obj 43 380 outlet~;
#X obj 111 110 * 0.011;
#X connect 0 0 5 0;
#X connect 0 0 18 0;
#X connect 1 0 2 0;
#X connect 2 0 4 0;
#X connect 3 0 2 1;
#X connect 4 0 17 0;
#X connect 5 0 8 0;
#X connect 6 0 3 0;
#X connect 7 0 1 0;
#X connect 8 0 7 0;
#X connect 9 0 6 0;
#X connect 10 0 11 0;
#X connect 11 0 7 1;
#X connect 12 0 10 0;
#X connect 13 0 14 0;
#X connect 14 0 16 0;
#X connect 15 0 9 0;
#X connect 16 0 15 0;
#X connect 18 0 12 0;
#X restore 182 387 pd string_osc;
#X obj 182 355 * 1.0045;
#X obj 72 40 inlet;
#N canvas 1232 247 361 476 string_osc 0;
#X obj 43 43 inlet;
#X obj 43 274 phasor~;
#X obj 43 331 expr~ $v1 > $v2;
#X obj 205 293 +~ 0.5;
#X obj 43 356 *~ 0.25;
#X floatatom 43 110 5 0 0 0 - - -, f 5;
#X obj 205 268 *~ 0.3;
#X obj 43 236 +~;
#X obj 43 172 sig~;
#X obj 205 236 osc~ 1.864;
#X obj 111 172 osc~ 5;
#X obj 111 196 *~ 2;
#X obj 111 142 + 1;
#X obj 205 81 loadbang;
#X obj 205 110 random 1000;
#X obj 205 172 + 1;
#X obj 205 142 * 0.002;
#X obj 43 380 outlet~;
#X obj 111 110 * 0.011;
#X connect 0 0 5 0;
#X connect 0 0 18 0;
#X connect 1 0 2 0;
#X connect 2 0 4 0;
#X connect 3 0 2 1;
#X connect 4 0 17 0;
#X connect 5 0 8 0;
#X connect 6 0 3 0;
#X connect 7 0 1 0;
#X connect 8 0 7 0;
#X connect 9 0 6 0;
#X connect 10 0 11 0;
#X connect 11 0 7 1;
#X connect 12 0 10 0;
#X connect 13 0 14 0;
#X connect 14 0 16 0;
#X connect 15 0 9 0;
#X connect 16 0 15 0;
#X connect 18 0 12 0;
#X restore 72 387 pd string_osc;
#X obj 72 69 unpack;
#X obj 72 551 *~;
#X obj 72 580 *~ 0.18;
#X floatatom 690 313 5 0 0 0 - A -, f 5;
#X floatatom 734 313 5 0 0 0 - D -, f 5;
#X floatatom 778 313 5 0 0 0 - S -, f 5;
#X floatatom 823 313 5 0 0 0 - R -, f 5;
#X floatatom 602 191 5 0 0 0 - - -, f 5;
#X obj 646 263 / 127;
#X floatatom 646 313 5 0 0 0 - - -, f 5;
#X obj 602 234 sel 0;
#X floatatom 602 263 5 0 0 0 - - -, f 5;
#X obj 72 199 spigot;
#X obj 111 177 tgl 15 1 empty empty empty 17 7 0 10 -262144 -1 -1 0
1;
#X msg 143 142 1;
#X msg 111 142 0;
#X obj 111 113 sel 0;
#X obj 602 427 adsr, f 32;
#X obj 692 527 hsl 128 15 0 1 0 0 empty empty empty -2 -8 0 10 -262144
-1 -1 0 1;
#X floatatom 692 551 5 0 0 0 - - -, f 5;
#N canvas 1232 247 361 476 string_osc 0;
#X obj 43 43 inlet;
#X obj 43 274 phasor~;
#X obj 43 331 expr~ $v1 > $v2;
#X obj 205 293 +~ 0.5;
#X obj 43 356 *~ 0.25;
#X floatatom 43 110 5 0 0 0 - - -, f 5;
#X obj 205 268 *~ 0.3;
#X obj 43 236 +~;
#X obj 43 172 sig~;
#X obj 205 236 osc~ 1.864;
#X obj 111 172 osc~ 5;
#X obj 111 196 *~ 2;
#X obj 111 142 + 1;
#X obj 205 81 loadbang;
#X obj 205 110 random 1000;
#X obj 205 172 + 1;
#X obj 205 142 * 0.002;
#X obj 43 380 outlet~;
#X obj 111 110 * 0.011;
#X connect 0 0 5 0;
#X connect 0 0 18 0;
#X connect 1 0 2 0;
#X connect 2 0 4 0;
#X connect 3 0 2 1;
#X connect 4 0 17 0;
#X connect 5 0 8 0;
#X connect 6 0 3 0;
#X connect 7 0 1 0;
#X connect 8 0 7 0;
#X connect 9 0 6 0;
#X connect 10 0 11 0;
#X connect 11 0 7 1;
#X connect 12 0 10 0;
#X connect 13 0 14 0;
#X connect 14 0 16 0;
#X connect 15 0 9 0;
#X connect 16 0 15 0;
#X connect 18 0 12 0;
#X restore 292 387 pd string_osc;
#X obj 292 355 * 2;
#N canvas 1232 247 361 476 string_osc 0;
#X obj 43 43 inlet;
#X obj 43 274 phasor~;
#X obj 43 331 expr~ $v1 > $v2;
#X obj 205 293 +~ 0.5;
#X obj 43 356 *~ 0.25;
#X floatatom 43 110 5 0 0 0 - - -, f 5;
#X obj 205 268 *~ 0.3;
#X obj 43 236 +~;
#X obj 43 172 sig~;
#X obj 205 236 osc~ 1.864;
#X obj 111 172 osc~ 5;
#X obj 111 196 *~ 2;
#X obj 111 142 + 1;
#X obj 205 81 loadbang;
#X obj 205 110 random 1000;
#X obj 205 172 + 1;
#X obj 205 142 * 0.002;
#X obj 43 380 outlet~;
#X obj 111 110 * 0.011;
#X connect 0 0 5 0;
#X connect 0 0 18 0;
#X connect 1 0 2 0;
#X connect 2 0 4 0;
#X connect 3 0 2 1;
#X connect 4 0 17 0;
#X connect 5 0 8 0;
#X connect 6 0 3 0;
#X connect 7 0 1 0;
#X connect 8 0 7 0;
#X connect 9 0 6 0;
#X connect 10 0 11 0;
#X connect 11 0 7 1;
#X connect 12 0 10 0;
#X connect 13 0 14 0;
#X connect 14 0 16 0;
#X connect 15 0 9 0;
#X connect 16 0 15 0;
#X connect 18 0 12 0;
#X restore 402 387 pd string_osc;
#X obj 402 355 * 0.5;
#X obj 267 425 tgl 15 1 empty octUp empty 17 7 0 10 -262144 -1 -1 1
1;
#X obj 377 425 tgl 15 1 empty octDown empty 17 7 0 10 -262144 -1 -1
0 1;
#X obj 267 460 mux~;
#X obj 377 460 mux~;
#X floatatom 181 424 5 0 0 0 - lopKT -, f 5;
#X connect 0 0 3 0;
#X connect 0 0 5 0;
#X connect 0 0 7 0;
#X connect 0 0 29 0;
#X connect 0 0 31 0;
#X connect 2 0 9 0;
#X connect 3 0 2 1;
#X connect 4 0 2 0;
#X connect 5 0 4 0;
#X connect 6 0 8 0;
#X connect 7 0 2 0;
#X connect 8 0 20 0;
#X connect 8 1 15 0;
#X connect 8 1 24 0;
#X connect 9 0 10 0;
#X connect 10 0 1 0;
#X connect 11 0 25 2;
#X connect 12 0 25 3;
#X connect 13 0 25 4;
#X connect 14 0 25 5;
#X connect 15 0 18 0;
#X connect 16 0 17 0;
#X connect 17 0 25 1;
#X connect 17 0 25 0;
#X connect 18 0 19 0;
#X connect 18 1 16 0;
#X connect 19 0 25 0;
#X connect 20 0 0 0;
#X connect 21 0 20 1;
#X connect 22 0 21 0;
#X connect 23 0 21 0;
#X connect 24 0 23 0;
#X connect 24 1 22 0;
#X connect 25 0 9 1;
#X connect 25 1 26 0;
#X connect 26 0 27 0;
#X connect 28 0 34 1;
#X connect 29 0 28 0;
#X connect 30 0 35 1;
#X connect 31 0 30 0;
#X connect 32 0 34 0;
#X connect 33 0 35 0;
#X connect 34 0 2 0;
#X connect 35 0 2 0;
#X connect 36 0 3 1;
