#N canvas 1288 221 658 639 12;
#X obj 72 299 mtof;
#X obj 72 609 outlet~;
#X obj 72 472 lop~ 5000;
#X obj 132 444 * 10;
#N canvas 1232 247 361 476 string_osc 0;
#X obj 43 43 inlet;
#X obj 43 274 phasor~;
#X obj 43 331 expr~ $v1 > $v2;
#X obj 205 293 +~ 0.5;
#X obj 43 356 *~ 0.25;
#X floatatom 43 110 5 0 0 0 - - -, f 5;
#X obj 205 268 *~ 0.3;
#X obj 43 236 +~;
#X obj 43 172 sig~;
#X obj 205 236 osc~ 1.864;
#X obj 111 172 osc~ 5;
#X obj 111 196 *~ 2;
#X obj 111 142 + 1;
#X obj 205 81 loadbang;
#X obj 205 110 random 1000;
#X obj 205 172 + 1;
#X obj 205 142 * 0.002;
#X obj 43 380 outlet~;
#X obj 111 110 * 0.011;
#X connect 0 0 5 0;
#X connect 0 0 18 0;
#X connect 1 0 2 0;
#X connect 2 0 4 0;
#X connect 3 0 2 1;
#X connect 4 0 17 0;
#X connect 5 0 8 0;
#X connect 6 0 3 0;
#X connect 7 0 1 0;
#X connect 8 0 7 0;
#X connect 9 0 6 0;
#X connect 10 0 11 0;
#X connect 11 0 7 1;
#X connect 12 0 10 0;
#X connect 13 0 14 0;
#X connect 14 0 16 0;
#X connect 15 0 9 0;
#X connect 16 0 15 0;
#X connect 18 0 12 0;
#X restore 188 387 pd string_osc;
#X obj 188 355 * 1.0045;
#X obj 72 40 inlet;
#N canvas 1232 247 361 476 string_osc 0;
#X obj 43 43 inlet;
#X obj 43 274 phasor~;
#X obj 43 331 expr~ $v1 > $v2;
#X obj 205 293 +~ 0.5;
#X obj 43 356 *~ 0.25;
#X floatatom 43 110 5 0 0 0 - - -, f 5;
#X obj 205 268 *~ 0.3;
#X obj 43 236 +~;
#X obj 43 172 sig~;
#X obj 205 236 osc~ 1.864;
#X obj 111 172 osc~ 5;
#X obj 111 196 *~ 2;
#X obj 111 142 + 1;
#X obj 205 81 loadbang;
#X obj 205 110 random 1000;
#X obj 205 172 + 1;
#X obj 205 142 * 0.002;
#X obj 43 380 outlet~;
#X obj 111 110 * 0.011;
#X connect 0 0 5 0;
#X connect 0 0 18 0;
#X connect 1 0 2 0;
#X connect 2 0 4 0;
#X connect 3 0 2 1;
#X connect 4 0 17 0;
#X connect 5 0 8 0;
#X connect 6 0 3 0;
#X connect 7 0 1 0;
#X connect 8 0 7 0;
#X connect 9 0 6 0;
#X connect 10 0 11 0;
#X connect 11 0 7 1;
#X connect 12 0 10 0;
#X connect 13 0 14 0;
#X connect 14 0 16 0;
#X connect 15 0 9 0;
#X connect 16 0 15 0;
#X connect 18 0 12 0;
#X restore 72 387 pd string_osc;
#X obj 72 69 unpack;
#X obj 72 551 *~;
#X obj 72 580 *~ 0.18;
#X obj 400 224 vsl 15 64 5 500 1 1 empty A A 3 -9 1 10 -262144 -1 -1
1750 1;
#X obj 444 224 vsl 15 64 1 750 0 1 empty D D 3 -9 1 10 -262144 -1 -1
4300 1;
#X obj 488 224 vsl 15 64 0.01 100 0 1 empty S S 3 -9 1 10 -262144 -1
-1 3200 1;
#X obj 533 224 vsl 15 64 1 1200 0 1 empty R R 3 -9 1 10 -262144 -1
-1 3600 1;
#X floatatom 400 313 5 0 0 0 - - -, f 5;
#X floatatom 444 313 5 0 0 0 - - -, f 5;
#X floatatom 488 313 5 0 0 0 - - -, f 5;
#X floatatom 533 313 5 0 0 0 - - -, f 5;
#X floatatom 312 191 5 0 0 0 - - -, f 5;
#X obj 356 263 / 127;
#X floatatom 356 313 5 0 0 0 - - -, f 5;
#X obj 312 234 sel 0;
#X floatatom 312 263 5 0 0 0 - - -, f 5;
#X obj 72 199 spigot;
#X obj 111 177 tgl 15 1 empty empty empty 17 7 0 10 -262144 -1 -1 0
1;
#X msg 143 142 1;
#X msg 111 142 0;
#X obj 111 113 sel 0;
#X obj 312 427 adsr, f 32;
#X obj 402 527 hsl 128 15 0 1 0 0 empty empty empty -2 -8 0 10 -262144
-1 -1 0 1;
#X floatatom 402 551 5 0 0 0 - - -, f 5;
#X connect 0 0 3 0;
#X connect 0 0 5 0;
#X connect 0 0 7 0;
#X connect 2 0 9 0;
#X connect 3 0 2 1;
#X connect 4 0 2 0;
#X connect 5 0 4 0;
#X connect 6 0 8 0;
#X connect 7 0 2 0;
#X connect 8 0 24 0;
#X connect 8 1 19 0;
#X connect 8 1 28 0;
#X connect 9 0 10 0;
#X connect 10 0 1 0;
#X connect 11 0 15 0;
#X connect 12 0 16 0;
#X connect 13 0 17 0;
#X connect 14 0 18 0;
#X connect 15 0 29 2;
#X connect 16 0 29 3;
#X connect 17 0 29 4;
#X connect 18 0 29 5;
#X connect 19 0 22 0;
#X connect 20 0 21 0;
#X connect 21 0 29 1;
#X connect 21 0 29 0;
#X connect 22 0 23 0;
#X connect 22 1 20 0;
#X connect 23 0 29 0;
#X connect 24 0 0 0;
#X connect 25 0 24 1;
#X connect 26 0 25 0;
#X connect 27 0 25 0;
#X connect 28 0 27 0;
#X connect 28 1 26 0;
#X connect 29 0 9 1;
#X connect 29 1 30 0;
#X connect 30 0 31 0;
