#N canvas 1223 448 384 426 12;
#X obj 74 41 inlet;
#X obj 74 272 phasor~;
#X obj 74 329 expr~ $v1 > $v2;
#X obj 236 291 +~ 0.5;
#X obj 74 354 *~ 0.25;
#X floatatom 74 108 5 0 0 0 - - -, f 5;
#X obj 236 266 *~ 0.3;
#X obj 74 234 +~;
#X obj 74 170 sig~;
#X obj 236 234 osc~ 1.864;
#X obj 142 170 osc~ 5;
#X obj 142 194 *~ 2;
#X obj 142 140 + 1;
#X obj 236 79 loadbang;
#X obj 236 108 random 1000;
#X obj 236 170 + 1;
#X obj 236 140 * 0.002;
#X obj 74 378 outlet~;
#X obj 142 108 * 0.011;
#X connect 0 0 5 0;
#X connect 0 0 18 0;
#X connect 1 0 2 0;
#X connect 2 0 4 0;
#X connect 3 0 2 1;
#X connect 4 0 17 0;
#X connect 5 0 8 0;
#X connect 6 0 3 0;
#X connect 7 0 1 0;
#X connect 8 0 7 0;
#X connect 9 0 6 0;
#X connect 10 0 11 0;
#X connect 11 0 7 1;
#X connect 12 0 10 0;
#X connect 13 0 14 0;
#X connect 14 0 16 0;
#X connect 15 0 9 0;
#X connect 16 0 15 0;
#X connect 18 0 12 0;
