#N canvas 568 294 679 480 12;
#X text 112 73 Control + E;
#X text 302 73 Switch to/from Edit Mode;
#X text 112 113 Control + .;
#X text 302 113 Turn OFF DSP (audio processing);
#X text 112 153 Control + /;
#X text 302 153 Turn ON DSP (audio processing);
#X text 112 193 Control + R;
#X text 302 193 Bring up console window;
#X text 112 233 Control + '+';
#X text 302 233 Zoom in;
#X text 112 273 Control + '-';
#X text 302 272 Zoom out;
#X text 112 313 Control + 0;
#X text 302 312 Reset zoom;
#X text 112 353 Control + Y;
#X text 302 352 Tidy up (align items);
#X text 112 393 Control + Shift + L;
#X text 302 392 Clean up console (when in the foreground);
