#N canvas 146 186 1595 786 12;
#X obj 790 34 cnv 15 264 76 empty empty empty 20 12 0 14 -261364 -66577
0;
#N canvas 0 22 450 300 (subpatch) 0;
#X array sine 2051 float 0 black #ff2600;
#X coords 0 1 2050 -1 200 140 1;
#X restore 75 463 graph;
#N canvas 0 22 450 300 (subpatch) 0;
#X array sawtooth 2051 float 0 black #ff2600;
#X coords 0 1 2050 -1 200 140 1;
#X restore 495 463 graph;
#N canvas 0 22 450 300 (subpatch) 0;
#X array triangle 2051 float 0 black #ff2600;
#X coords 0 1 2050 -1 200 140 1;
#X restore 285 463 graph;
#N canvas 0 22 450 300 (subpatch) 0;
#X array square 2051 float 0 black #ff2600;
#X coords 0 1 2050 -1 200 140 1;
#X restore 705 463 graph;
#X msg 1096 462 \; sine sinesum 2048 1, f 60;
#X msg 1096 508 \; triangle sinesum 2048 1 0 -0.111111 0 0.04 0 -0.0204082
0 0.0123457 0 -0.00826446 0 \, normalize 1, f 60;
#X msg 1096 570 \; sawtooth sinesum 2048 1 0.5 0.333333 0.25 0.2 0.166667
0.142857 0.125 0.111111 0.1 0.090909 0.0833333 0.076923 \, normalize
1, f 60;
#X msg 1096 648 \; square sinesum 2048 1 0 0.333333 0 0.2 0 0.142857
0 0.111111 0 0.090909 0 0.076923 \, normalize 1;
#X msg 818 64 \; test 45;
#X floatatom 974 72 4 0 0 0 - test -, f 4;
#X text 72 38 Messages have an interesting quirk: if you have a semi-colon
in it \, whatever comes after will be 'broadcast' to the rest of open
Pure Data patches. Now \, in order to send these to specific places
\, using the name of an object (like an array) does the trick. Think
of it as an even more generic 'send' object., f 94;
#X text 72 116 Using this method \, we can alter the contents of an
array. Not only that \, but it provides a few special ways to transform
the data in them. One we're gonna look at right now is the 'sinesum'
message., f 94;
#N canvas 377 285 745 646 playkeys 1;
#X obj 73 214 mtof;
#X floatatom 73 162 5 20 127 0 - - -, f 5;
#X obj 393 210 bng 15 50 50 0 empty empty empty 17 7 0 10 -262144 -1
-1;
#X obj 73 517 *~;
#N canvas 289 115 1061 500 qwerty 0;
#X obj 123 203 list-find;
#X obj 123 141 key;
#X obj 183 110 loadbang;
#X obj 550 59 inlet;
#X text 547 35 octave shift;
#X obj 550 226 * 12;
#X obj 123 271 +;
#X obj 123 314 + 60;
#X obj 123 360 outlet;
#X floatatom 208 314 5 0 0 0 - - -, f 5;
#X floatatom 208 360 5 0 0 0 - - -, f 5;
#X floatatom 208 245 5 0 0 0 - - -, f 5;
#X floatatom 76 188 5 0 0 0 - - -, f 5;
#X msg 183 134 122 115 120 100 99 118 103 98 104 110 106 109 44, f
50;
#X obj 208 389 mtof;
#X floatatom 208 418 5 0 0 0 - - -, f 5;
#X obj 650 110 loadbang;
#X obj 590 203 list-find;
#X obj 592 271 +;
#X floatatom 677 314 5 0 0 0 - - -, f 5;
#X floatatom 677 360 5 0 0 0 - - -, f 5;
#X floatatom 677 245 5 0 0 0 - - -, f 5;
#X obj 677 389 mtof;
#X floatatom 677 418 5 0 0 0 - - -, f 5;
#X obj 592 314 + 72;
#X msg 650 134 113 50 119 51 101 114 53 116 54 121 55 117 105, f 49
;
#X connect 0 0 6 0;
#X connect 0 0 11 0;
#X connect 1 0 0 0;
#X connect 1 0 12 0;
#X connect 1 0 17 0;
#X connect 2 0 13 0;
#X connect 3 0 5 0;
#X connect 5 0 6 1;
#X connect 5 0 18 1;
#X connect 6 0 7 0;
#X connect 6 0 9 0;
#X connect 7 0 8 0;
#X connect 7 0 10 0;
#X connect 10 0 14 0;
#X connect 13 0 0 1;
#X connect 14 0 15 0;
#X connect 16 0 25 0;
#X connect 17 0 18 0;
#X connect 17 0 21 0;
#X connect 18 0 19 0;
#X connect 18 0 24 0;
#X connect 20 0 22 0;
#X connect 22 0 23 0;
#X connect 24 0 20 0;
#X connect 24 0 8 0;
#X connect 25 0 17 1;
#X restore 73 131 pd qwerty;
#X msg 349 446 0.7;
#X floatatom 73 101 5 0 0 0 - - -, f 5;
#X obj 393 476 vline~;
#X obj 73 271 pack 0 12;
#X obj 73 300 vline~;
#X obj 73 410 tabosc4~;
#X obj 393 47 hradio 15 0 1 5 empty empty select\ octave 83 6 0 10
-262144 -1 -1 2;
#X obj 393 69 - 2;
#X obj 133 215 vsl 11 38 1 50 0 1 empty empty empty 0 -9 0 10 -262144
-1 -1 0 1;
#X obj 73 557 outlet~;
#X obj 341 45 inlet;
#X obj 153 364 inlet;
#X msg 393 446 0 12 0 \, 0.5 12 0 \, 0 1300 100;
#X connect 0 0 8 0;
#X connect 1 0 2 0;
#X connect 1 0 0 0;
#X connect 2 0 17 0;
#X connect 3 0 14 0;
#X connect 4 0 1 0;
#X connect 5 0 3 1;
#X connect 6 0 4 0;
#X connect 7 0 3 1;
#X connect 8 0 9 0;
#X connect 9 0 10 0;
#X connect 10 0 3 0;
#X connect 11 0 12 0;
#X connect 12 0 6 0;
#X connect 13 0 8 1;
#X connect 15 0 12 0;
#X connect 16 0 10 0;
#X connect 17 0 7 0;
#X restore 1211 291 pd playkeys;
#X obj 1211 334 dac~;
#X msg 1357 147 set square;
#X msg 1357 180 set sine;
#X msg 1357 246 set triangle;
#X msg 1357 213 set sawtooth;
#X text 72 643 A great starting point to good-sounding oscillators
in PD is to turn these weird-looking messages and what goes with it
into an abstraction \, or a subpatch \, and not have to deal with them
again :), f 94;
#X text 926 42 it gets sent here;
#X obj 929 473 cnv 15 148 122 empty empty empty 20 12 0 14 -261364
-66577 0;
#X text 941 487 clicking these ->;
#X text 943 546 <- alters the contents of these, f 17;
#X text 1208 72 This subpatch lets you use the computer keyboard to
play notes., f 33;
#X text 1343 121 Pick a waveform:;
#X text 801 42 click here...;
#X obj 1357 289 hradio 15 0 1 5 empty empty select\ octave -1 -9 0
10 -262144 -1 -1 2;
#X text 72 178 The maths behind the way sinesum works can be a little
too much to go over right now \, but the short version is \, it adds
a bunch of simple sinusoidal waves into it. We can create \, in theory
\, any kind of wave \, as long as it is a repeating waveform (if it
is periodical) \, with a bunch of sinusoidal waves., f 94;
#X text 72 318 There are other ways to avoid these issues \, but this
particular way has a very interesting side-effect: that's an approximation
to how analog circuits produce waveforms - our ears normally interpret
sounds made by these bandlimited waveforms as 'warm' \, or 'analog-sounding'
\, while the mathematically accurate \, but sharper-looking \, waveforms
are heard as 'cheap' and 'digital-sounding'., f 94;
#X obj 1212 369 cnv 15 235 37 empty empty empty 20 12 0 14 -261364
-66577 0;
#X text 1223 377 (We'll get to subpatches next);
#X text 72 256 The point of this trickery is to produce waveforms that
have a limited amount of harmonics \, so-called 'bandlimited'. If we
reduce harmonics by only using the rounded \, sinusoidal waves \, we
can go higher in pitch before we get aliasing \, or foldover., f 94
;
#X connect 13 0 14 0;
#X connect 13 0 14 1;
#X connect 15 0 13 0;
#X connect 16 0 13 0;
#X connect 17 0 13 0;
#X connect 18 0 13 0;
#X connect 27 0 13 1;
