#N canvas 223 301 1491 582 12;
#X obj 1345 234 cnv 15 73 93 empty empty empty 20 12 0 14 -261768 -66577
0;
#X text 250 45 Shortest of our modules:;
#X text 100 65 Pullling off musical \, pleasant-sounding reverbs is
no trivial task. There are literally decades of research and many many
academic papers on the subject. All this boils down to "someone smarter
already figured this out"., f 70;
#X text 180 155 Therefore \, use the objects already out there.;
#X obj 150 207 rev2~;
#X obj 150 247 rev3~;
#X obj 150 340 reverb;
#X text 281 247 A little more CPU-demanding.;
#X text 281 340 From the rjlib library.;
#X obj 150 300 freeverb~;
#X obj 150 380 mtl/pvoc-reverb~;
#X text 281 300 Uses a battle-tested algorithm.;
#X text 281 207 Perfectly usable reverb!;
#X text 281 380 Rather clean sounding \, CPU-heavy.;
#X text 150 435 I'd say start with rev2~ and then experiment with others.
;
#X text 742 57 While it may sound like I'm discouraging exploring the
internals of reverb design \, I think that playing around with clever
routing and combining of effects is time better spent., f 92;
#X obj 952 127 tgl 15 0 empty empty empty 17 7 0 10 -262144 -1 -1 0
1;
#N canvas 518 379 450 323 generate~ 0;
#X obj 116 294 osc~ 200;
#X obj 116 262 mtof;
#X obj 317 262 mtof;
#X obj 200 175 + 20;
#X obj 200 143 random 70;
#X floatatom 260 81 5 0 0 0 - - -, f 5;
#X obj 116 358 outlet~;
#X obj 317 358 outlet~;
#X obj 60 43 inlet;
#X obj 317 230 mtl/closestNote 0 2 4 7 9;
#X obj 317 326 *~;
#X obj 116 326 *~;
#X obj 317 294 osc~ 100;
#X obj 116 230 mtl/closestNote 0 2 4 7 9;
#X obj 385 43 inlet;
#X obj 200 111 metro 666;
#X connect 0 0 11 0;
#X connect 1 0 0 0;
#X connect 2 0 12 0;
#X connect 3 0 9 0;
#X connect 3 0 13 0;
#X connect 4 0 3 0;
#X connect 5 0 15 1;
#X connect 8 0 10 1;
#X connect 8 0 11 1;
#X connect 8 0 15 0;
#X connect 9 0 2 0;
#X connect 10 0 7 0;
#X connect 11 0 6 0;
#X connect 12 0 10 0;
#X connect 13 0 1 0;
#X connect 14 0 5 0;
#X connect 15 0 4 0;
#X restore 952 195 pd generate~;
#X obj 952 494 dac~;
#X obj 1000 250 rev2~ 80 90 3000 20;
#X obj 1155 251 vsl 13 61 0 1 0 1 empty empty gain 0 -9 1 10 -262144
-1 -1 4300 1;
#X obj 1043 347 *~;
#X obj 1000 347 *~;
#N canvas 822 175 859 742 pitchshifter 0;
#X floatatom 271 106 0 0 0 0 - - -;
#X obj 332 527 *~;
#X obj 517 255 line~;
#X floatatom 517 106 0 0 0 0 - - -;
#X obj 517 225 pack 0 200;
#X obj 271 166 exp;
#X floatatom 271 196 6 0 0 0 - - -, f 6;
#X obj 271 285 /;
#X obj 377 225 * 0.001;
#X obj 666 255 line~;
#X obj 666 225 pack 0 200;
#X floatatom 666 106 0 0 0 0 - - -;
#X obj 332 553 +~;
#X obj 271 577 cos~;
#X obj 271 604 *~;
#X obj 271 648 +~;
#X obj 500 482 wrap~;
#X obj 563 527 *~;
#X obj 563 553 +~;
#X obj 500 577 cos~;
#X obj 500 604 *~;
#X obj 377 255 t b f;
#X floatatom 271 315 6 0 0 0 - - -, f 6;
#X obj 500 455 +~ 0.5;
#X obj 271 527 -~ 0.5;
#X obj 271 553 *~ 0.5;
#X obj 500 527 -~ 0.5;
#X obj 500 553 *~ 0.5;
#X obj 271 225 - 1;
#X obj 271 136 * 0.05776;
#X obj 271 255 * -1;
#X text 322 192 speed;
#X text 321 206 change;
#X obj 271 344 phasor~;
#X obj 666 195 max 1.5;
#X text 728 106 delay;
#X obj 517 136 max 1;
#X obj 40 53 inlet~;
#X obj 271 53 inlet;
#X obj 332 577 vd~ pitchshifter;
#X obj 563 577 vd~ pitchshifter;
#X obj 271 683 outlet~;
#X obj 517 53 inlet;
#X obj 665 53 inlet;
#X text 578 106 window;
#X text 303 106 transposition;
#X obj 40 83 delwrite~ pitchshifter 3000;
#X connect 0 0 29 0;
#X connect 1 0 12 0;
#X connect 2 0 1 1;
#X connect 2 0 17 1;
#X connect 3 0 36 0;
#X connect 4 0 2 0;
#X connect 5 0 6 0;
#X connect 6 0 28 0;
#X connect 7 0 22 0;
#X connect 8 0 21 0;
#X connect 9 0 12 1;
#X connect 9 0 18 1;
#X connect 10 0 9 0;
#X connect 11 0 34 0;
#X connect 12 0 39 0;
#X connect 13 0 14 0;
#X connect 14 0 15 0;
#X connect 15 0 41 0;
#X connect 16 0 17 0;
#X connect 16 0 26 0;
#X connect 17 0 18 0;
#X connect 18 0 40 0;
#X connect 19 0 20 0;
#X connect 20 0 15 1;
#X connect 21 0 7 0;
#X connect 21 1 7 1;
#X connect 22 0 33 0;
#X connect 23 0 16 0;
#X connect 24 0 25 0;
#X connect 25 0 13 0;
#X connect 26 0 27 0;
#X connect 27 0 19 0;
#X connect 28 0 30 0;
#X connect 29 0 5 0;
#X connect 30 0 7 0;
#X connect 33 0 1 0;
#X connect 33 0 24 0;
#X connect 33 0 23 0;
#X connect 34 0 10 0;
#X connect 36 0 8 0;
#X connect 36 0 4 0;
#X connect 37 0 46 0;
#X connect 38 0 0 0;
#X connect 39 0 14 1;
#X connect 40 0 20 1;
#X connect 42 0 3 0;
#X connect 43 0 11 0;
#X restore 1154 414 pd pitchshifter;
#X f 21;
#X obj 1124 381 *~ 0.5;
#X obj 1202 251 vsl 13 61 0 12 0 1 empty empty transpose 0 -9 1 10
-262144 -1 -1 6000 1;
#X obj 1250 251 vsl 13 61 1 200 0 1 empty empty window 0 -9 1 10 -262144
-1 -1 1900 1;
#X obj 1298 251 vsl 13 61 1 200 0 1 empty empty delay 0 -9 1 10 -262144
-1 -1 3900 1;
#X obj 1154 443 *~, f 30;
#X obj 1361 251 vsl 13 61 0 1 0 1 empty empty shimmer 0 -9 1 10 -262144
-1 -1 0 1;
#X obj 1154 472 delwrite~ shimmer 1000;
#X obj 728 255 delread4~ shimmer 1000;
#X floatatom 728 205 5 0 0 0 - - -, f 5;
#X msg 769 205 1;
#X msg 802 205 20;
#X msg 837 205 400;
#X obj 728 171 loadbang;
#X obj 728 443 lop~;
#X obj 753 401 vsl 14 30 0 20000 0 1 empty empty lowpass 0 -9 1 10
-262144 -1 -1 1200 1;
#X obj 952 347 *~;
#X obj 970 308 vsl 17 27 0 1 0 1 empty empty gain 0 -9 1 10 -262144
-1 -1 1300 1;
#X obj 901 124 adc~;
#X obj 810 401 vsl 14 30 0 20000 0 1 empty empty highpass 0 -9 1 10
-262144 -1 -1 1600 1;
#X obj 785 443 hip~;
#X obj 901 223 *~;
#X obj 919 160 tgl 15 0 empty empty empty 17 7 0 10 -258049 -1 -1 0
1;
#X text 1082 139 This is a rather naive implementation of a shimmer
reverb. If you want to test your voice \, click the red toggle - but
make sure you have headphones on first!!!, f 43;
#X connect 16 0 17 0;
#X connect 17 0 19 0;
#X connect 17 0 39 0;
#X connect 19 0 22 0;
#X connect 19 1 21 0;
#X connect 19 2 22 0;
#X connect 19 3 21 0;
#X connect 20 0 22 1;
#X connect 20 0 21 1;
#X connect 21 0 24 0;
#X connect 21 0 18 1;
#X connect 22 0 24 0;
#X connect 22 0 18 0;
#X connect 23 0 28 0;
#X connect 24 0 23 0;
#X connect 25 0 23 1;
#X connect 26 0 23 2;
#X connect 27 0 23 3;
#X connect 28 0 30 0;
#X connect 28 0 18 1;
#X connect 28 0 18 0;
#X connect 29 0 28 1;
#X connect 31 0 37 0;
#X connect 31 0 18 0;
#X connect 31 0 18 1;
#X connect 32 0 31 0;
#X connect 33 0 31 0;
#X connect 34 0 31 0;
#X connect 35 0 31 0;
#X connect 36 0 33 0;
#X connect 37 0 43 0;
#X connect 38 0 37 1;
#X connect 39 0 18 0;
#X connect 39 0 18 1;
#X connect 40 0 39 1;
#X connect 41 0 44 0;
#X connect 42 0 43 1;
#X connect 43 0 24 0;
#X connect 44 0 19 0;
#X connect 44 0 39 0;
#X connect 45 0 44 1;
