#N canvas 101 125 495 667 12;
#X obj 159 528 output~;
#X obj 150 592 delwrite~ delay1 5000;
#X floatatom 105 448 5 0 5000 0 - - -, f 5;
#X obj 105 615 delread~ delay1;
#X obj 150 494 +~, f 6;
#X obj 150 473 *~;
#X obj 190 397 osc~ 500;
#X floatatom 190 373 5 0 0 0 - - -, f 5;
#X obj 190 104 unpack;
#X floatatom 190 136 8 0 0 0 - - -, f 8;
#X floatatom 253 136 7 0 0 0 - - -, f 7;
#X obj 125 73 fiddle~ 1024 1 20 3;
#X obj 125 49 adc~;
#X obj 190 274 mscale;
#X floatatom 190 297 5 0 0 0 - - -, f 5;
#X obj 253 164 threshold~ 70 100 10 100;
#X msg 253 191 1;
#X msg 311 191 0;
#X obj 190 218 spigot;
#X floatatom 190 246 5 0 0 0 - - -, f 5;
#X msg 283 246 0 3 7;
#X floatatom 236 246 5 0 0 0 - - -, f 5;
#X obj 223 343 mtof;
#X obj 190 320 sel 0;
#X msg 190 343 0;
#X obj 190 473 *~;
#X obj 208 421 vsl 12 29 0 1 0 0 empty empty empty 0 -9 0 10 -262144
-1 -1 0 1;
#X obj 168 421 vsl 12 29 0 1 0 0 empty empty empty 0 -9 0 10 -262144
-1 -1 0 1;
#X connect 2 0 3 0;
#X connect 3 0 5 0;
#X connect 4 0 1 0;
#X connect 4 0 0 0;
#X connect 4 0 0 1;
#X connect 5 0 4 0;
#X connect 6 0 25 0;
#X connect 7 0 6 0;
#X connect 8 0 9 0;
#X connect 8 1 10 0;
#X connect 9 0 18 0;
#X connect 10 0 15 0;
#X connect 11 2 8 0;
#X connect 12 0 11 0;
#X connect 13 0 14 0;
#X connect 14 0 23 0;
#X connect 15 0 16 0;
#X connect 15 1 17 0;
#X connect 16 0 18 1;
#X connect 17 0 18 1;
#X connect 18 0 19 0;
#X connect 19 0 13 0;
#X connect 20 0 13 2;
#X connect 21 0 13 1;
#X connect 22 0 7 0;
#X connect 23 0 24 0;
#X connect 23 1 22 0;
#X connect 24 0 7 0;
#X connect 25 0 4 1;
#X connect 26 0 25 1;
#X connect 27 0 5 1;
