#N canvas 1464 315 527 821 12;
#X floatatom 61 659 5 0 5000 0 - - -, f 5;
#X obj 171 634 +~, f 6;
#X floatatom 210 383 5 0 0 0 - - -, f 5;
#X obj 210 84 unpack;
#X floatatom 210 116 8 0 0 0 - - -, f 8;
#X floatatom 273 116 7 0 0 0 - - -, f 7;
#X obj 145 53 fiddle~ 1024 1 20 3;
#X obj 145 29 adc~;
#X obj 210 284 mscale;
#X floatatom 210 307 5 0 0 0 - - -, f 5;
#X msg 273 171 1;
#X msg 331 171 0;
#X obj 210 198 spigot;
#X floatatom 210 256 5 0 0 0 - - -, f 5;
#X msg 386 256 0 3 7;
#X floatatom 256 256 5 0 0 0 - - -, f 5;
#X obj 210 358 mtof;
#X msg 160 353 0;
#X obj 210 603 *~;
#X obj 279 491 vsl 12 29 0 1 0 1 empty empty empty 0 -9 0 10 -262144
-1 -1 0 1;
#X obj 210 440 line;
#X obj 273 144 threshold~ 80 100 10 100;
#X obj 210 332 + 12;
#X msg 256 230 69;
#X obj 386 198 loadbang;
#X obj 160 284 sel 0;
#X obj 171 722 delwrite~ delay1 5000;
#X obj 210 469 osc~;
#X obj 207 677 dac~;
#X obj 171 603 *~;
#X obj 189 551 vsl 12 29 0 1 0 1 empty empty empty 0 -9 0 10 -262144
-1 -1 2800 1;
#X obj 61 718 line~;
#X obj 61 688 pack 0 100;
#X obj 279 466 tgl 15 0 empty empty empty 17 7 0 10 -262144 -1 -1 0
1;
#X obj 223 566 dac~;
#X obj 210 533 *~;
#X obj 228 494 vsl 12 29 0 1 0 1 empty empty empty 0 -9 0 10 -262144
-1 -1 0 1;
#X obj 93 273 dac~;
#X obj 93 245 *~;
#X obj 111 206 vsl 12 29 0 1 0 1 empty empty empty 0 -9 0 10 -262144
-1 -1 2800 1;
#X obj 279 565 line~;
#X obj 279 535 pack 0 100;
#X obj 210 410 pack 0 10;
#X obj 306 363 key;
#X obj 306 392 sel 49;
#X msg 306 421 1;
#X msg 383 421 0;
#X obj 383 363 keyup;
#X obj 383 392 sel 49;
#X obj 164 522 tgl 15 0 empty empty empty 17 7 0 10 -262144 -1 -1 1
1;
#X obj 27 436 key;
#X obj 27 465 sel 50;
#X obj 61 751 delread4~ delay1 1000;
#X connect 0 0 32 0;
#X connect 1 0 26 0;
#X connect 1 0 28 0;
#X connect 1 0 28 1;
#X connect 2 0 42 0;
#X connect 3 0 4 0;
#X connect 3 1 5 0;
#X connect 4 0 12 0;
#X connect 5 0 21 0;
#X connect 6 2 3 0;
#X connect 7 0 6 0;
#X connect 7 0 38 0;
#X connect 8 0 9 0;
#X connect 9 0 22 0;
#X connect 10 0 12 1;
#X connect 11 0 12 1;
#X connect 12 0 13 0;
#X connect 13 0 8 0;
#X connect 13 0 25 0;
#X connect 14 0 8 2;
#X connect 15 0 8 1;
#X connect 16 0 2 0;
#X connect 17 0 2 0;
#X connect 18 0 1 1;
#X connect 19 0 41 0;
#X connect 20 0 27 0;
#X connect 21 0 10 0;
#X connect 21 1 11 0;
#X connect 22 0 16 0;
#X connect 23 0 15 0;
#X connect 24 0 23 0;
#X connect 24 0 14 0;
#X connect 25 0 17 0;
#X connect 27 0 35 0;
#X connect 29 0 1 0;
#X connect 30 0 29 1;
#X connect 31 0 52 0;
#X connect 32 0 31 0;
#X connect 33 0 19 0;
#X connect 35 0 34 0;
#X connect 35 0 34 1;
#X connect 35 0 18 0;
#X connect 36 0 35 1;
#X connect 38 0 37 0;
#X connect 38 0 37 1;
#X connect 38 0 18 0;
#X connect 39 0 38 1;
#X connect 40 0 18 1;
#X connect 41 0 40 0;
#X connect 42 0 20 0;
#X connect 43 0 44 0;
#X connect 44 0 45 0;
#X connect 45 0 33 0;
#X connect 46 0 33 0;
#X connect 47 0 48 0;
#X connect 48 0 46 0;
#X connect 49 0 30 0;
#X connect 50 0 51 0;
#X connect 51 0 49 0;
#X connect 52 0 29 0;
