#N canvas 886 169 547 588 12;
#X floatatom 61 419 5 0 5000 0 - - -, f 5;
#X obj 171 394 +~, f 6;
#X obj 210 39 adc~;
#X obj 210 363 *~;
#X obj 279 251 vsl 12 29 0 1 0 1 empty empty empty 0 -9 0 10 -262144
-1 -1 0 1;
#X obj 171 482 delwrite~ delay1 5000;
#X obj 207 437 dac~;
#X obj 171 363 *~;
#X obj 189 311 vsl 12 29 0 1 0 1 empty empty empty 0 -9 0 10 -262144
-1 -1 2800 1;
#X obj 61 478 line~;
#X obj 61 448 pack 0 100;
#X obj 279 226 tgl 15 0 empty empty empty 17 7 0 10 -262144 -1 -1 0
1;
#X obj 220 313 dac~;
#X obj 210 275 *~;
#X obj 228 236 vsl 12 29 0 1 0 1 empty empty empty 0 -9 0 10 -262144
-1 -1 1000 1;
#X obj 279 325 line~;
#X obj 279 295 pack 0 100;
#X obj 279 123 key;
#X obj 279 152 sel 49;
#X msg 279 181 1;
#X msg 356 181 0;
#X obj 356 123 keyup;
#X obj 356 152 sel 49;
#X obj 164 282 tgl 15 0 empty empty empty 17 7 0 10 -262144 -1 -1 1
1;
#X obj 67 196 key;
#X obj 67 225 sel 50;
#X obj 61 511 delread4~ delay1 1000;
#X obj 29 314 key;
#X obj 86 314 keyup;
#X obj 29 343 sel 96;
#X obj 86 343 sel 96;
#X obj 29 372 timer;
#X text 366 384 ` - define loop length;
#X text 366 404 1 - record gate open;
#X text 366 424 2 - infinite loop on;
#X msg 124 225 1;
#X obj 124 196 loadbang;
#X connect 0 0 10 0;
#X connect 1 0 5 0;
#X connect 1 0 6 0;
#X connect 1 0 6 1;
#X connect 2 0 13 0;
#X connect 3 0 1 1;
#X connect 4 0 16 0;
#X connect 7 0 1 0;
#X connect 8 0 7 1;
#X connect 9 0 26 0;
#X connect 10 0 9 0;
#X connect 11 0 4 0;
#X connect 13 0 12 0;
#X connect 13 0 12 1;
#X connect 13 0 3 0;
#X connect 14 0 13 1;
#X connect 15 0 3 1;
#X connect 16 0 15 0;
#X connect 17 0 18 0;
#X connect 18 0 19 0;
#X connect 19 0 11 0;
#X connect 20 0 11 0;
#X connect 21 0 22 0;
#X connect 22 0 20 0;
#X connect 23 0 8 0;
#X connect 24 0 25 0;
#X connect 25 0 23 0;
#X connect 26 0 7 0;
#X connect 27 0 29 0;
#X connect 28 0 30 0;
#X connect 29 0 31 0;
#X connect 30 0 31 1;
#X connect 31 0 0 0;
#X connect 35 0 23 0;
#X connect 36 0 35 0;
