#N canvas 68 134 1763 912.969 12;
#X obj 18 18 cnv 15 2073 1050 empty empty empty 20 12 0 14 -262075
-66577 0;
#X obj 683 1038 *~;
#X floatatom 1589 391 10 0 0 0 - - -, f 10;
#N canvas 157 150 1067 719 stereoringmod 0;
#X obj 698 108 cnv 15 143 304 empty empty empty 20 12 0 14 -261869
-66577 0;
#X obj 698 339 cnv 15 143 16 empty empty empty 20 12 0 14 -260165 -66577
0;
#X obj 698 120 cnv 15 143 16 empty empty empty 20 12 0 14 -260165 -66577
0;
#X obj 350 340 osc~;
#X obj 719 157 vsl 12 65 0 5000 0 0 empty empty left 0 -9 1 10 -262144
-1 -1 2393 1;
#X obj 332 376 *~;
#X obj 406 510 vsl 15 24 0 1 0 1 empty empty empty 0 -9 0 10 -262144
-1 -1 0 1;
#X obj 479 340 osc~;
#X obj 761 157 vsl 12 65 0 5000 0 0 empty empty right -3 -9 1 10 -262144
-1 -1 2393 1;
#X obj 461 376 *~;
#X msg 375 293 0;
#X obj 717 288 vsl 14 24 0 1 0 1 empty empty phase\ offset 26 -12 1
10 -262144 -1 -1 0 1;
#X obj 332 58 inlet~;
#X obj 461 58 inlet~;
#X obj 332 637 outlet~;
#X obj 461 637 outlet~;
#X obj 82 564 *~;
#X obj 211 564 *~;
#X obj 151 510 vsl 15 24 0 1 0 1 empty empty empty 0 -9 0 10 -262144
-1 -1 2300 1;
#X obj 332 570 *~;
#X obj 461 570 *~;
#X obj 572 58 inlet;
#X obj 701 58 inlet;
#X obj 880 186 +;
#X obj 805 157 vsl 13 38 -2000 2000 0 1 empty empty offset -5 -9 1
10 -262144 -1 -1 1852 1;
#X floatatom 793 236 5 0 0 0 - - -, f 5;
#X obj 709 340 hsl 116 14 0 1 0 1 empty empty mix 51 -9 1 10 -262144
-1 -1 0 1;
#X obj 856 301 * -1;
#X floatatom 901 330 5 0 0 0 - - -, f 5;
#X floatatom 856 333 5 0 0 0 - - -, f 5;
#X obj 856 271 - 1;
#X obj 737 372 vsl 15 24 0 1 0 1 empty empty dry 0 -9 1 10 -262144
-1 -1 2300 1;
#X obj 782 372 vsl 15 24 0 1 0 1 empty empty wet 0 -9 1 10 -262144
-1 -1 0 1;
#X obj 788 295 bng 15 250 50 0 empty empty reset 21 6 1 10 -262144
-1 -1;
#X floatatom 739 293 5 0 0 0 - - -, f 5;
#X floatatom 705 236 5 0 0 0 - - -, f 5;
#X floatatom 747 236 5 0 0 0 - - -, f 5;
#X obj 709 121 hsl 116 14 0 5000 0 1 empty empty freq 50 -9 1 10 -262144
-1 -1 4300 1;
#X msg 858 168 0;
#X obj 804 207 bng 15 250 50 0 empty empty reset -4 19 1 10 -262144
-1 -1;
#X obj 952 147 t b f;
#X connect 3 0 5 1;
#X connect 4 0 3 0;
#X connect 4 0 35 0;
#X connect 5 0 19 0;
#X connect 6 0 19 1;
#X connect 6 0 20 1;
#X connect 7 0 9 1;
#X connect 8 0 23 0;
#X connect 9 0 20 0;
#X connect 10 0 3 1;
#X connect 10 0 11 0;
#X connect 11 0 34 0;
#X connect 11 0 7 1;
#X connect 12 0 5 0;
#X connect 12 0 16 0;
#X connect 13 0 9 0;
#X connect 13 0 17 0;
#X connect 16 0 14 0;
#X connect 17 0 15 0;
#X connect 18 0 16 1;
#X connect 18 0 17 1;
#X connect 19 0 14 0;
#X connect 20 0 15 0;
#X connect 21 0 4 0;
#X connect 22 0 8 0;
#X connect 23 0 36 0;
#X connect 24 0 25 0;
#X connect 24 0 40 0;
#X connect 26 0 28 0;
#X connect 26 0 30 0;
#X connect 27 0 29 0;
#X connect 28 0 32 0;
#X connect 29 0 31 0;
#X connect 30 0 27 0;
#X connect 31 0 18 0;
#X connect 32 0 6 0;
#X connect 33 0 10 0;
#X connect 36 0 7 0;
#X connect 37 0 4 0;
#X connect 37 0 8 0;
#X connect 38 0 24 0;
#X connect 39 0 38 0;
#X connect 39 0 8 0;
#X connect 40 0 8 0;
#X connect 40 1 23 1;
#X coords 0 -1 1 1 149 329 1 695 86;
#X restore 1398 612 pd stereoringmod;
#N canvas 718 184 911 504 synth 0;
#X obj 441 62 cnv 15 249 199 empty empty empty 20 12 0 14 -261869 -66577
0;
#X obj 441 148 cnv 15 249 72 empty empty empty 20 12 0 14 -261980 -66577
0;
#X obj 441 93 cnv 15 249 46 empty empty empty 20 12 0 14 -261344 -66577
0;
#X obj 221 243 phasor~;
#X obj 151 243 phasor~;
#X obj 151 210 +~ 0.1;
#X obj 101 244 osc~;
#X obj 290 242 pwm~;
#X msg 290 208 0.5;
#X obj 290 173 loadbang;
#X obj 101 343 *~;
#X obj 151 342 *~;
#X obj 221 342 *~;
#X obj 290 341 *~;
#X obj 331 341 *~;
#X obj 119 298 vsl 15 24 0 0.7 0 1 empty empty empty 0 -9 0 10 -262144
-1 -1 2300 1;
#X obj 169 298 vsl 15 24 0 0.7 0 1 empty empty empty 0 -9 0 10 -262144
-1 -1 2300 1;
#X floatatom 136 141 5 0 0 0 - - -, f 5;
#X obj 111 170 *~ 2;
#X obj 239 298 vsl 15 24 0 0.7 0 1 empty empty empty 0 -9 0 10 -262144
-1 -1 2300 1;
#X obj 308 298 vsl 15 24 0 0.7 0 1 empty empty empty 0 -9 0 10 -262144
-1 -1 2300 1;
#X obj 349 298 vsl 15 24 0 0.7 0 1 empty empty empty 0 -9 0 10 -262144
-1 -1 0 1;
#X obj 221 210 *~ -1;
#X floatatom 238 179 5 0 0 0 - - -, f 5;
#X obj 320 119 vsl 17 22 0.1 0.9 0 1 empty empty pulse\ width 0 -9
0 8 -262144 -1 -1 750 1;
#X obj 331 242 pink~;
#X obj 188 170 vsl 17 22 0 3 0 1 empty empty detune 0 -9 0 8 -262144
-1 -1 200 1;
#X obj 213 31 inlet;
#X obj 450 106 vsl 15 24 0 0.7 0 1 empty empty sine 0 -9 0 10 -262144
-1 -1 2300 1;
#X obj 500 106 vsl 15 24 0 0.7 0 1 empty empty saw 0 -9 0 10 -262144
-1 -1 2300 1;
#X obj 550 106 vsl 15 24 0 0.7 0 1 empty empty saw 0 -9 0 10 -262144
-1 -1 2300 1;
#X obj 600 106 vsl 15 24 0 0.7 0 1 empty empty square 0 -9 0 10 -262144
-1 -1 2300 1;
#X obj 650 106 vsl 15 24 0 0.7 0 1 empty empty noise 0 -9 0 10 -262144
-1 -1 0 1;
#X obj 600 162 vsl 17 22 0.1 0.9 0 1 empty empty pwm 0 -9 0 8 -262144
-1 -1 750 1;
#X obj 500 162 vsl 17 22 0 3 0 1 empty empty detune 0 -9 0 8 -262144
-1 -1 200 1;
#X obj 550 162 vsl 17 22 1 16 0 1 empty empty mult 0 -9 0 8 -262144
-1 -1 0 1;
#X floatatom 500 198 3 0 0 0 - - -, f 3;
#X floatatom 550 198 3 0 0 0 - - -, f 3;
#X floatatom 600 198 3 0 0 0 - - -, f 3;
#X obj 450 162 vsl 17 22 1 16 0 1 empty empty mult 0 -9 0 8 -262144
-1 -1 0 1;
#X floatatom 450 198 3 0 0 0 - - -, f 3;
#X obj 402 385 *~;
#X obj 650 162 vsl 15 24 0 1 0 1 empty empty gain 0 -9 0 10 -262144
-1 -1 2300 1;
#X obj 707 172 * 100;
#X floatatom 650 198 4 0 0 0 - - -, f 4;
#X obj 402 414 outlet~;
#X floatatom 502 67 5 0 0 0 MIDI - -, f 5;
#X obj 643 14 mtof;
#X obj 715 45 line;
#X obj 505 235 hsl 128 15 0 250 0 1 empty empty portamento -56 6 1
10 -262144 -1 -1 800 1;
#X floatatom 650 233 4 0 0 0 - - -, f 4;
#X obj 715 16 pack 0 0;
#X obj 783 16 pack 0 0;
#X obj 783 45 line~;
#X connect 3 0 12 0;
#X connect 4 0 11 0;
#X connect 5 0 4 0;
#X connect 6 0 10 0;
#X connect 7 0 13 0;
#X connect 8 0 7 0;
#X connect 9 0 8 0;
#X connect 10 0 41 0;
#X connect 11 0 41 0;
#X connect 12 0 41 0;
#X connect 13 0 41 0;
#X connect 14 0 41 0;
#X connect 15 0 10 1;
#X connect 16 0 11 1;
#X connect 17 0 18 1;
#X connect 18 0 6 0;
#X connect 19 0 12 1;
#X connect 20 0 13 1;
#X connect 21 0 14 1;
#X connect 22 0 3 0;
#X connect 23 0 22 1;
#X connect 24 0 7 0;
#X connect 25 0 14 0;
#X connect 26 0 5 1;
#X connect 27 0 46 0;
#X connect 28 0 15 0;
#X connect 29 0 16 0;
#X connect 30 0 19 0;
#X connect 31 0 20 0;
#X connect 32 0 21 0;
#X connect 33 0 38 0;
#X connect 34 0 36 0;
#X connect 35 0 37 0;
#X connect 36 0 26 0;
#X connect 37 0 23 0;
#X connect 38 0 24 0;
#X connect 39 0 40 0;
#X connect 40 0 17 0;
#X connect 41 0 45 0;
#X connect 42 0 43 0;
#X connect 42 0 41 1;
#X connect 43 0 44 0;
#X connect 46 0 47 0;
#X connect 47 0 51 0;
#X connect 47 0 52 0;
#X connect 48 0 7 1;
#X connect 49 0 50 0;
#X connect 50 0 51 1;
#X connect 50 0 52 1;
#X connect 51 0 48 0;
#X connect 52 0 53 0;
#X connect 53 0 18 0;
#X connect 53 0 5 0;
#X connect 53 0 22 0;
#X coords 0 -1 1 1 255 224 1 438 40;
#X restore 392 445 pd synth;
#N canvas 294 148 1277 894 stereodelay 0;
#X obj 791 211 cnv 15 244 319 empty empty empty 20 12 0 14 -261869
-66577 0;
#X obj 791 451 cnv 15 244 40 empty empty empty 20 12 0 14 -261406 -66577
0;
#X obj 943 459 cnv 15 27 26 empty empty empty 20 12 0 14 -259777 -66577
0;
#X obj 791 352 cnv 15 244 86 empty empty empty 20 12 0 14 -261406 -66577
0;
#X obj 791 252 cnv 15 244 86 empty empty empty 20 12 0 14 -261406 -66577
0;
#X obj 636 60 inlet;
#X obj 736 60 inlet;
#X obj 155 60 inlet~;
#X obj 416 60 inlet~;
#X obj 54 820 outlet~;
#X obj 359 820 outlet~;
#X obj 802 267 hsl 168 15 1 1000 0 1 empty empty time\ L -2 -8 1 10
-262144 -1 -1 10431 1;
#X obj 802 467 hsl 70 15 0 1 0 1 empty empty echo\ volume 0 -9 1 10
-262144 -1 -1 5100 1;
#X obj 900 227 hsl 70 15 0 1 0 1 empty empty panning -2 -8 1 10 -262144
-1 -1 3450 1;
#X obj 204 597 *~ 0.5;
#X obj 462 597 *~ 0.5;
#X obj 54 687 *~;
#X obj 359 687 *~;
#X obj 155 768 delwrite~ \$0-delayL 1000;
#X obj 416 768 delwrite~ \$0-delayR 1000;
#X floatatom 204 143 5 0 0 0 - - -, f 5;
#X obj 204 171 pack 0 30;
#X obj 204 200 line~;
#X obj 802 367 hsl 168 15 1 1000 0 1 empty empty time\ R -2 -8 1 10
-262144 -1 -1 10431 1;
#X floatatom 462 143 5 0 0 0 - - -, f 5;
#X obj 462 171 pack 0 30;
#X obj 462 200 line~;
#X obj 802 227 hsl 70 15 1 1000 0 1 empty empty time\ L+R -2 -8 1 10
-262144 -1 -1 1750 1;
#X obj 204 241 delread4~ \$0-delayR;
#X obj 462 241 delread4~ \$0-delayL;
#X obj 364 531 - 1;
#X obj 364 555 abs;
#X msg 1044 247 0.5;
#X obj 890 465 hsl 70 15 0 0.6 0 1 empty empty feedback 1 -8 1 10 -262144
-1 -1 2500 1;
#X obj 317 647 *~;
#X obj 582 647 *~;
#X floatatom 989 463 5 0 0 0 - - -, f 5;
#X obj 982 227 bng 15 250 50 0 empty empty center 17 7 1 10 -262144
-1 -1;
#X obj 807 310 hradio 20 0 1 8 empty empty empty 0 -8 0 10 -262144
-1 -1 0;
#X text 811 288 1;
#X text 831 288 2;
#X text 851 288 3;
#X text 871 288 4;
#X text 891 288 5;
#X text 911 288 6;
#X text 931 288 7;
#X text 951 288 8;
#X floatatom 983 265 5 0 0 0 - - -, f 5;
#X obj 1131 325 /;
#X obj 1117 235 + 1;
#X floatatom 1117 264 5 0 0 0 - - -, f 5;
#X obj 1117 292 t b f;
#X floatatom 983 310 5 0 0 0 - - -, f 5;
#X floatatom 983 365 5 0 0 0 - - -, f 5;
#X obj 1131 465 /;
#X obj 1117 375 + 1;
#X floatatom 1117 404 5 0 0 0 - - -, f 5;
#X obj 1117 432 t b f;
#X obj 807 410 hradio 20 0 1 8 empty empty empty 0 -8 0 10 -262144
-1 -1 1;
#X text 811 388 1;
#X text 831 388 2;
#X text 851 388 3;
#X text 871 388 4;
#X text 891 388 5;
#X text 911 388 6;
#X text 931 388 7;
#X text 951 388 8;
#X floatatom 983 410 5 0 0 0 - - -, f 5;
#X obj 204 382 lop~;
#X obj 232 325 hsl 79 20 200 20000 1 1 empty empty lowpass\ frequency
-2 -8 0 10 -262144 -1 -1 7800 1;
#X floatatom 232 354 5 0 0 0 - - -, f 5;
#X obj 232 414 hsl 79 20 200 20000 1 1 empty empty hipass\ frequency
-2 -8 0 10 -262144 -1 -1 2863 1;
#X floatatom 232 443 5 0 0 0 - - -, f 5;
#X obj 204 471 hip~;
#X obj 462 382 lop~;
#X obj 489 325 hsl 79 20 200 20000 1 1 empty empty lowpass\ frequency
-2 -8 0 10 -262144 -1 -1 7800 1;
#X floatatom 489 354 5 0 0 0 - - -, f 5;
#X obj 489 417 hsl 79 20 200 20000 1 1 empty empty hipass\ frequency
-2 -8 0 10 -262144 -1 -1 2863 1;
#X floatatom 489 446 5 0 0 0 - - -, f 5;
#X obj 462 471 hip~;
#X obj 805 510 hsl 95 12 200 20000 1 1 empty empty lowpass\ frequency
1 -8 1 10 -262144 -1 -1 9400 1;
#X obj 921 510 hsl 95 12 200 20000 1 1 empty empty hipass\ frequency
1 -8 1 10 -262144 -1 -1 3450 1;
#X connect 5 0 11 0;
#X connect 6 0 23 0;
#X connect 7 0 18 0;
#X connect 8 0 19 0;
#X connect 11 0 47 0;
#X connect 12 0 16 1;
#X connect 12 0 17 1;
#X connect 13 0 15 1;
#X connect 13 0 30 0;
#X connect 14 0 16 0;
#X connect 14 0 18 0;
#X connect 15 0 17 0;
#X connect 15 0 19 0;
#X connect 16 0 9 0;
#X connect 17 0 10 0;
#X connect 20 0 21 0;
#X connect 21 0 22 0;
#X connect 22 0 28 0;
#X connect 23 0 53 0;
#X connect 24 0 25 0;
#X connect 25 0 26 0;
#X connect 26 0 29 0;
#X connect 27 0 23 0;
#X connect 27 0 11 0;
#X connect 28 0 34 0;
#X connect 28 0 68 0;
#X connect 29 0 35 0;
#X connect 29 0 74 0;
#X connect 30 0 31 0;
#X connect 31 0 14 1;
#X connect 32 0 13 0;
#X connect 33 0 36 0;
#X connect 34 0 18 0;
#X connect 35 0 19 0;
#X connect 36 0 34 1;
#X connect 36 0 35 1;
#X connect 37 0 32 0;
#X connect 38 0 49 0;
#X connect 47 0 48 0;
#X connect 48 0 52 0;
#X connect 49 0 50 0;
#X connect 50 0 51 0;
#X connect 51 0 11 0;
#X connect 51 1 48 1;
#X connect 52 0 20 0;
#X connect 53 0 54 0;
#X connect 54 0 67 0;
#X connect 55 0 56 0;
#X connect 56 0 57 0;
#X connect 57 0 23 0;
#X connect 57 1 54 1;
#X connect 58 0 55 0;
#X connect 67 0 24 0;
#X connect 68 0 73 0;
#X connect 69 0 70 0;
#X connect 70 0 68 1;
#X connect 71 0 72 0;
#X connect 72 0 73 1;
#X connect 73 0 14 0;
#X connect 74 0 79 0;
#X connect 75 0 76 0;
#X connect 76 0 74 1;
#X connect 77 0 78 0;
#X connect 78 0 79 1;
#X connect 79 0 15 0;
#X connect 80 0 75 0;
#X connect 80 0 69 0;
#X connect 81 0 77 0;
#X connect 81 0 71 0;
#X coords 0 -1 1 1 250 344 1 788 189;
#X restore 1118 639 pd stereodelay;
#N canvas 770 296 525 513 filter 0;
#X obj 269 103 cnv 15 132 79 empty empty empty 20 12 0 14 -261869 -66577
0;
#X obj 269 103 cnv 15 132 40 empty empty empty 20 12 0 14 -261015 -66577
0;
#X obj 92 336 bob~;
#X obj 120 279 / 25;
#X obj 120 307 line~;
#X obj 92 59 inlet~;
#X obj 92 375 outlet~;
#X obj 276 156 hsl 29 20 0 100 0 1 empty empty q 0 -8 1 10 -262144
-1 -1 941 1;
#X floatatom 314 157 5 0 0 0 - - -, f 5;
#X obj 276 116 hsl 66 20 60 6000 1 1 empty empty frequency -2 -8 1
10 -262144 -1 -1 2550 1;
#X floatatom 356 117 5 0 0 0 - - -, f 5;
#X obj 106 194 pack 0 50;
#X obj 106 219 line~;
#X obj 176 59 inlet;
#X obj 413 59 inlet;
#X obj 363 157 hsl 29 20 6 200 0 1 empty empty porta 7 -7 1 8 -262144
-1 -1 0 1;
#X connect 2 0 6 0;
#X connect 3 0 4 0;
#X connect 4 0 2 2;
#X connect 5 0 2 0;
#X connect 7 0 8 0;
#X connect 8 0 3 0;
#X connect 9 0 10 0;
#X connect 10 0 11 0;
#X connect 11 0 12 0;
#X connect 12 0 2 1;
#X connect 13 0 9 0;
#X connect 14 0 7 0;
#X connect 15 0 11 1;
#X coords 0 -1 1 1 138 104 1 266 81;
#X restore 424 924 pd filter;
#N canvas 735 426 501 390 lfo 0;
#X obj 241 104 cnv 15 129 117 empty empty empty 20 12 0 14 -261869
-66577 0;
#X obj 322 109 cnv 15 45 110 empty empty empty 20 12 0 14 -261067 -66577
0;
#X obj 74 228 *~ 800;
#X obj 74 141 osc~ 0.08;
#X obj 74 257 +~ 1000;
#X obj 246 116 hsl 66 20 0 2 0 1 empty empty lfo\ freq -2 -8 1 10 -262144
-1 -1 350 1;
#X obj 74 168 *~ 0.5;
#X obj 74 195 +~ 0.5;
#X obj 246 156 hsl 66 20 0 6000 0 1 empty empty range -2 -8 1 10 -262144
-1 -1 1400 1;
#X floatatom 326 116 5 0 0 0 - - -, f 5;
#X floatatom 326 157 5 0 0 0 - - -, f 5;
#X obj 246 196 hsl 66 20 0 6000 0 1 empty empty shift -2 -8 1 10 -262144
-1 -1 150 1;
#X floatatom 326 197 5 0 0 0 - - -, f 5;
#X obj 74 51 inlet;
#X obj 144 51 inlet;
#X obj 214 51 inlet;
#X obj 74 316 outlet~;
#X obj 164 316 outlet;
#X obj 164 286 snapshot~;
#X obj 276 271 loadbang;
#X obj 275 315 metro 20;
#X obj 348 289 tgl 15 0 empty empty empty 17 7 0 10 -262144 -1 -1 0
1;
#X connect 2 0 4 0;
#X connect 3 0 6 0;
#X connect 4 0 16 0;
#X connect 4 0 18 0;
#X connect 5 0 3 0;
#X connect 5 0 9 0;
#X connect 6 0 7 0;
#X connect 7 0 2 0;
#X connect 8 0 10 0;
#X connect 10 0 2 1;
#X connect 11 0 12 0;
#X connect 12 0 4 1;
#X connect 13 0 5 0;
#X connect 14 0 8 0;
#X connect 15 0 11 0;
#X connect 18 0 17 0;
#X connect 19 0 20 0;
#X connect 20 0 18 0;
#X connect 21 0 20 0;
#X coords 0 -1 1 1 135 142 1 238 82;
#X restore 397 696 pd lfo;
#N canvas 630 306 817 571 sampler 0;
#X obj 458 107 cnv 15 211 151 empty empty empty 20 12 0 14 -261869
-66577 0;
#X obj 90 480 outlet;
#X obj 621 114 bng 15 250 50 0 empty empty load\ sample -58 6 1 10
-262144 -1 -1;
#N canvas 0 22 450 300 (subpatch) 0;
#X array sample 16385 float 2 black #ff7300;
#X coords 0 1 16385 -1 172 35 1;
#X restore 464 183 graph;
#X obj 243 221 soundfiler;
#X obj 313 135 openpanel;
#X obj 296 62 loadbang;
#X obj 243 173 pack s s;
#X msg 243 197 read -resize \$1 \$2;
#X floatatom 243 254 11 0 0 0 - - -, f 11;
#X floatatom 243 361 10 0 0 0 - - -, f 10;
#X obj 243 282 / 44.1;
#X obj 243 422 /;
#X obj 464 148 hradio 15 0 1 8 empty empty length\ divider 0 -8 1 10
-262144 -247361 -1 3;
#X obj 374 247 + 1;
#X floatatom 374 273 5 0 0 0 - - -, f 5;
#X obj 311 335 bng 15 250 50 0 empty empty empty 17 7 0 10 -259969
-261825 -1;
#X obj 90 107 soundfiler;
#X obj 374 298 t b f;
#X text 140 335 Duration in ms;
#X obj 90 58 inlet filename;
#X text 588 144 1 to 8;
#X obj 594 227 tgl 15 1 empty empty loop 18 6 1 10 -262144 -1 -1 0
1;
#X obj 555 301 spigot;
#X obj 464 227 bng 15 250 50 0 empty empty play 18 6 1 10 -262144 -1
-1;
#X msg 495 301 stop;
#X obj 465 393 *~;
#X obj 644 326 vsl 15 24 0 0.7 0 1 empty empty empty 0 -9 0 10 -262144
-1 -1 640 1;
#X obj 644 114 vsl 19 134 0 0.7 0 1 empty empty empty 0 -9 0 10 -261347
-1 -1 3700 1;
#X obj 465 332 tabplay~ sample;
#X obj 529 227 bng 15 250 50 0 empty empty stop 18 6 1 10 -262144 -1
-1;
#X obj 586 58 inlet;
#X obj 636 58 inlet;
#X obj 686 58 inlet;
#X obj 736 58 inlet;
#X obj 465 480 outlet~;
#X obj 296 96 symbol sample;
#X connect 2 0 5 0;
#X connect 4 0 9 0;
#X connect 5 0 7 0;
#X connect 6 0 36 0;
#X connect 7 0 8 0;
#X connect 8 0 4 0;
#X connect 9 0 11 0;
#X connect 10 0 12 0;
#X connect 11 0 10 0;
#X connect 12 0 1 0;
#X connect 13 0 14 0;
#X connect 14 0 15 0;
#X connect 15 0 18 0;
#X connect 16 0 10 0;
#X connect 17 0 9 0;
#X connect 18 0 16 0;
#X connect 18 1 12 1;
#X connect 20 0 17 0;
#X connect 22 0 23 1;
#X connect 23 0 29 0;
#X connect 24 0 29 0;
#X connect 25 0 29 0;
#X connect 26 0 35 0;
#X connect 27 0 26 1;
#X connect 28 0 27 0;
#X connect 29 0 26 0;
#X connect 29 1 23 0;
#X connect 30 0 25 0;
#X connect 31 0 24 0;
#X connect 32 0 30 0;
#X connect 33 0 22 0;
#X connect 34 0 28 0;
#X connect 36 0 7 1;
#X coords 0 -1 1 1 217 176 1 455 85;
#X restore 1589 184 pd sampler;
#X obj 1600 31 loadbang;
#X obj 1676 455 throw~ sumL;
#X obj 1763 455 throw~ sumR;
#N canvas 289 141 947 675 sequencer 0;
#X obj 206 167 cnv 15 519 242 empty empty empty 20 12 0 14 -261869
-66577 0;
#X obj 206 175 cnv 15 519 21 empty empty empty 20 12 0 14 -261340 -66577
0;
#X obj 484 175 cnv 15 21 21 empty empty empty 20 12 0 14 -260481 -66577
0;
#N canvas 0 0 450 300 (subpatch) 0;
#X array notes 64 float 23 #ff9a00 #836302;
#A 0 25.2633 31.3157 37.8946 41.842 48.9472 42.3685 37.1054 31.579
24.2106 28.6841 33.9473 39.2104 42.3684 37.1054 32.1054 27.6317 22.3685
26.0526 27.3684 31.3157 33.9473 38.1578 30.2633 27.1053 25.2632 28.1578
32.1052 36.0526 41.842 46.0526 35.5265 30.0001 20 20 20 20 20 20 20
20 20 20 20 20 20 20 20 20 20 20 20 20 25.7894 25.7894 25.7894 28.9474
28.9474 28.9474 28.9474 42.6314 42.6314 42.6314 46.3157 49.7367;
#X coords 0 50 64 20 512 114 1;
#X restore 210 240 graph;
#X obj 210 358 hradio 8 0 0 64 empty empty empty 0 -8 0 10 -262144
-1 -1 0;
#X obj 52 39 inlet;
#X obj 52 383 tabread notes;
#X obj 52 116 tgl 15 0 empty empty run 17 7 1 10 -262144 -1 -1 0 1
;
#X obj 52 286 f;
#X obj 109 312 + 1;
#X floatatom 52 345 5 0 0 0 - - -, f 5;
#X obj 52 231 metro;
#X floatatom 52 412 5 0 0 0 - - -, f 5;
#X obj 66 457 int;
#X obj 128 200 bng 15 250 50 0 empty empty empty 17 7 0 10 -262144
-1 -1;
#X floatatom 460 381 5 1 64 0 - - -, f 5;
#X obj 180 39 inlet;
#X text 489 175 1;
#X text 509 175 2;
#X text 529 175 3;
#X text 549 175 4;
#X text 569 175 5;
#X text 589 175 6;
#X text 609 175 7;
#X text 629 175 8;
#X floatatom 767 380 5 0 0 0 - - -, f 5;
#X obj 862 413 /;
#X floatatom 862 242 5 0 0 0 - - -, f 5;
#X obj 862 350 t b f;
#X floatatom 862 443 5 0 0 0 - - -, f 5;
#X obj 345 204 hradio 20 0 1 15 empty empty divider/multiplier 117
26 1 10 -262144 -1 -1 7;
#X text 409 175 5;
#X text 469 175 2;
#X text 449 175 3;
#X text 429 175 4;
#X text 389 175 6;
#X text 369 175 7;
#X text 349 175 8;
#X obj 862 213 - 6;
#X floatatom 767 158 5 0 0 0 - - -, f 5;
#X floatatom 862 158 5 0 0 0 - - -, f 5;
#X obj 767 129 moses 7, f 14;
#X floatatom 767 242 5 0 0 0 - - -, f 5;
#X obj 767 350 t b f;
#X floatatom 767 443 5 0 0 0 - - -, f 5;
#X obj 260 39 inlet;
#X obj 872 186 bng 15 250 50 0 empty empty empty 17 7 0 10 -262144
-1 -1;
#X obj 777 186 bng 15 250 50 0 empty empty empty 17 7 0 10 -262144
-1 -1;
#X obj 767 213 - 8;
#X obj 767 270 abs;
#X floatatom 767 299 5 0 0 0 - - -, f 5;
#X floatatom 818 485 5 0 0 0 - - -, f 5;
#X floatatom 210 204 5 0 0 0 - - -, f 5;
#X text 250 204 ms coming in;
#X floatatom 685 205 5 0 0 0 - - -, f 5;
#X text 659 203 =;
#X text 500 381 length;
#X obj 260 64 loadbang;
#X msg 260 89 64;
#X obj 109 336 mod;
#X obj 52 490 mux;
#X obj 362 384 tgl 15 1 empty empty empty 25 6 1 10 -262144 -1 -1 1
1;
#X floatatom 210 381 5 0 0 0 - - -, f 5;
#X obj 52 567 outlet;
#X text 250 381 current value;
#X obj 212 567 outlet;
#X obj 132 567 outlet;
#X floatatom 862 380 5 0 0 0 - - -, f 5;
#X obj 695 378 tgl 23 0 empty empty run -24 10 1 10 -260436 -1 -1 0
1;
#X obj 767 413 *;
#X obj 292 567 outlet;
#X floatatom 570 381 5 0 64 0 - - -, f 5;
#X text 610 381 offset;
#X obj 345 123 bng 15 250 50 0 empty empty empty 17 7 0 10 -262144
-1 -1;
#X msg 70 192 0;
#X obj 70 164 sel 0;
#X obj 52 315 +;
#X text 380 381 integers;
#X connect 5 0 7 0;
#X connect 6 0 12 0;
#X connect 7 0 75 0;
#X connect 7 0 68 0;
#X connect 8 0 9 0;
#X connect 8 0 76 0;
#X connect 9 0 59 0;
#X connect 10 0 6 0;
#X connect 10 0 4 0;
#X connect 11 0 8 0;
#X connect 12 0 13 0;
#X connect 12 0 60 0;
#X connect 13 0 60 1;
#X connect 14 0 66 0;
#X connect 15 0 59 1;
#X connect 16 0 52 0;
#X connect 16 0 73 0;
#X connect 25 0 69 0;
#X connect 26 0 29 0;
#X connect 27 0 28 0;
#X connect 28 0 67 0;
#X connect 28 1 26 1;
#X connect 29 0 51 0;
#X connect 30 0 41 0;
#X connect 38 0 27 0;
#X connect 39 0 47 0;
#X connect 39 0 48 0;
#X connect 40 0 38 0;
#X connect 40 0 46 0;
#X connect 41 0 39 0;
#X connect 41 1 40 0;
#X connect 42 0 49 0;
#X connect 43 0 25 0;
#X connect 43 1 69 1;
#X connect 44 0 51 0;
#X connect 45 0 15 0;
#X connect 48 0 42 0;
#X connect 49 0 50 0;
#X connect 50 0 43 0;
#X connect 51 0 54 0;
#X connect 52 0 25 0;
#X connect 52 0 67 0;
#X connect 54 0 11 1;
#X connect 57 0 58 0;
#X connect 58 0 15 0;
#X connect 59 0 8 1;
#X connect 60 0 62 0;
#X connect 61 0 60 2;
#X connect 62 0 63 0;
#X connect 67 0 26 0;
#X connect 68 0 70 0;
#X connect 68 0 11 0;
#X connect 68 0 75 0;
#X connect 69 0 44 0;
#X connect 71 0 76 1;
#X connect 73 0 30 0;
#X connect 74 0 8 1;
#X connect 74 0 65 0;
#X connect 75 0 74 0;
#X connect 75 1 14 0;
#X connect 76 0 10 0;
#X coords 0 -1 1 1 525 267 1 203 145;
#X restore 245 102 pd sequencer;
#X obj 1614 366 bng 15 250 50 0 empty empty empty 17 7 0 10 -262144
-1 -1;
#X floatatom 763 77 5 1 64 0 - - -, f 5;
#X obj 245 77 tgl 15 0 empty empty empty 17 7 0 10 -262144 -1 -1 0
1;
#X obj 504 51 r ms;
#X obj 1791 155 r stop;
#N canvas 344 163 402 498 out 0;
#X obj 202 127 cnv 15 115 249 empty empty empty 20 12 0 14 -261869
-66577 0;
#X obj 50 352 dac~, f 13;
#X obj 91 143 pvu~;
#X obj 255 139 vu 24 200 empty empty -1 -8 0 10 -1 -1 1 0;
#X msg 275 387 0;
#X obj 50 55 catch~ sumL;
#X obj 138 55 catch~ sumR;
#X obj 138 94 *~;
#X obj 50 94 *~;
#X obj 255 345 bng 26 250 50 0 empty empty empty 17 7 0 10 -260999
-258049 -1;
#X obj 221 139 vsl 24 199 0 1 0 1 empty empty empty 0 -9 0 10 -260225
-1 -1 14000 1;
#X obj 57 273 utils/smux;
#X obj 65 203 abs/comp;
#X obj 132 203 abs/comp;
#X connect 2 0 3 0;
#X connect 2 1 3 1;
#X connect 4 0 3 1;
#X connect 5 0 8 0;
#X connect 6 0 7 0;
#X connect 7 0 2 0;
#X connect 7 0 11 1;
#X connect 7 0 13 0;
#X connect 8 0 2 0;
#X connect 8 0 11 0;
#X connect 8 0 12 0;
#X connect 9 0 4 0;
#X connect 10 0 7 1;
#X connect 10 0 8 1;
#X connect 11 0 1 0;
#X connect 11 1 1 1;
#X connect 12 0 11 2;
#X connect 13 0 11 3;
#X coords 0 -1 1 1 119 274 1 200 104;
#X restore 1950 771 pd out;
#N canvas 605 335 624 345 envelope 0;
#X obj 178 122 cnv 15 204 79 empty empty empty 20 12 0 14 -261869 -66577
0;
#X obj 260 130 cnv 15 116 67 empty empty empty 20 12 0 14 -261390 -66577
0;
#X obj 260 141 cnv 15 116 40 empty empty empty 20 12 0 14 -260494 -66577
0;
#X floatatom 78 217 4 0 0 0 - - -, f 4;
#X obj 271 149 vsl 18 40 1.5 200 0 1 empty empty A 5 -9 1 10 -262144
-1 -1 150 1;
#X obj 296 149 vsl 18 40 1 1000 0 1 empty empty D 5 -9 1 10 -262144
-1 -1 1709 1;
#X obj 321 149 vsl 18 40 0 100 0 1 empty empty S 5 -9 1 10 -262144
-1 -1 0 1;
#X obj 346 149 vsl 18 40 0 5000 0 1 empty empty R 5 -9 1 10 -262144
-1 -1 2600 1;
#X obj 45 16 inlet control;
#X obj 495 16 inlet release;
#X obj 399 16 inlet sustain;
#X obj 315 16 inlet decay;
#X obj 225 16 inlet attack;
#X obj 141 16 inlet level;
#X obj 186 131 bng 18 50 20 0 empty empty empty 17 7 0 10 -262144 -260356
-1;
#X obj 227 133 vsl 16 33 0 1 0 1 empty empty L -8 18 1 10 -262144 -1
-1 1692 1;
#X obj 45 274 outlet~;
#X msg 45 179 1;
#X obj 308 249 * 100;
#X floatatom 208 177 5 0 100 0 - - -, f 5;
#X obj 259 249 / 100;
#X obj 45 249 abs/adsr 70 10 90 50 500;
#X connect 3 0 21 1;
#X connect 4 0 21 2;
#X connect 5 0 21 3;
#X connect 6 0 21 4;
#X connect 7 0 21 5;
#X connect 8 0 14 0;
#X connect 8 0 17 0;
#X connect 9 0 7 0;
#X connect 10 0 6 0;
#X connect 11 0 5 0;
#X connect 12 0 4 0;
#X connect 13 0 15 0;
#X connect 14 0 17 0;
#X connect 15 0 3 0;
#X connect 15 0 18 0;
#X connect 17 0 21 0;
#X connect 18 0 19 0;
#X connect 19 0 20 0;
#X connect 20 0 3 0;
#X connect 21 0 16 0;
#X coords 0 -1 1 1 210 104 1 175 100;
#X restore 701 445 pd envelope;
#X obj 906 1044 throw~ synthoutL;
#X obj 1026 1044 throw~ synthoutR;
#X obj 1398 535 catch~ synthoutL;
#X obj 1413 561 catch~ synthoutR;
#X obj 245 377 s note;
#N canvas 481 268 762 548 notescaler 0;
#X obj 137 125 cnv 15 179 67 empty empty empty 20 12 0 14 -261869 -66577
0;
#X obj 119 447 mtof;
#X msg 402 248 0 2 4 5 7 9 11;
#X msg 402 269 0 2 3 5 7 8 10;
#X msg 402 290 0 4 7;
#X msg 402 311 0 3 7;
#X text 529 248 Major scale;
#X text 529 269 Minor scale;
#X text 529 290 Major triad;
#X text 529 311 Minor triad;
#X msg 402 332 0 2 4 7 9;
#X text 529 332 Major pentatonic scale;
#X msg 402 353 0 3 5 7 10;
#X text 529 353 Minor pentatonic scale;
#X dropdown 144 170 21 0 0 0 - - -, f 21;
#X obj 402 205 sel 0 1 2 3 4 5;
#X obj 119 481 outlet;
#X obj 58 481 outlet;
#X obj 58 49 inlet;
#X obj 147 129 utils/showkey;
#X obj 286 109 cnv 6 26 10 empty empty empty 20 12 0 14 -259265 -66577
0;
#X obj 259 109 cnv 6 26 10 empty empty empty 20 12 0 14 -260225 -66577
0;
#X obj 232 109 cnv 6 26 10 empty empty empty 20 12 0 14 -261441 -66577
0;
#X msg 402 77 names Major Minor Major.Triad Minor.Triad Major.Pentatonic
Minor.Pentatonic, f 21;
#X obj 371 43 loadbang;
#X obj 343 103 bng 15 250 50 0 empty empty empty 17 7 0 10 -262144
-1 -1;
#X obj 108 49 inlet;
#X obj 158 49 inlet;
#X obj 108 79 hsl 128 15 0 5 0 1 empty empty empty -2 -8 0 10 -262144
-1 -1 12700 1;
#X obj 58 382 abs/mscale;
#X connect 1 0 16 0;
#X connect 2 0 29 2;
#X connect 3 0 29 2;
#X connect 4 0 29 2;
#X connect 5 0 29 2;
#X connect 10 0 29 2;
#X connect 12 0 29 2;
#X connect 14 0 15 0;
#X connect 15 0 2 0;
#X connect 15 1 3 0;
#X connect 15 2 4 0;
#X connect 15 3 5 0;
#X connect 15 4 10 0;
#X connect 15 5 12 0;
#X connect 18 0 29 0;
#X connect 19 0 29 1;
#X connect 23 0 14 0;
#X connect 24 0 23 0;
#X connect 24 0 14 0;
#X connect 24 0 25 0;
#X connect 25 0 19 1;
#X connect 26 0 28 0;
#X connect 27 0 19 0;
#X connect 28 0 14 0;
#X connect 29 0 1 0;
#X connect 29 0 17 0;
#X coords 0 -1 1 1 185 92 1 134 103;
#X restore 36 775 pd notescaler;
#X obj 36 635 r note;
#X floatatom 214 992 5 0 0 0 - - -, f 5;
#X obj 36 1018 s scalednote;
#X obj 158 1018 s scaledfreq;
#X obj 1533 512 r scaledfreq;
#X floatatom 125 744 5 0 0 0 - - -, f 5;
#X floatatom 214 744 5 0 0 0 - - -, f 5;
#X obj 553 806 r scaledfreq;
#X obj 630 886 *;
#X obj 1739 94 r stop;
#X obj 1606 98 bng 15 50 20 0 empty empty empty 17 7 0 10 -262144 -1
-1;
#X obj 1603 898 throw~ sumL;
#X obj 1610 871 throw~ sumR;
#X obj 1590 647 catch~ synthbusL;
#X obj 1597 671 catch~ synthbusR;
#X obj 1398 1013 throw~ synthbusL;
#X obj 1540 1013 throw~ synthbusR;
#X obj 1763 386 throw~ sc;
#X obj 1654 695 catch~ sc;
#N canvas 663 412 479 519 sidechain 0;
#X obj 283 365 cnv 15 115 107 empty empty empty 20 12 0 14 -261869
-66577 0;
#X obj 148 85 env~;
#X obj 148 153 * -1;
#X obj 148 130 / 100;
#X obj 148 245 pack 0 10;
#X obj 148 268 line~;
#X obj 148 199 *;
#X obj 372 380 vsl 17 62 0 2 0 1 empty empty gain -1 -9 1 10 -262144
-1 -1 6100 1;
#X obj 100 335 *~;
#X obj 224 335 *~;
#X floatatom 148 108 5 0 0 0 - - -, f 5;
#X obj 148 176 + 1;
#X obj 292 380 vsl 17 62 -1 0 0 1 empty empty squash -6 -9 1 10 -262144
-1 -1 0 1;
#N canvas 735 459 638 326 sigmux 0;
#X obj 190 145 mux~;
#X obj 380 145 mux~;
#X obj 190 67 inlet~ A-L;
#X obj 390 67 inlet~ B-L;
#X obj 290 67 inlet~ A-R;
#X obj 490 67 inlet~ B-R;
#X obj 190 236 outlet~ L;
#X obj 380 236 outlet~ R;
#X obj 106 101 tgl 28 1 empty empty on/off 2 -8 1 10 -259777 -1 -1
1 1;
#X connect 0 0 6 0;
#X connect 1 0 7 0;
#X connect 2 0 0 0;
#X connect 3 0 0 1;
#X connect 4 0 1 0;
#X connect 5 0 1 1;
#X connect 8 0 0 0;
#X connect 8 0 1 0;
#X coords 0 -1 1 1 53 56 2 94 85;
#X restore 314 385 pd sigmux;
#X obj 292 461 hsl 92 8 0 1 0 0 empty empty bounce\ viewer 17 -7 1
10 -262144 -1 -1 0 1;
#X obj 100 27 inlet~;
#X obj 222 27 inlet~;
#X obj 282 27 inlet~;
#X obj 100 477 outlet~;
#X obj 222 477 outlet~;
#X obj 148 222 clip -1 1;
#X connect 1 0 10 0;
#X connect 2 0 11 0;
#X connect 3 0 2 0;
#X connect 4 0 5 0;
#X connect 4 0 14 0;
#X connect 5 0 8 1;
#X connect 5 0 9 1;
#X connect 6 0 20 0;
#X connect 7 0 6 1;
#X connect 8 0 13 2;
#X connect 9 0 13 3;
#X connect 10 0 3 0;
#X connect 11 0 6 0;
#X connect 12 0 2 1;
#X connect 13 0 18 0;
#X connect 13 1 19 0;
#X connect 15 0 8 0;
#X connect 15 0 13 0;
#X connect 16 0 9 0;
#X connect 16 0 13 1;
#X connect 17 0 1 0;
#X connect 20 0 4 0;
#X coords 0 -1 1 1 121 132 1 280 343;
#X restore 1590 723 pd sidechain;
#X msg 1589 68 read -resize samples/kick_deep.wav sample;
#X obj 61 314 bng 15 50 20 0 empty empty empty 17 7 0 10 -262144 -1
-1;
#X obj 80 314 bng 15 50 20 0 empty empty empty 17 7 0 10 -262144 -1
-1;
#X floatatom 98 346 5 0 0 0 - - -, f 5;
#X floatatom 117 318 5 0 0 0 - - -, f 5;
#X floatatom 135 346 5 0 0 0 - - -, f 5;
#X floatatom 154 318 5 0 0 0 - - -, f 5;
#X obj 43 91 tgl 15 0 empty empty empty 17 7 0 10 -262144 -1 -1 0 1
;
#X obj 1589 423 s samplerms;
#X obj 154 372 s ms;
#X obj 43 314 tgl 15 0 empty empty empty 17 7 0 10 -262144 -1 -1 0
1;
#X obj 590 377 s sequencerstop;
#X obj 43 357 s run;
#X obj 245 51 r run;
#X obj 61 397 s tick;
#X obj 80 372 s stop;
#X obj 417 377 s sequencerstart;
#X obj 548 51 r samplerms;
#X floatatom 504 77 5 0 0 0 - - -, f 5;
#X floatatom 548 77 5 0 0 0 - - -, f 5;
#X obj 1633 94 r tick;
#N canvas 616 453 450 323 clockdivider 0;
#X obj 196 51 cnv 15 171 33 empty empty empty 20 12 0 14 -261869 -66577
0;
#X obj 52 125 f;
#X obj 109 151 + 1;
#X floatatom 52 184 5 0 0 0 - - -, f 5;
#X obj 109 184 mod;
#X obj 52 154 +;
#X msg 109 90 0;
#X floatatom 144 162 2 0 0 0 - - -, f 2;
#X obj 52 84 bng 15 50 20 0 empty empty empty 17 7 0 10 -262144 -1
-1;
#X obj 52 241 bng 15 50 20 0 empty empty empty 17 7 0 10 -262144 -1
-1;
#X obj 52 212 sel 0;
#X obj 192 113 hradio 11 0 1 8 empty empty empty 0 -8 0 10 -262144
-1 -1 3;
#X obj 144 138 + 1;
#X obj 52 24 inlet;
#X obj 109 24 inlet;
#X obj 52 265 outlet;
#X obj 201 57 hradio 20 0 1 8 empty empty empty 0 -8 0 10 -261268 -262053
-1 3;
#X text 205 56 1;
#X text 225 56 2;
#X text 245 56 3;
#X text 265 56 4;
#X text 285 56 5;
#X text 305 56 6;
#X text 325 56 7;
#X text 345 56 8;
#X connect 1 0 2 0;
#X connect 1 0 5 0;
#X connect 2 0 4 0;
#X connect 3 0 10 0;
#X connect 4 0 1 1;
#X connect 5 0 3 0;
#X connect 6 0 1 0;
#X connect 6 0 1 1;
#X connect 7 0 4 1;
#X connect 8 0 1 0;
#X connect 9 0 15 0;
#X connect 10 0 9 0;
#X connect 11 0 12 0;
#X connect 12 0 7 0;
#X connect 13 0 8 0;
#X connect 14 0 6 0;
#X connect 16 0 12 0;
#X coords 0 -1 1 1 177 58 1 193 29;
#X restore 1606 118 pd clockdivider;
#X obj 153 65 loadbang;
#N canvas 735 426 460 383 octaveshifter 0;
#X floatatom 107 218 5 0 0 1 octave - -, f 5;
#X obj 107 247 * 12;
#X obj 55 276 +;
#X floatatom 55 304 5 0 0 0 - - -, f 5;
#X floatatom 55 99 5 0 0 0 - - -, f 5;
#X obj 107 155 sel 0 1 2 3 4 5 6, f 33;
#X msg 107 184 -3;
#X msg 139 184 -2;
#X msg 172 184 -1;
#X msg 204 184 0;
#X msg 237 184 1;
#X msg 269 184 2;
#X obj 225 70 cnv 15 151 50 empty empty empty 20 12 0 14 -261869 -66577
0;
#X obj 230 95 hradio 20 0 1 7 empty empty empty 0 -8 0 10 -252163 -262123
-1 4;
#X msg 302 184 3;
#X text 294 71 0;
#X text 267 71 -1;
#X text 247 71 -2;
#X text 227 71 -3;
#X text 310 71 +1;
#X text 330 71 +2;
#X text 350 71 +3;
#X obj 55 42 inlet;
#X obj 55 332 outlet;
#X obj 174 42 inlet;
#X connect 0 0 1 0;
#X connect 1 0 2 1;
#X connect 2 0 3 0;
#X connect 3 0 23 0;
#X connect 4 0 2 0;
#X connect 5 0 6 0;
#X connect 5 1 7 0;
#X connect 5 2 8 0;
#X connect 5 3 9 0;
#X connect 5 4 10 0;
#X connect 5 5 11 0;
#X connect 5 6 14 0;
#X connect 6 0 0 0;
#X connect 7 0 0 0;
#X connect 8 0 0 0;
#X connect 9 0 0 0;
#X connect 10 0 0 0;
#X connect 11 0 0 0;
#X connect 13 0 5 0;
#X connect 14 0 0 0;
#X connect 22 0 4 0;
#X connect 24 0 13 0;
#X coords 0 -1 1 1 157 75 1 222 48;
#X restore 36 930 pd octaveshifter;
#N canvas 778 305 692 562 reverb 0;
#X obj 456 82 cnv 15 146 165 empty empty empty 20 12 0 14 -261869 -66577
0;
#X obj 456 105 cnv 15 146 107 empty empty empty 20 12 0 14 -240584
-66577 0;
#X obj 456 122 cnv 15 146 69 empty empty empty 20 12 0 14 -186385 -66577
0;
#X floatatom 232 256 8 0 120 0 - - -, f 8;
#X text 303 256 level \, dB;
#X floatatom 232 283 8 0 100 0 - - -, f 8;
#X text 303 283 liveness \, 0-100;
#X floatatom 232 310 8 0 5000 0 - - -, f 8;
#X floatatom 232 336 8 0 100 0 - - -, f 8;
#X text 303 310 crossover frequency \, Hz.;
#X text 303 336 HF damping \, percent;
#X obj 63 39 inlet~;
#X obj 65 483 outlet~;
#X obj 135 483 outlet~;
#X obj 65 353 rev2~ 100 90 3000 20;
#X obj 135 433 hip~;
#X obj 65 433 hip~;
#X obj 473 222 hsl 108 14 220 22000 1 1 empty empty hipass 3 -8 0 10
-262144 -1 -1 3500 1;
#X obj 473 107 vsl 20 93 0 1 0 1 empty empty level 0 -9 1 10 -262144
-1 -1 8050 1;
#X obj 228 222 * 100;
#X obj 503 107 vsl 20 93 0 1 0 1 empty empty liveness -6 -17 1 10 -262144
-1 -1 8300 1;
#X obj 278 222 * 100;
#X obj 533 107 vsl 20 93 0 1 0 1 empty empty x-over -2 -9 1 10 -262144
-1 -1 4950 1;
#X obj 328 222 * 22000;
#X obj 563 107 vsl 20 93 0 1 0 1 empty empty damping -5 -17 1 10 -262144
-1 -1 5200 1;
#X obj 378 222 * 100;
#X connect 3 0 14 1;
#X connect 5 0 14 2;
#X connect 7 0 14 3;
#X connect 8 0 14 4;
#X connect 11 0 14 0;
#X connect 14 0 16 0;
#X connect 14 1 15 0;
#X connect 14 2 16 0;
#X connect 14 3 15 0;
#X connect 15 0 13 0;
#X connect 16 0 12 0;
#X connect 17 0 15 1;
#X connect 17 0 16 1;
#X connect 18 0 19 0;
#X connect 19 0 3 0;
#X connect 20 0 21 0;
#X connect 21 0 5 0;
#X connect 22 0 23 0;
#X connect 23 0 7 0;
#X connect 24 0 25 0;
#X connect 25 0 8 0;
#X coords 0 -1 1 1 152 190 1 453 60;
#X restore 1760 797 pd reverb;
#X msg 153 91 96;
#X floatatom 106 91 5 0 0 0 - - -, f 5;
#X obj 1760 701 *~ 0.5;
#X obj 1424 961 throw~ revbusL;
#X obj 1565 961 throw~ revbusR;
#X obj 1408 986 throw~ delbusL;
#X obj 1549 986 throw~ delbusR;
#X obj 1118 601 catch~ delbusL;
#X obj 1226 601 catch~ delbusR;
#X obj 1760 645 catch~ revbusL;
#X obj 1770 670 catch~ revbusR;
#X obj 1770 1025 throw~ synthbusL;
#X obj 1782 1001 throw~ synthbusR;
#X obj 1049 545 throw~ delbusL;
#X obj 1057 521 throw~ delbusR;
#X obj 954 415 *~;
#X obj 1081 32 r stop;
#X obj 954 32 r tick;
#N canvas 616 453 450 323 clockdivider 0;
#X obj 196 51 cnv 15 171 33 empty empty empty 20 12 0 14 -261869 -66577
0;
#X obj 52 125 f;
#X obj 109 151 + 1;
#X floatatom 52 184 5 0 0 0 - - -, f 5;
#X obj 109 184 mod;
#X obj 52 154 +;
#X msg 109 90 0;
#X floatatom 144 162 2 0 0 0 - - -, f 2;
#X obj 52 84 bng 15 50 20 0 empty empty empty 17 7 0 10 -262144 -1
-1;
#X obj 52 241 bng 15 50 20 0 empty empty empty 17 7 0 10 -262144 -1
-1;
#X obj 52 212 sel 0;
#X obj 192 113 hradio 11 0 1 8 empty empty empty 0 -8 0 10 -262144
-1 -1 3;
#X obj 144 138 + 1;
#X obj 52 24 inlet;
#X obj 109 24 inlet;
#X obj 52 265 outlet;
#X obj 201 57 hradio 20 0 1 8 empty empty empty 0 -8 0 10 -261268 -262053
-1 2;
#X text 205 56 1;
#X text 225 56 2;
#X text 245 56 3;
#X text 265 56 4;
#X text 285 56 5;
#X text 305 56 6;
#X text 325 56 7;
#X text 345 56 8;
#X connect 1 0 2 0;
#X connect 1 0 5 0;
#X connect 2 0 4 0;
#X connect 3 0 10 0;
#X connect 4 0 1 1;
#X connect 5 0 3 0;
#X connect 6 0 1 1;
#X connect 7 0 4 1;
#X connect 8 0 1 0;
#X connect 9 0 15 0;
#X connect 10 0 9 0;
#X connect 11 0 12 0;
#X connect 12 0 7 0;
#X connect 13 0 8 0;
#X connect 14 0 6 0;
#X connect 16 0 12 0;
#X connect 16 0 6 0;
#X coords 0 -1 1 1 177 58 1 193 29;
#X restore 954 65 pd clockdivider;
#X obj 1066 493 throw~ sumL;
#X obj 1077 469 throw~ sumR;
#N canvas 605 335 624 345 envelope 0;
#X obj 178 122 cnv 15 204 79 empty empty empty 20 12 0 14 -261869 -66577
0;
#X obj 260 130 cnv 15 116 67 empty empty empty 20 12 0 14 -261390 -66577
0;
#X obj 260 141 cnv 15 116 40 empty empty empty 20 12 0 14 -260494 -66577
0;
#X floatatom 80 217 4 0 0 0 - - -, f 4;
#X obj 271 149 vsl 18 40 1.5 200 0 1 empty empty A 5 -9 1 10 -262144
-1 -1 400 1;
#X obj 296 149 vsl 18 40 1 500 0 1 empty empty D 5 -9 1 10 -262144
-1 -1 900 1;
#X obj 321 149 vsl 18 40 0 100 0 1 empty empty S 5 -9 1 10 -262144
-1 -1 0 1;
#X obj 346 149 vsl 18 40 0 1000 0 1 empty empty R 5 -9 1 10 -262144
-1 -1 0 1;
#X obj 45 16 inlet control;
#X obj 495 16 inlet release;
#X obj 399 16 inlet sustain;
#X obj 315 16 inlet decay;
#X obj 225 16 inlet attack;
#X obj 141 16 inlet level;
#X obj 45 249 utils/adsr 70 10 90 50 500;
#X obj 186 131 bng 18 50 20 0 empty empty empty 17 7 0 10 -262144 -260356
-1;
#X obj 227 133 vsl 16 33 0 1 0 1 empty empty L -8 18 1 10 -262144 -1
-1 166 1;
#X obj 45 274 outlet~;
#X msg 45 179 1;
#X obj 308 249 * 100;
#X floatatom 208 177 5 0 100 0 - - -, f 5;
#X obj 259 249 / 100;
#X connect 3 0 14 1;
#X connect 4 0 14 2;
#X connect 5 0 14 3;
#X connect 6 0 14 4;
#X connect 7 0 14 5;
#X connect 8 0 15 0;
#X connect 8 0 18 0;
#X connect 9 0 7 0;
#X connect 10 0 6 0;
#X connect 11 0 5 0;
#X connect 12 0 4 0;
#X connect 13 0 16 0;
#X connect 14 0 17 0;
#X connect 15 0 18 0;
#X connect 16 0 3 0;
#X connect 16 0 19 0;
#X connect 18 0 14 0;
#X connect 19 0 20 0;
#X connect 20 0 21 0;
#X connect 21 0 3 0;
#X coords 0 -1 1 1 210 104 1 175 100;
#X restore 954 279 pd envelope;
#X obj 763 377 tgl 15 0 empty empty empty 17 7 0 10 -262144 -1 -1 0
1;
#X obj 971 137 utils/clockdivider;
#X obj 986 208 utils/clockdivider;
#X obj 43 65 select 32;
#X obj 43 39 key;
#X floatatom 741 420 5 0 1 0 - - -, f 5;
#X floatatom 822 420 5 0 0 0 - - -, f 5;
#X floatatom 904 420 5 0 0 0 - - -, f 5;
#X floatatom 782 398 5 0 200 0 - - -, f 5;
#X floatatom 863 398 5 0 0 0 - - -, f 5;
#X obj 135 397 s bar;
#X obj 1338 601 r bar;
#X obj 1217 1007 throw~ sumR;
#X obj 1118 1006 throw~ sumL;
#X obj 1144 77 loadbang;
#X msg 1144 106 2;
#X msg 1156 176 5;
#X obj 648 798 vsl 15 71 0 100 0 1 empty empty empty 0 -9 0 10 -262144
-1 -1 500 1;
#N canvas 630 306 817 571 sampler 0;
#X obj 458 107 cnv 15 211 151 empty empty empty 20 12 0 14 -261869
-66577 0;
#X obj 90 480 outlet;
#X obj 621 114 bng 15 250 50 0 empty empty load\ sample -58 6 1 10
-262144 -1 -1;
#N canvas 0 22 450 300 (subpatch) 0;
#X array sample2 5729 float 2 black #ff7300;
#X coords 0 1 5729 -1 172 35 1;
#X restore 464 183 graph;
#X obj 243 221 soundfiler;
#X obj 313 135 openpanel;
#X obj 296 62 loadbang;
#X obj 243 173 pack s s;
#X msg 243 197 read -resize \$1 \$2;
#X floatatom 243 254 11 0 0 0 - - -, f 11;
#X floatatom 243 361 10 0 0 0 - - -, f 10;
#X obj 243 282 / 44.1;
#X obj 243 422 /;
#X obj 464 148 hradio 15 0 1 8 empty empty length\ divider 0 -8 1 10
-262144 -247361 -1 3;
#X obj 374 247 + 1;
#X floatatom 374 273 5 0 0 0 - - -, f 5;
#X obj 311 335 bng 15 250 50 0 empty empty empty 17 7 0 10 -259969
-261825 -1;
#X obj 90 107 soundfiler;
#X obj 374 298 t b f;
#X text 140 335 Duration in ms;
#X obj 90 58 inlet filename;
#X text 588 144 1 to 8;
#X obj 594 227 tgl 15 1 empty empty loop 18 6 1 10 -262144 -1 -1 0
1;
#X obj 555 301 spigot;
#X obj 464 227 bng 15 250 50 0 empty empty play 18 6 1 10 -262144 -1
-1;
#X msg 495 301 stop;
#X obj 465 393 *~;
#X obj 644 326 vsl 15 24 0 0.7 0 1 empty empty empty 0 -9 0 10 -262144
-1 -1 225 1;
#X obj 644 114 vsl 19 134 0 0.7 0 1 empty empty empty 0 -9 0 10 -261347
-1 -1 1300 1;
#X obj 529 227 bng 15 250 50 0 empty empty stop 18 6 1 10 -262144 -1
-1;
#X obj 586 58 inlet;
#X obj 636 58 inlet;
#X obj 686 58 inlet;
#X obj 736 58 inlet;
#X obj 465 480 outlet~;
#X obj 465 332 tabplay~ sample2;
#X obj 296 96 symbol sample2;
#X connect 2 0 5 0;
#X connect 4 0 9 0;
#X connect 5 0 7 0;
#X connect 6 0 36 0;
#X connect 7 0 8 0;
#X connect 8 0 4 0;
#X connect 9 0 11 0;
#X connect 10 0 12 0;
#X connect 11 0 10 0;
#X connect 12 0 1 0;
#X connect 13 0 14 0;
#X connect 14 0 15 0;
#X connect 15 0 18 0;
#X connect 16 0 10 0;
#X connect 17 0 9 0;
#X connect 18 0 16 0;
#X connect 18 1 12 1;
#X connect 20 0 17 0;
#X connect 22 0 23 1;
#X connect 23 0 35 0;
#X connect 24 0 35 0;
#X connect 25 0 35 0;
#X connect 26 0 34 0;
#X connect 27 0 26 1;
#X connect 28 0 27 0;
#X connect 29 0 25 0;
#X connect 30 0 24 0;
#X connect 31 0 29 0;
#X connect 32 0 22 0;
#X connect 33 0 28 0;
#X connect 35 0 26 0;
#X connect 35 1 23 0;
#X connect 36 0 7 1;
#X coords 0 -1 1 1 217 176 1 455 85;
#X restore 1214 239 pd sampler;
#X obj 1357 106 r stop;
#X obj 1226 106 r tick;
#N canvas 616 453 450 323 clockdivider 0;
#X obj 196 51 cnv 15 171 33 empty empty empty 20 12 0 14 -261869 -66577
0;
#X obj 52 125 f;
#X obj 109 151 + 1;
#X floatatom 52 184 5 0 0 0 - - -, f 5;
#X obj 109 184 mod;
#X obj 52 154 +;
#X msg 109 90 0;
#X floatatom 144 162 2 0 0 0 - - -, f 2;
#X obj 52 84 bng 15 50 20 0 empty empty empty 17 7 0 10 -262144 -1
-1;
#X obj 52 241 bng 15 50 20 0 empty empty empty 17 7 0 10 -262144 -1
-1;
#X obj 52 212 sel 0;
#X obj 192 113 hradio 11 0 1 8 empty empty empty 0 -8 0 10 -262144
-1 -1 3;
#X obj 144 138 + 1;
#X obj 52 24 inlet;
#X obj 109 24 inlet;
#X obj 52 265 outlet;
#X obj 201 57 hradio 20 0 1 8 empty empty empty 0 -8 0 10 -261268 -262053
-1 3;
#X text 205 56 1;
#X text 225 56 2;
#X text 245 56 3;
#X text 265 56 4;
#X text 285 56 5;
#X text 305 56 6;
#X text 325 56 7;
#X text 345 56 8;
#X connect 1 0 2 0;
#X connect 1 0 5 0;
#X connect 2 0 4 0;
#X connect 3 0 10 0;
#X connect 4 0 1 1;
#X connect 5 0 3 0;
#X connect 6 0 1 1;
#X connect 7 0 4 1;
#X connect 8 0 1 0;
#X connect 9 0 15 0;
#X connect 10 0 9 0;
#X connect 11 0 12 0;
#X connect 12 0 7 0;
#X connect 13 0 8 0;
#X connect 14 0 6 0;
#X connect 16 0 12 0;
#X connect 16 0 6 0;
#X coords 0 -1 1 1 177 58 1 193 29;
#X restore 1226 135 pd clockdivider;
#X obj 1234 544 throw~ revbusL;
#X obj 1237 519 throw~ revbusR;
#X obj 1222 427 *~;
#X obj 1257 430 hsl 70 16 0 1 0 1 empty empty empty -2 -8 0 10 -262144
-1 -1 1350 1;
#X obj 1465 104 r ms;
#X floatatom 1465 162 5 0 0 0 - - -, f 5;
#X obj 1440 211 pipe;
#X obj 1465 134 * 2;
#X msg 1413 162 clear;
#X obj 1413 134 r stop;
#X obj 646 403 r scalednote;
#N canvas 735 426 501 390 lfo 0;
#X obj 241 104 cnv 15 129 117 empty empty empty 20 12 0 14 -261869
-66577 0;
#X obj 322 109 cnv 15 45 110 empty empty empty 20 12 0 14 -261067 -66577
0;
#X obj 74 228 *~ 800;
#X obj 74 141 osc~ 0.08;
#X obj 74 257 +~ 1000;
#X obj 246 116 hsl 66 20 0 2 0 1 empty empty lfo\ freq -2 -8 1 10 -262144
-1 -1 366 1;
#X obj 74 168 *~ 0.5;
#X obj 74 195 +~ 0.5;
#X obj 246 156 hsl 66 20 0 6000 0 1 empty empty range -2 -8 1 10 -262144
-1 -1 139 1;
#X floatatom 326 116 5 0 0 0 - - -, f 5;
#X floatatom 326 157 5 0 0 0 - - -, f 5;
#X obj 246 196 hsl 66 20 0 6000 0 1 empty empty shift -2 -8 1 10 -262144
-1 -1 100 1;
#X floatatom 326 197 5 0 0 0 - - -, f 5;
#X obj 74 51 inlet;
#X obj 144 51 inlet;
#X obj 214 51 inlet;
#X obj 74 316 outlet~;
#X obj 164 316 outlet;
#X obj 164 286 snapshot~;
#X obj 276 271 loadbang;
#X obj 275 315 metro 20;
#X obj 348 289 tgl 15 0 empty empty empty 17 7 0 10 -262144 -1 -1 0
1;
#X connect 2 0 4 0;
#X connect 3 0 6 0;
#X connect 4 0 16 0;
#X connect 4 0 18 0;
#X connect 5 0 3 0;
#X connect 5 0 9 0;
#X connect 6 0 7 0;
#X connect 7 0 2 0;
#X connect 8 0 10 0;
#X connect 10 0 2 1;
#X connect 11 0 12 0;
#X connect 12 0 4 1;
#X connect 13 0 5 0;
#X connect 14 0 8 0;
#X connect 15 0 11 0;
#X connect 18 0 17 0;
#X connect 19 0 20 0;
#X connect 20 0 18 0;
#X connect 21 0 20 0;
#X coords 0 -1 1 1 135 142 1 238 82;
#X restore 801 138 pd lfo;
#X obj 1465 187 +;
#X floatatom 1505 104 5 0 0 2 nudge - -, f 5;
#X obj 1505 134 t b f;
#X obj 954 440 hip~;
#X obj 1032 389 hsl 128 15 0 22000 0 1 empty empty empty -2 -8 0 10
-262144 -1 -1 650 1;
#N canvas 630 306 817 571 sampler 0;
#X obj 458 107 cnv 15 211 151 empty empty empty 20 12 0 14 -261869
-66577 0;
#X obj 90 480 outlet;
#X obj 621 114 bng 15 250 50 0 empty empty load\ sample -58 6 1 10
-262144 -1 -1;
#N canvas 0 22 450 300 (subpatch) 0;
#X array sample3 10838 float 2 black #ff7300;
#X coords 0 1 10838 -1 172 35 1;
#X restore 464 183 graph;
#X obj 243 221 soundfiler;
#X obj 313 135 openpanel;
#X obj 296 62 loadbang;
#X obj 243 173 pack s s;
#X msg 243 197 read -resize \$1 \$2;
#X floatatom 243 254 11 0 0 0 - - -, f 11;
#X floatatom 243 361 10 0 0 0 - - -, f 10;
#X obj 243 282 / 44.1;
#X obj 243 422 /;
#X obj 464 148 hradio 15 0 1 8 empty empty length\ divider 0 -8 1 10
-262144 -247361 -1 3;
#X obj 374 247 + 1;
#X floatatom 374 273 5 0 0 0 - - -, f 5;
#X obj 311 335 bng 15 250 50 0 empty empty empty 17 7 0 10 -259969
-261825 -1;
#X obj 90 107 soundfiler;
#X obj 374 298 t b f;
#X text 140 335 Duration in ms;
#X obj 90 58 inlet filename;
#X text 588 144 1 to 8;
#X obj 594 227 tgl 15 1 empty empty loop 18 6 1 10 -262144 -1 -1 0
1;
#X obj 555 301 spigot;
#X obj 464 227 bng 15 250 50 0 empty empty play 18 6 1 10 -262144 -1
-1;
#X msg 495 301 stop;
#X obj 465 393 *~;
#X obj 644 326 vsl 15 24 0 0.7 0 1 empty empty empty 0 -9 0 10 -262144
-1 -1 294 1;
#X obj 644 114 vsl 19 134 0 0.7 0 1 empty empty empty 0 -9 0 10 -261347
-1 -1 1700 1;
#X obj 529 227 bng 15 250 50 0 empty empty stop 18 6 1 10 -262144 -1
-1;
#X obj 586 58 inlet;
#X obj 636 58 inlet;
#X obj 686 58 inlet;
#X obj 736 58 inlet;
#X obj 465 480 outlet~;
#X obj 465 332 tabplay~ sample3;
#X obj 296 96 symbol sample3;
#X connect 2 0 5 0;
#X connect 4 0 9 0;
#X connect 5 0 7 0;
#X connect 6 0 36 0;
#X connect 7 0 8 0;
#X connect 8 0 4 0;
#X connect 9 0 11 0;
#X connect 10 0 12 0;
#X connect 11 0 10 0;
#X connect 12 0 1 0;
#X connect 13 0 14 0;
#X connect 14 0 15 0;
#X connect 15 0 18 0;
#X connect 16 0 10 0;
#X connect 17 0 9 0;
#X connect 18 0 16 0;
#X connect 18 1 12 1;
#X connect 20 0 17 0;
#X connect 22 0 23 1;
#X connect 23 0 35 0;
#X connect 24 0 35 0;
#X connect 25 0 35 0;
#X connect 26 0 34 0;
#X connect 27 0 26 1;
#X connect 28 0 27 0;
#X connect 29 0 25 0;
#X connect 30 0 24 0;
#X connect 31 0 29 0;
#X connect 32 0 22 0;
#X connect 33 0 28 0;
#X connect 35 0 26 0;
#X connect 35 1 23 0;
#X connect 36 0 7 1;
#X coords 0 -1 1 1 217 176 1 455 85;
#X restore 1861 217 pd sampler;
#N canvas 289 115 1061 500 qwerty 0;
#X obj 123 203 list-find;
#X obj 123 141 key;
#X obj 183 110 loadbang;
#X obj 550 59 inlet;
#X text 547 35 octave shift;
#X obj 550 226 * 12;
#X obj 123 271 +;
#X obj 123 314 + 60;
#X obj 123 360 outlet;
#X floatatom 208 314 5 0 0 0 - - -, f 5;
#X floatatom 208 360 5 0 0 0 - - -, f 5;
#X floatatom 208 245 5 0 0 0 - - -, f 5;
#X floatatom 76 188 5 0 0 0 - - -, f 5;
#X msg 183 134 122 115 120 100 99 118 103 98 104 110 106 109 44, f
50;
#X obj 208 389 mtof;
#X floatatom 208 418 5 0 0 0 - - -, f 5;
#X obj 650 110 loadbang;
#X obj 590 203 list-find;
#X obj 592 271 +;
#X floatatom 677 314 5 0 0 0 - - -, f 5;
#X floatatom 677 360 5 0 0 0 - - -, f 5;
#X floatatom 677 245 5 0 0 0 - - -, f 5;
#X obj 677 389 mtof;
#X floatatom 677 418 5 0 0 0 - - -, f 5;
#X obj 592 314 + 72;
#X msg 650 134 113 50 119 51 101 114 53 116 54 121 55 117 105, f 49
;
#X connect 0 0 6 0;
#X connect 0 0 11 0;
#X connect 1 0 0 0;
#X connect 1 0 12 0;
#X connect 1 0 17 0;
#X connect 2 0 13 0;
#X connect 3 0 5 0;
#X connect 5 0 6 1;
#X connect 5 0 18 1;
#X connect 6 0 7 0;
#X connect 6 0 9 0;
#X connect 7 0 8 0;
#X connect 7 0 10 0;
#X connect 10 0 14 0;
#X connect 13 0 0 1;
#X connect 14 0 15 0;
#X connect 16 0 25 0;
#X connect 17 0 18 0;
#X connect 17 0 21 0;
#X connect 18 0 19 0;
#X connect 18 0 24 0;
#X connect 20 0 22 0;
#X connect 22 0 23 0;
#X connect 24 0 20 0;
#X connect 24 0 8 0;
#X connect 25 0 17 1;
#X restore 278 478 pd qwerty;
#X obj 278 429 hradio 15 0 1 5 empty empty select\ octave 0 -9 0 10
-262144 -1 -1 0;
#X obj 278 451 - 2;
#X floatatom 278 507 5 0 0 1 midi - -, f 5;
#X obj 278 535 s qwertymidi;
#X obj 89 635 r qwertymidi;
#X obj 576 707 utils/smux;
#X obj 1345 492 throw~ sumL;
#X obj 1432 492 throw~ sumR;
#X obj 607 836 mtof;
#X obj 972 389 noise~;
#X obj 1032 411 hsl 128 15 0 22000 0 1 empty empty empty -2 -8 0 10
-262144 -1 -1 3100 1;
#X obj 954 466 lop~;
#X obj 85 897 hradio 15 0 1 7 empty empty select\ octave 0 -9 0 10
-262144 -1 -1 4;
#X obj 36 744 +;
#X floatatom 194 711 5 0 0 0 - - -, f 5;
#N canvas 735 426 501 390 lfo 0;
#X obj 241 104 cnv 15 129 117 empty empty empty 20 12 0 14 -261869
-66577 0;
#X obj 322 109 cnv 15 45 110 empty empty empty 20 12 0 14 -261067 -66577
0;
#X obj 74 228 *~ 800;
#X obj 74 141 osc~ 0.08;
#X obj 74 257 +~ 1000;
#X obj 246 116 hsl 66 20 0 2 0 1 empty empty lfo\ freq -2 -8 1 10 -262144
-1 -1 2050 1;
#X obj 74 168 *~ 0.5;
#X obj 74 195 +~ 0.5;
#X obj 246 156 hsl 66 20 0 6000 0 1 empty empty range -2 -8 1 10 -262144
-1 -1 15 1;
#X floatatom 326 116 5 0 0 0 - - -, f 5;
#X floatatom 326 157 5 0 0 0 - - -, f 5;
#X obj 246 196 hsl 66 20 0 6000 0 1 empty empty shift -2 -8 1 10 -262144
-1 -1 0 1;
#X floatatom 326 197 5 0 0 0 - - -, f 5;
#X obj 74 51 inlet;
#X obj 144 51 inlet;
#X obj 214 51 inlet;
#X obj 74 316 outlet~;
#X obj 164 316 outlet;
#X obj 164 286 snapshot~;
#X obj 276 271 loadbang;
#X obj 275 315 metro 20;
#X obj 348 289 tgl 15 0 empty empty empty 17 7 0 10 -262144 -1 -1 0
1;
#X connect 2 0 4 0;
#X connect 3 0 6 0;
#X connect 4 0 16 0;
#X connect 4 0 18 0;
#X connect 5 0 3 0;
#X connect 5 0 9 0;
#X connect 6 0 7 0;
#X connect 7 0 2 0;
#X connect 8 0 10 0;
#X connect 10 0 2 1;
#X connect 11 0 12 0;
#X connect 12 0 4 1;
#X connect 13 0 5 0;
#X connect 14 0 8 0;
#X connect 15 0 11 0;
#X connect 18 0 17 0;
#X connect 19 0 20 0;
#X connect 20 0 18 0;
#X connect 21 0 20 0;
#X coords 0 -1 1 1 135 142 1 238 82;
#X restore 111 478 pd lfo;
#X obj 2026 64 r stop;
#X obj 1854 96 r tick;
#N canvas 616 453 450 323 clockdivider 0;
#X obj 196 51 cnv 15 171 33 empty empty empty 20 12 0 14 -261869 -66577
0;
#X obj 52 125 f;
#X obj 109 151 + 1;
#X floatatom 52 184 5 0 0 0 - - -, f 5;
#X obj 109 184 mod;
#X obj 52 154 +;
#X msg 109 90 0;
#X floatatom 144 162 2 0 0 0 - - -, f 2;
#X obj 52 84 bng 15 50 20 0 empty empty empty 17 7 0 10 -262144 -1
-1;
#X obj 52 241 bng 15 50 20 0 empty empty empty 17 7 0 10 -262144 -1
-1;
#X obj 52 212 sel 0;
#X obj 192 113 hradio 11 0 1 8 empty empty empty 0 -8 0 10 -262144
-1 -1 3;
#X obj 144 138 + 1;
#X obj 52 24 inlet;
#X obj 109 24 inlet;
#X obj 52 265 outlet;
#X obj 201 57 hradio 20 0 1 8 empty empty empty 0 -8 0 10 -261268 -262053
-1 7;
#X text 205 56 1;
#X text 225 56 2;
#X text 245 56 3;
#X text 265 56 4;
#X text 285 56 5;
#X text 305 56 6;
#X text 325 56 7;
#X text 345 56 8;
#X connect 1 0 2 0;
#X connect 1 0 5 0;
#X connect 2 0 4 0;
#X connect 3 0 10 0;
#X connect 4 0 1 1;
#X connect 5 0 3 0;
#X connect 6 0 1 1;
#X connect 7 0 4 1;
#X connect 8 0 1 0;
#X connect 9 0 15 0;
#X connect 10 0 9 0;
#X connect 11 0 12 0;
#X connect 12 0 7 0;
#X connect 13 0 8 0;
#X connect 14 0 6 0;
#X connect 16 0 12 0;
#X connect 16 0 6 0;
#X coords 0 -1 1 1 177 58 1 193 29;
#X restore 1854 125 pd clockdivider;
#X obj 2051 116 r ms;
#X obj 2034 190 pipe;
#X msg 2038 91 clear;
#X obj 2051 146 * 4;
#X obj 1864 566 throw~ revbusL;
#X obj 1867 541 throw~ revbusR;
#X obj 1882 439 *~;
#X obj 1882 410 hsl 70 16 0 1 0 1 empty empty empty -2 -8 0 10 -262144
-1 -1 3300 1;
#X obj 1997 534 throw~ sumL;
#X obj 1998 561 throw~ sumR;
#X msg 1719 29 read -resize samples/analog_clap.wav sample3;
#X msg 1214 66 read -resize samples/open_hihat.wav sample2;
#X floatatom 30 1039 5 0 0 0 - - -, f 5;
#N canvas 865 325 621 323 distort 0;
#X obj 236 66 cnv 15 80 54 empty empty empty 20 12 0 14 -261869 -66577
0;
#X obj 59 116 *~ 4;
#X obj 59 145 expr~ atan($v1);
#X obj 59 264 outlet~;
#X obj 59 27 inlet~;
#X obj 242 77 hsl 64 12 0 64 0 1 empty empty overdive -2 -8 1 10 -262144
-1 -1 1650 1;
#X obj 465 116 *~ 4;
#X obj 465 145 expr~ atan($v1);
#X obj 465 264 outlet~;
#X obj 465 27 inlet~;
#X floatatom 132 111 5 0 0 0 - - -, f 5;
#X obj 59 234 *~;
#X obj 242 104 hsl 64 12 0 1 0 1 empty empty gain -2 -8 1 10 -262144
-1 -1 1800 1;
#X obj 465 234 *~;
#X connect 1 0 2 0;
#X connect 2 0 11 0;
#X connect 4 0 1 0;
#X connect 5 0 1 1;
#X connect 5 0 6 1;
#X connect 5 0 10 0;
#X connect 6 0 7 0;
#X connect 7 0 13 0;
#X connect 9 0 6 0;
#X connect 11 0 3 0;
#X connect 12 0 11 1;
#X connect 12 0 13 1;
#X connect 13 0 8 0;
#X coords 0 -1 1 1 86 79 1 233 44;
#X restore 766 972 pd distort;
#N canvas 735 426 501 390 lfo 0;
#X obj 241 104 cnv 15 129 117 empty empty empty 20 12 0 14 -261869
-66577 0;
#X obj 322 109 cnv 15 45 110 empty empty empty 20 12 0 14 -261067 -66577
0;
#X obj 74 228 *~ 800;
#X obj 74 141 osc~ 0.08;
#X obj 74 257 +~ 1000;
#X obj 246 116 hsl 66 20 0 2 0 1 empty empty lfo\ freq -2 -8 1 10 -262144
-1 -1 195 1;
#X obj 74 168 *~ 0.5;
#X obj 74 195 +~ 0.5;
#X obj 246 156 hsl 66 20 0 6000 0 1 empty empty range -2 -8 1 10 -262144
-1 -1 83 1;
#X floatatom 326 116 5 0 0 0 - - -, f 5;
#X floatatom 326 157 5 0 0 0 - - -, f 5;
#X obj 246 196 hsl 66 20 0 6000 0 1 empty empty shift -2 -8 1 10 -262144
-1 -1 18 1;
#X floatatom 326 197 5 0 0 0 - - -, f 5;
#X obj 74 51 inlet;
#X obj 144 51 inlet;
#X obj 214 51 inlet;
#X obj 74 316 outlet~;
#X obj 164 316 outlet;
#X obj 164 286 snapshot~;
#X obj 276 271 loadbang;
#X obj 275 315 metro 20;
#X obj 348 289 tgl 15 0 empty empty empty 17 7 0 10 -262144 -1 -1 0
1;
#X connect 2 0 4 0;
#X connect 3 0 6 0;
#X connect 4 0 16 0;
#X connect 4 0 18 0;
#X connect 5 0 3 0;
#X connect 5 0 9 0;
#X connect 6 0 7 0;
#X connect 7 0 2 0;
#X connect 8 0 10 0;
#X connect 10 0 2 1;
#X connect 11 0 12 0;
#X connect 12 0 4 1;
#X connect 13 0 5 0;
#X connect 14 0 8 0;
#X connect 15 0 11 0;
#X connect 18 0 17 0;
#X connect 19 0 20 0;
#X connect 20 0 18 0;
#X connect 21 0 20 0;
#X coords 0 -1 1 1 135 142 1 238 82;
#X restore 256 794 pd lfo;
#X obj 730 583 abs/synthbl;
#X obj 36 668 abs/dmux;
#X obj 194 644 abs/dmux;
#X obj 43 118 abs/master-bpm;
#X obj 822 298 abs/dmux;
#X obj 1676 386 abs/smux;
#X obj 1882 472 abs/smux;
#X obj 2003 462 abs/smux;
#X obj 1345 429 abs/smux;
#X obj 1222 455 abs/smux;
#X obj 954 495 abs/smux;
#X obj 1533 546 abs/dmux;
#X obj 1760 729 abs/smux;
#X obj 932 977 abs/smux;
#X obj 593 917 abs/dmux;
#X obj 498 852 abs/dmux;
#X obj 323 954 abs/dmux;
#X connect 1 0 166 0;
#X connect 1 0 166 1;
#X connect 1 0 181 0;
#X connect 1 0 181 1;
#X connect 2 0 54 0;
#X connect 3 0 41 0;
#X connect 3 0 76 0;
#X connect 3 0 74 0;
#X connect 3 1 42 0;
#X connect 3 1 77 0;
#X connect 3 1 75 0;
#X connect 4 0 139 0;
#X connect 5 0 106 0;
#X connect 5 1 105 0;
#X connect 6 0 1 0;
#X connect 7 1 183 2;
#X connect 8 0 2 0;
#X connect 8 1 43 0;
#X connect 8 1 173 2;
#X connect 8 1 173 3;
#X connect 9 0 46 0;
#X connect 9 0 163 0;
#X connect 9 0 164 0;
#X connect 12 0 24 0;
#X connect 12 1 62 0;
#X connect 12 2 57 0;
#X connect 12 3 93 0;
#X connect 13 0 2 0;
#X connect 14 0 12 2;
#X connect 15 0 12 0;
#X connect 16 0 64 0;
#X connect 17 0 8 2;
#X connect 19 0 1 1;
#X connect 22 0 3 0;
#X connect 23 0 3 1;
#X connect 25 0 69 0;
#X connect 25 1 27 0;
#X connect 26 0 169 0;
#X connect 27 0 29 0;
#X connect 30 0 179 0;
#X connect 30 0 179 1;
#X connect 31 0 25 1;
#X connect 32 0 25 2;
#X connect 33 0 142 0;
#X connect 33 0 34 0;
#X connect 34 0 182 2;
#X connect 35 0 67 1;
#X connect 36 0 67 0;
#X connect 39 0 45 0;
#X connect 40 0 45 1;
#X connect 44 0 45 2;
#X connect 45 0 37 0;
#X connect 45 1 38 0;
#X connect 46 0 8 0;
#X connect 47 0 60 0;
#X connect 48 0 61 0;
#X connect 51 0 103 0;
#X connect 52 0 55 0;
#X connect 53 0 171 0;
#X connect 56 0 58 0;
#X connect 59 0 15 0;
#X connect 63 0 65 0;
#X connect 64 0 12 1;
#X connect 66 0 36 0;
#X connect 67 0 8 1;
#X connect 68 0 71 0;
#X connect 69 0 28 0;
#X connect 69 0 165 0;
#X connect 70 0 82 0;
#X connect 70 1 83 0;
#X connect 71 0 171 1;
#X connect 72 0 171 1;
#X connect 73 0 180 2;
#X connect 78 0 5 0;
#X connect 79 0 5 1;
#X connect 80 0 73 0;
#X connect 81 0 73 0;
#X connect 86 0 130 0;
#X connect 87 0 89 1;
#X connect 88 0 89 0;
#X connect 88 0 94 0;
#X connect 88 0 95 0;
#X connect 89 0 92 0;
#X connect 92 0 86 0;
#X connect 94 0 92 0;
#X connect 95 0 92 0;
#X connect 96 0 53 0;
#X connect 97 0 96 0;
#X connect 98 0 19 1;
#X connect 99 0 19 3;
#X connect 100 0 19 5;
#X connect 101 0 19 2;
#X connect 102 0 19 4;
#X connect 104 0 5 2;
#X connect 104 0 5 3;
#X connect 107 0 108 0;
#X connect 107 0 109 0;
#X connect 108 0 94 2;
#X connect 109 0 95 2;
#X connect 110 0 34 1;
#X connect 111 1 117 0;
#X connect 111 1 176 2;
#X connect 111 1 176 3;
#X connect 112 0 114 1;
#X connect 113 0 114 0;
#X connect 114 0 121 0;
#X connect 117 0 177 2;
#X connect 117 0 177 3;
#X connect 118 0 117 1;
#X connect 119 0 122 0;
#X connect 120 0 127 0;
#X connect 121 0 111 1;
#X connect 122 0 120 0;
#X connect 123 0 121 0;
#X connect 124 0 123 0;
#X connect 125 0 4 0;
#X connect 125 0 19 0;
#X connect 125 0 168 0;
#X connect 126 1 172 2;
#X connect 127 0 121 1;
#X connect 128 0 129 0;
#X connect 129 0 120 0;
#X connect 129 1 127 1;
#X connect 130 0 145 0;
#X connect 131 0 130 1;
#X connect 132 1 159 0;
#X connect 132 1 175 2;
#X connect 132 1 175 3;
#X connect 133 0 136 0;
#X connect 134 0 135 0;
#X connect 135 0 133 0;
#X connect 136 0 137 0;
#X connect 138 0 169 2;
#X connect 139 0 6 0;
#X connect 143 0 86 1;
#X connect 144 0 145 1;
#X connect 145 0 178 2;
#X connect 146 0 69 1;
#X connect 147 0 25 0;
#X connect 148 0 147 1;
#X connect 149 1 170 2;
#X connect 150 0 152 1;
#X connect 150 0 155 0;
#X connect 151 0 152 0;
#X connect 152 0 154 0;
#X connect 153 0 156 0;
#X connect 154 0 132 1;
#X connect 155 0 154 0;
#X connect 156 0 154 1;
#X connect 159 0 174 2;
#X connect 159 0 174 3;
#X connect 160 0 159 1;
#X connect 163 0 132 0;
#X connect 164 0 111 0;
#X connect 166 0 181 2;
#X connect 166 1 181 3;
#X connect 167 1 184 2;
#X connect 168 0 139 2;
#X connect 169 0 147 0;
#X connect 170 0 148 0;
#X connect 171 0 56 0;
#X connect 171 1 47 0;
#X connect 171 2 48 0;
#X connect 171 3 49 0;
#X connect 171 4 50 0;
#X connect 171 5 51 0;
#X connect 171 6 52 0;
#X connect 172 0 99 0;
#X connect 173 0 10 0;
#X connect 173 1 11 0;
#X connect 174 0 157 0;
#X connect 174 1 158 0;
#X connect 175 0 161 0;
#X connect 175 1 162 0;
#X connect 176 0 140 0;
#X connect 176 1 141 0;
#X connect 177 0 115 0;
#X connect 177 1 116 0;
#X connect 178 0 85 0;
#X connect 178 0 91 0;
#X connect 178 0 90 0;
#X connect 178 0 84 0;
#X connect 179 0 3 2;
#X connect 179 1 3 3;
#X connect 180 0 70 0;
#X connect 181 0 20 0;
#X connect 181 1 21 0;
#X connect 182 0 6 1;
#X connect 183 0 6 1;
#X connect 184 0 6 2;
