#N canvas 383 265 938 446 12;
#X obj 685 408 dac~;
#X obj 636 334 *~;
#X obj 654 309 hsl 64 15 0 1 0 0 empty empty empty -2 -8 0 10 -262144
-1 -1 2400 1;
#X obj 761 334 *~;
#X obj 779 309 hsl 64 15 0 1 0 0 empty empty empty -2 -8 0 10 -262144
-1 -1 0 1;
#X msg 807 237 0;
#X floatatom 636 48 5 0 0 0 - - -, f 5;
#X floatatom 636 159 5 0 0 0 - - -, f 5;
#X floatatom 761 159 5 0 0 0 - - -, f 5;
#X floatatom 779 103 5 0 0 0 - - -, f 5;
#X floatatom 654 103 5 0 0 0 - - -, f 5;
#X obj 761 130 *;
#X obj 636 130 *;
#X obj 636 20 bng 15 250 50 0 empty empty empty 17 7 0 10 -262144 -1
-1;
#X text 841 237 Align phase;
#X obj 36 212 / 2;
#X floatatom 36 241 5 0 0 0 - - -, f 5;
#X obj 36 334 *~;
#X obj 54 309 hsl 64 15 0 1 0 0 empty empty empty -2 -8 0 10 -262144
-1 -1 2900 1;
#X floatatom 126 241 5 0 0 0 - - -, f 5;
#X obj 126 334 *~;
#X obj 144 309 hsl 64 15 0 1 0 0 empty empty empty -2 -8 0 10 -262144
-1 -1 0 1;
#X obj 36 279 phasor~;
#X obj 126 279 phasor~;
#X obj 636 279 phasor~;
#X obj 761 279 phasor~;
#X floatatom 216 241 5 0 0 0 - - -, f 5;
#X obj 216 334 *~;
#X obj 234 309 hsl 64 15 0 1 0 0 empty empty empty -2 -8 0 10 -262144
-1 -1 3600 1;
#X obj 216 279 phasor~;
#X obj 126 212 / 3;
#X obj 216 212 / 4;
#X floatatom 306 241 5 0 0 0 - - -, f 5;
#X obj 306 334 *~;
#X obj 324 309 hsl 64 15 0 1 0 0 empty empty empty -2 -8 0 10 -262144
-1 -1 0 1;
#X floatatom 396 241 5 0 0 0 - - -, f 5;
#X obj 396 334 *~;
#X obj 414 309 hsl 64 15 0 1 0 0 empty empty empty -2 -8 0 10 -262144
-1 -1 0 1;
#X obj 306 279 phasor~;
#X obj 396 279 phasor~;
#X floatatom 486 241 5 0 0 0 - - -, f 5;
#X obj 486 334 *~;
#X obj 504 309 hsl 64 15 0 1 0 0 empty empty empty -2 -8 0 10 -262144
-1 -1 0 1;
#X obj 486 279 phasor~;
#X obj 306 212 / 5;
#X obj 396 212 / 6;
#X obj 486 212 / 7;
#X obj 245 408 dac~;
#X connect 1 0 0 0;
#X connect 1 0 0 1;
#X connect 2 0 1 1;
#X connect 3 0 0 1;
#X connect 4 0 3 1;
#X connect 5 0 24 1;
#X connect 5 0 25 1;
#X connect 5 0 43 1;
#X connect 5 0 39 1;
#X connect 5 0 38 1;
#X connect 5 0 29 1;
#X connect 5 0 23 1;
#X connect 5 0 22 1;
#X connect 6 0 11 0;
#X connect 6 0 12 0;
#X connect 7 0 15 0;
#X connect 7 0 24 0;
#X connect 7 0 30 0;
#X connect 7 0 46 0;
#X connect 7 0 45 0;
#X connect 7 0 44 0;
#X connect 7 0 31 0;
#X connect 8 0 25 0;
#X connect 9 0 11 1;
#X connect 10 0 12 1;
#X connect 11 0 8 0;
#X connect 12 0 7 0;
#X connect 13 0 6 0;
#X connect 15 0 16 0;
#X connect 16 0 22 0;
#X connect 17 0 47 0;
#X connect 17 0 47 1;
#X connect 18 0 17 1;
#X connect 19 0 23 0;
#X connect 20 0 47 0;
#X connect 20 0 47 1;
#X connect 21 0 20 1;
#X connect 22 0 17 0;
#X connect 23 0 20 0;
#X connect 24 0 1 0;
#X connect 25 0 3 0;
#X connect 26 0 29 0;
#X connect 27 0 47 0;
#X connect 27 0 47 1;
#X connect 28 0 27 1;
#X connect 29 0 27 0;
#X connect 30 0 19 0;
#X connect 31 0 26 0;
#X connect 32 0 38 0;
#X connect 33 0 47 0;
#X connect 33 0 47 1;
#X connect 34 0 33 1;
#X connect 35 0 39 0;
#X connect 36 0 47 0;
#X connect 36 0 47 1;
#X connect 37 0 36 1;
#X connect 38 0 33 0;
#X connect 39 0 36 0;
#X connect 40 0 43 0;
#X connect 41 0 47 0;
#X connect 41 0 47 1;
#X connect 42 0 41 1;
#X connect 43 0 41 0;
#X connect 44 0 32 0;
#X connect 45 0 35 0;
#X connect 46 0 40 0;
