#N canvas 1055 23 213 307 12;
#X obj 64 170 +;
#X obj 64 104 moses 64;
#X obj 117 133 - 128;
#X obj 64 203 clip 0 127;
#X obj 64 232 outlet;
#X obj 64 73 ctlin \$1;
#X obj 115 172 hsl 39 17 0 127 0 1 empty empty empty -2 -8 0 10 -262144
-1 -1 1706 1;
#X connect 0 0 3 0;
#X connect 1 0 0 0;
#X connect 1 1 2 0;
#X connect 2 0 0 0;
#X connect 3 0 4 0;
#X connect 3 0 6 0;
#X connect 5 0 1 0;
#X connect 6 0 0 1;
