#N canvas 386 155 1533 716 12;
#X obj 1003 68 cnv 15 433 512 empty empty empty 20 12 0 14 -233017
-66577 0;
#X obj 163 352 hsl 139 15 0 127 0 1 empty empty empty -2 -8 0 10 -262144
-1 -1 7063 1;
#X obj 163 382 hsl 139 15 0 127 0 1 empty empty empty -2 -8 0 10 -262144
-1 -1 2934 1;
#X obj 163 46 tgl 15 0 empty empty empty 17 7 0 10 -262144 -1 -1 0
1;
#X obj 163 238 f;
#X obj 201 238 + 1;
#X obj 163 295 + 36;
#X obj 292 155 sel 0;
#X obj 163 267 mod 64;
#X obj 610 186 t b f, f 12;
#N canvas 1046 124 1436 1105.97 pushsysex 0;
#X obj 299 71 inlet refresh;
#X obj 737 71 inlet text value;
#X obj 601 276 spell;
#N canvas 1535 452 785 567 list-drip 0;
#X obj 73 94 t a a;
#X obj 73 251 spigot;
#X obj 112 159 bang;
#X obj 112 178 1;
#X obj 233 159 route bang;
#X obj 193 160 bang;
#X obj 193 179 0;
#X obj 112 124 list split 2;
#X obj 242 389 list split;
#X obj 309 338 list length;
#X obj 309 360 >> 1;
#X obj 73 270 t a a a a;
#X obj 73 456 list split;
#X obj 140 408 list length;
#X obj 140 433 >> 1;
#X obj 41 29 inlet;
#X obj 300 185 outlet;
#X text 83 29 Copyright 2009 by Mathieu Bouchard;
#X obj 41 63 t b a;
#X obj 475 129 outlet;
#X text 530 131 signal end of list;
#X text 391 33 made compatible with [list-drip]: fbar 2009;
#X connect 0 0 1 0;
#X connect 0 1 7 0;
#X connect 1 0 11 0;
#X connect 2 0 3 0;
#X connect 3 0 1 1;
#X connect 4 1 16 0;
#X connect 5 0 6 0;
#X connect 6 0 1 1;
#X connect 7 0 2 0;
#X connect 7 2 4 0;
#X connect 7 2 5 0;
#X connect 8 0 0 0;
#X connect 9 0 10 0;
#X connect 10 0 8 1;
#X connect 11 0 12 0;
#X connect 11 1 13 0;
#X connect 11 2 8 0;
#X connect 11 3 9 0;
#X connect 12 1 0 0;
#X connect 13 0 14 0;
#X connect 14 0 12 1;
#X connect 15 0 18 0;
#X connect 18 0 19 0;
#X connect 18 1 0 0;
#X restore 322 288 pd list-drip;
#X msg 396 340 add2 \$1;
#X msg 322 340 addcomma;
#X obj 322 314 t b f;
#X msg 299 143 240 71 127 21;
#X msg 402 949 240 \, 71 \, 127 \, 21 \, 27 \, 0 \, 69 \, 0 \, 49 \,
48 \, 49 \, 32 \, 32 \, 32 \, 32 \, 32 \, 32 \, 32 \, 32 \, 32 \, 32
\, 32 \, 32 \, 32 \, 32 \, 32 \, 32 \, 32 \, 32 \, 32 \, 32 \, 32 \,
32 \, 32 \, 32 \, 32 \, 32 \, 32 \, 32 \, 32 \, 32 \, 32 \, 32 \, 32
\, 32 \, 32 \, 32 \, 32 \, 32 \, 32 \, 32 \, 32 \, 32 \, 32 \, 32 \,
32 \, 32 \, 32 \, 32 \, 32 \, 32 \, 32 \, 32 \, 32 \, 32 \, 32 \, 32
\, 32 \, 32 \, 32 \, 32 \, 32 \, 32 \, 32 \, 32 \, 32 \, 247;
#X msg 248 340 add2 \$1;
#X obj 532 115 vradio 11 0 1 4 empty empty empty 32 5 1 10 -262144
-1 -1 3;
#X obj 216 278 + 24;
#X obj 216 251 f;
#N canvas 1535 452 785 567 list-drip 0;
#X obj 73 94 t a a;
#X obj 73 251 spigot;
#X obj 112 159 bang;
#X obj 112 178 1;
#X obj 233 159 route bang;
#X obj 193 160 bang;
#X obj 193 179 0;
#X obj 112 124 list split 2;
#X obj 242 389 list split;
#X obj 309 338 list length;
#X obj 309 360 >> 1;
#X obj 73 270 t a a a a;
#X obj 73 456 list split;
#X obj 140 408 list length;
#X obj 140 433 >> 1;
#X obj 41 29 inlet;
#X obj 300 185 outlet;
#X text 83 29 Copyright 2009 by Mathieu Bouchard;
#X obj 41 63 t b a;
#X obj 475 129 outlet;
#X text 530 131 signal end of list;
#X text 391 33 made compatible with [list-drip]: fbar 2009;
#X connect 0 0 1 0;
#X connect 0 1 7 0;
#X connect 1 0 11 0;
#X connect 2 0 3 0;
#X connect 3 0 1 1;
#X connect 4 1 16 0;
#X connect 5 0 6 0;
#X connect 6 0 1 1;
#X connect 7 0 2 0;
#X connect 7 2 4 0;
#X connect 7 2 5 0;
#X connect 8 0 0 0;
#X connect 9 0 10 0;
#X connect 10 0 8 1;
#X connect 11 0 12 0;
#X connect 11 1 13 0;
#X connect 11 2 8 0;
#X connect 11 3 9 0;
#X connect 12 1 0 0;
#X connect 13 0 14 0;
#X connect 14 0 12 1;
#X connect 15 0 18 0;
#X connect 18 0 19 0;
#X connect 18 1 0 0;
#X restore 157 610 pd list-drip;
#X msg 233 662 add2 \$1;
#X msg 157 662 addcomma;
#X obj 157 636 t b f;
#X msg 97 342 0 69 0;
#X msg 463 340 set;
#X text 175 278 Line;
#X text 61 343 ???;
#X msg 678 368 add2 \$1;
#X msg 601 368 addcomma;
#X msg 601 410;
#X msg 748 368 set;
#X obj 1071 366 f;
#X floatatom 1071 420 5 0 0 0 - - -, f 5;
#X obj 1113 366 + 1;
#X msg 1089 337 0;
#X obj 1071 340 bng 15 250 50 0 empty empty empty 17 7 0 10 -262144
-1 -1;
#X obj 1071 393 + 1;
#N canvas 1535 452 785 567 list-drip 0;
#X obj 73 94 t a a;
#X obj 73 251 spigot;
#X obj 112 159 bang;
#X obj 112 178 1;
#X obj 233 159 route bang;
#X obj 193 160 bang;
#X obj 193 179 0;
#X obj 112 124 list split 2;
#X obj 242 389 list split;
#X obj 309 338 list length;
#X obj 309 360 >> 1;
#X obj 73 270 t a a a a;
#X obj 73 456 list split;
#X obj 140 408 list length;
#X obj 140 433 >> 1;
#X obj 41 29 inlet;
#X obj 300 185 outlet;
#X text 83 29 Copyright 2009 by Mathieu Bouchard;
#X obj 41 63 t b a;
#X obj 475 129 outlet;
#X text 530 131 signal end of list;
#X text 391 33 made compatible with [list-drip]: fbar 2009;
#X connect 0 0 1 0;
#X connect 0 1 7 0;
#X connect 1 0 11 0;
#X connect 2 0 3 0;
#X connect 3 0 1 1;
#X connect 4 1 16 0;
#X connect 5 0 6 0;
#X connect 6 0 1 1;
#X connect 7 0 2 0;
#X connect 7 2 4 0;
#X connect 7 2 5 0;
#X connect 8 0 0 0;
#X connect 9 0 10 0;
#X connect 10 0 8 1;
#X connect 11 0 12 0;
#X connect 11 1 13 0;
#X connect 11 2 8 0;
#X connect 11 3 9 0;
#X connect 12 1 0 0;
#X connect 13 0 14 0;
#X connect 14 0 12 1;
#X connect 15 0 18 0;
#X connect 18 0 19 0;
#X connect 18 1 0 0;
#X restore 601 608 pd list-drip;
#X msg 676 660 add2 \$1;
#X msg 601 660 addcomma;
#X obj 601 634 t b f;
#X obj 1071 446 - 68;
#X obj 1071 540 abs;
#X floatatom 1071 568 5 0 0 0 - - -, f 5;
#X obj 1071 625 until;
#X obj 1071 711 list cat;
#X msg 1124 683 clear;
#X msg 1071 653 32;
#X msg 1144 763 add2 \$1;
#X msg 1071 763 addcomma;
#X msg 1071 814, f 70;
#X msg 1210 763 set;
#X obj 1039 597 float;
#X obj 1039 571 bng 15 250 50 0 empty empty empty 17 7 0 10 -262144
-1 -1;
#X text 1116 420 Text length;
#X text 1116 568 DIfference to 68;
#X text 989 654 Add spaces;
#X obj 601 334 t b f;
#X text 1244 763 Clear message;
#X text 1170 683 Reset list;
#X text 1124 337 Reset counter;
#X text 496 340 Clear message;
#X text 785 368 Clear message;
#X obj 299 173 t b a b b b, f 14;
#X obj 526 184 bng 15 250 50 0 \$0-reset empty empty 17 7 0 10 -258625
-1 -1;
#X obj 1089 314 bng 15 250 50 0 empty \$0-reset empty 17 7 0 10 -258625
-1 -1;
#X obj 1124 657 bng 15 250 50 0 empty \$0-reset empty 17 7 0 10 -258625
-1 -1;
#X obj 1210 739 bng 15 250 50 0 empty \$0-reset empty 17 7 0 10 -258625
-1 -1;
#X obj 748 341 bng 15 250 50 0 empty \$0-reset empty 17 7 0 10 -258625
-1 -1;
#X text 602 223 The text;
#X text 551 182 Reset messages etc;
#X obj 1071 737 t b b f;
#X obj 97 791 t b b;
#X msg 129 817 add2 247;
#X text 199 817 End Sysex;
#X text 409 143 Start Sysex;
#X obj 97 372 t b b b a;
#X obj 402 1058 midiout;
#X msg 179 340 addcomma;
#X obj 216 305 t b b f;
#X msg 601 250 80;
#X floatatom 896 127 5 0 0 0 - - -, f 5;
#X msg 737 216 set \$1;
#X symbolatom 817 127 10 0 0 0 - - -, f 10;
#X obj 817 155 route symbol float;
#X symbolatom 817 184 10 0 0 0 - - -, f 10;
#X floatatom 896 184 5 0 0 0 - - -, f 5;
#X obj 532 71 inlet line selector;
#X msg 1178 193 set \$1;
#X symbolatom 1182 146 10 0 0 0 - - -, f 10;
#X floatatom 1287 143 5 0 0 0 - - -, f 5;
#X obj 1211 250 spell;
#X msg 1211 224 METIS;
#X msg 1375 317 add2 \$1;
#X msg 1298 317 addcomma;
#X msg 1298 359;
#X msg 1445 317 set;
#X obj 1298 283 t b f;
#X obj 1445 290 bng 15 250 50 0 empty \$0-reset empty 17 7 0 10 -258625
-1 -1;
#X obj 1136 222 bng 15 250 50 0 empty empty empty 17 7 0 10 -262144
-1 -1;
#X obj 1145 963 hradio 15 0 0 4 empty empty empty 0 -8 0 10 -262144
-1 -1 0;
#X floatatom 1145 1016 5 0 0 0 - - -, f 5;
#X obj 1145 987 * 17;
#X obj 895 919 vradio 11 0 1 4 empty empty empty 32 5 1 10 -262144
-1 -1 0;
#X obj 55 898 hsl 128 15 0 127 0 0 empty empty empty -2 -8 0 10 -262144
-1 -1 0 1;
#X msg 55 917 240 \, 71 \, 127 \, 21 \, 122 \, 0 \, 1 \, \$1 \, 247
;
#X floatatom 895 1001 5 0 0 0 - - -, f 5;
#X obj 55 1003 hsl 128 15 0 127 0 0 empty empty empty -2 -8 0 10 -262144
-1 -1 0 1;
#X msg 55 1022 240 \, 71 \, 127 \, 21 \, 124 \, 0 \, 1 \, \$1 \, 247
;
#X msg 895 1029 240 \, 71 \, 127 \, 21 \, \$1 \, 0 \, 0 \, 247;
#X msg 1165 1044 240 \, 71 \, 127 \, 21 \, 26 \, 0 \, 6 \, \$1 \, 116
\, 101 \, 115 \, 116 \, 101 \, 247;
#X obj 895 972 + 28;
#X text 55 979 Brightness;
#X text 55 874 Contrast;
#X text 1216 963 Write to blocks;
#X text 917 919 Clear whole lines;
#X obj 1195 1084 hradio 15 0 0 8 empty empty empty 0 -8 0 10 -262144
-1 -1 0;
#X floatatom 1195 1137 5 0 0 0 - - -, f 5;
#X obj 1195 1108 * 2;
#X text 1326 1084 Write to subdivisions of blocks;
#X floatatom 1145 1137 5 0 0 0 - - -, f 5;
#X obj 1177 1175 +;
#X msg 1177 1205 240 \, 71 \, 127 \, 21 \, 26 \, 0 \, 6 \, \$1 \, 77
\, 69 \, 84 \, 73 \, 83 \, 247;
#X connect 0 0 7 0;
#X connect 1 0 76 0;
#X connect 2 0 29 0;
#X connect 2 0 51 0;
#X connect 3 0 6 0;
#X connect 4 0 8 0;
#X connect 5 0 8 0;
#X connect 6 0 5 0;
#X connect 6 1 4 0;
#X connect 7 0 57 0;
#X connect 8 0 71 0;
#X connect 9 0 8 0;
#X connect 10 0 12 1;
#X connect 11 0 73 0;
#X connect 12 0 11 0;
#X connect 13 0 16 0;
#X connect 14 0 8 0;
#X connect 15 0 8 0;
#X connect 16 0 15 0;
#X connect 16 1 14 0;
#X connect 17 0 70 0;
#X connect 18 0 8 0;
#X connect 21 0 23 0;
#X connect 22 0 23 0;
#X connect 23 0 31 0;
#X connect 24 0 23 0;
#X connect 25 0 27 0;
#X connect 25 0 30 0;
#X connect 26 0 35 0;
#X connect 27 0 25 1;
#X connect 28 0 25 1;
#X connect 29 0 25 0;
#X connect 30 0 26 0;
#X connect 31 0 34 0;
#X connect 32 0 8 0;
#X connect 33 0 8 0;
#X connect 34 0 33 0;
#X connect 34 1 32 0;
#X connect 35 0 36 0;
#X connect 36 0 37 0;
#X connect 37 0 46 1;
#X connect 38 0 41 0;
#X connect 39 0 65 0;
#X connect 40 0 39 1;
#X connect 41 0 39 0;
#X connect 42 0 44 0;
#X connect 42 0 8 0;
#X connect 43 0 44 0;
#X connect 43 0 8 0;
#X connect 45 0 44 0;
#X connect 46 0 38 0;
#X connect 47 0 46 0;
#X connect 51 0 22 0;
#X connect 51 1 21 0;
#X connect 57 0 12 0;
#X connect 57 1 3 0;
#X connect 57 2 18 0;
#X connect 57 3 74 0;
#X connect 57 4 58 0;
#X connect 59 0 28 0;
#X connect 60 0 40 0;
#X connect 61 0 45 0;
#X connect 62 0 24 0;
#X connect 65 1 43 0;
#X connect 65 2 42 0;
#X connect 66 0 8 0;
#X connect 66 1 67 0;
#X connect 67 0 8 0;
#X connect 70 0 66 0;
#X connect 70 1 47 0;
#X connect 70 2 23 0;
#X connect 70 3 13 0;
#X connect 72 0 8 0;
#X connect 73 0 17 0;
#X connect 73 1 72 0;
#X connect 73 2 9 0;
#X connect 74 0 2 0;
#X connect 75 0 78 0;
#X connect 76 0 74 0;
#X connect 77 0 78 0;
#X connect 78 0 79 0;
#X connect 78 1 80 0;
#X connect 79 0 76 0;
#X connect 80 0 76 0;
#X connect 81 0 10 0;
#X connect 82 0 86 0;
#X connect 82 0 93 0;
#X connect 83 0 82 0;
#X connect 84 0 82 0;
#X connect 85 0 91 0;
#X connect 86 0 85 0;
#X connect 87 0 89 0;
#X connect 88 0 89 0;
#X connect 90 0 89 0;
#X connect 91 0 88 0;
#X connect 91 1 87 0;
#X connect 92 0 90 0;
#X connect 93 0 86 0;
#X connect 94 0 96 0;
#X connect 95 0 114 0;
#X connect 95 0 104 0;
#X connect 96 0 95 0;
#X connect 97 0 105 0;
#X connect 98 0 99 0;
#X connect 99 0 71 0;
#X connect 100 0 103 0;
#X connect 101 0 102 0;
#X connect 102 0 71 0;
#X connect 103 0 71 0;
#X connect 105 0 100 0;
#X connect 110 0 112 0;
#X connect 111 0 115 1;
#X connect 112 0 111 0;
#X connect 114 0 115 0;
#X connect 115 0 116 0;
#X connect 116 0 71 0;
#X restore 610 309 pd pushsysex;
#X floatatom 713 187 5 0 0 0 - - -, f 5;
#X text 317 348 Note (Pad);
#X text 317 378 Velocity (Color);
#X text 317 408 Channel (Animation);
#N canvas 1179 448 942 352 pushpadcontrol 0;
#X obj 264 54 inlet pad;
#X obj 364 54 inlet color;
#X obj 474 54 inlet led anim;
#X floatatom 96 145 3 0 0 0 - - -, f 3;
#X obj 73 54 notein;
#X floatatom 74 277 2 0 0 0 - - -, f 2;
#X obj 74 311 noteout;
#X msg 186 218 0;
#X obj 110 263 bng 15 250 50 0 empty empty empty 17 7 0 10 -262144
-1 -1;
#X floatatom 258 218 5 0 16 0 - - -, f 5;
#X floatatom 146 145 5 0 0 0 - - -, f 5;
#X obj 96 121 bng 15 250 50 0 empty empty empty 17 7 0 10 -262144 -1
-1;
#X floatatom 106 94 5 0 0 0 - - -, f 5;
#X floatatom 146 94 5 0 0 0 - - -, f 5;
#X floatatom 186 94 5 0 0 0 - - -, f 5;
#X obj 594 54 inlet reset color;
#X obj 734 54 inlet base color;
#X obj 96 177 +;
#X connect 0 0 5 0;
#X connect 1 0 3 0;
#X connect 1 0 8 0;
#X connect 2 0 9 0;
#X connect 3 0 17 0;
#X connect 4 0 5 0;
#X connect 4 0 12 0;
#X connect 4 1 11 0;
#X connect 4 1 13 0;
#X connect 4 2 14 0;
#X connect 5 0 6 0;
#X connect 7 0 6 1;
#X connect 7 0 8 0;
#X connect 8 0 5 0;
#X connect 9 0 6 2;
#X connect 9 0 8 0;
#X connect 10 0 17 1;
#X connect 11 0 3 0;
#X connect 15 0 7 0;
#X connect 16 0 10 0;
#X connect 17 0 6 1;
#X restore 76 505 pd pushpadcontrol;
#X obj 163 475 bng 15 250 50 0 empty empty empty 17 7 0 10 -262144
-1 -1;
#X floatatom 192 475 5 0 0 0 - - -, f 5;
#X obj 163 412 hradio 9 0 1 16 empty empty empty 0 -8 0 10 -262144
-1 -1 0;
#X obj 163 438 + 1;
#X text 188 44 Lightshow!;
#N canvas 1494 280 241 316 pushencoder 0;
#X obj 65 36 ctlin;
#X obj 117 156 f;
#X obj 65 156 +;
#X obj 65 90 moses 64;
#X obj 118 119 - 128;
#X floatatom 65 224 5 0 0 0 - - -, f 5;
#X obj 65 189 clip 0 127;
#X obj 65 252 outlet value;
#X floatatom 16 134 5 0 0 0 - - -, f 5;
#X floatatom 177 119 5 0 0 0 - - -, f 5;
#X floatatom 177 156 5 0 0 0 - - -, f 5;
#X floatatom 16 190 5 0 0 0 - - -, f 5;
#X floatatom 16 72 5 0 0 0 - - -, f 5;
#X connect 0 0 3 0;
#X connect 0 0 12 0;
#X connect 1 0 2 1;
#X connect 2 0 6 0;
#X connect 2 0 11 0;
#X connect 3 0 2 0;
#X connect 3 0 8 0;
#X connect 3 1 4 0;
#X connect 3 1 9 0;
#X connect 4 0 2 0;
#X connect 4 0 10 0;
#X connect 5 0 7 0;
#X connect 6 0 1 0;
#X connect 6 0 5 0;
#X restore 610 89 pd pushencoder;
#X obj 613 45 hradio 13 0 1 8 empty empty encoder\ bank 0 -8 1 8 -262144
-1 -1 1;
#N canvas 562 78 335 375 debounce 0;
#X obj 49 72 inlet value;
#X obj 202 72 inlet delay;
#X obj 49 267 outlet;
#X floatatom 202 161 5 0 0 0 - - -, f 5;
#X obj 49 104 spigot 1;
#X msg 141 167 0;
#X msg 142 217 1;
#X obj 49 130 t a b b;
#X obj 142 192 delay 100;
#X connect 0 0 4 0;
#X connect 1 0 3 0;
#X connect 3 0 8 1;
#X connect 4 0 7 0;
#X connect 5 0 4 1;
#X connect 6 0 4 1;
#X connect 7 0 2 0;
#X connect 7 1 8 0;
#X connect 7 2 5 0;
#X connect 8 0 6 0;
#X restore 610 216 pd debounce;
#N canvas 710 338 1088 303 tests 0;
#X obj 898 197 sysexin;
#X obj 898 226 print;
#X obj 520 156 makefilename %X;
#X obj 520 214 print hex;
#X floatatom 520 128 5 0 255 0 - - -, f 5;
#X obj 520 104 hsl 128 15 0 127 0 0 empty empty empty -2 -8 0 10 -262144
-1 -1 0 1;
#X obj 520 185 route symbol;
#X obj 730 112 symbol2list;
#X obj 940 114 atoi;
#X obj 730 170 print;
#X msg 730 83 symbol Ingo;
#X msg 837 83 symbol;
#X obj 730 141 route list;
#X obj 940 143 print atoi;
#X floatatom 940 86 5 0 0 0 - - -, f 5;
#X obj 384 144 list cat;
#X obj 384 173 print cat;
#X msg 448 117 clear;
#X obj 384 86 t a b;
#X obj 313 200 bng 15 250 50 0 empty empty empty 17 7 0 10 -262144
-1 -1;
#X obj 313 245 print just list;
#X obj 384 115 ascseq 1;
#X obj 313 220 list prepend;
#X obj 192 147 list fromsymbol;
#X obj 192 174 print froms;
#X symbolatom 192 121 10 0 0 0 - - -, f 10;
#X obj 192 94 symbol;
#X msg 384 57 Ingo test;
#X obj 61 192 list cat;
#X obj 61 221 print cat;
#X msg 192 67 Ingo test;
#X obj 61 163 spell;
#X msg 117 163 clear;
#X obj 61 134 t a b;
#X msg 61 105 Hello World!;
#X msg 338 195 test;
#X floatatom 334 170 5 0 0 0 - - -, f 5;
#X obj 733 227 prepend_ascii 97;
#X connect 2 0 6 0;
#X connect 4 0 2 0;
#X connect 5 0 4 0;
#X connect 6 0 3 0;
#X connect 7 0 12 0;
#X connect 8 0 13 0;
#X connect 10 0 7 0;
#X connect 11 0 7 1;
#X connect 12 0 9 0;
#X connect 14 0 8 0;
#X connect 15 0 16 0;
#X connect 17 0 15 1;
#X connect 18 0 21 0;
#X connect 18 1 17 0;
#X connect 19 0 22 0;
#X connect 21 0 15 0;
#X connect 22 0 20 0;
#X connect 23 0 24 0;
#X connect 25 0 23 0;
#X connect 26 0 25 0;
#X connect 27 0 18 0;
#X connect 28 0 29 0;
#X connect 30 0 26 0;
#X connect 31 0 28 0;
#X connect 32 0 28 1;
#X connect 33 0 31 0;
#X connect 33 1 32 0;
#X connect 34 0 33 0;
#X connect 35 0 22 0;
#X connect 36 0 22 0;
#X restore 764 472 pd tests;
#X obj 650 253 vradio 11 0 1 4 empty empty line 0 -6 1 8 -262144 -1
-1 3;
#X floatatom 656 418 3 0 0 0 - - -, f 3;
#X floatatom 626 417 3 0 0 0 - - -, f 3;
#X obj 626 392 ctlin;
#X obj 626 439 bng 20 250 50 0 empty empty empty 17 7 0 10 -262144
-1 -1;
#X floatatom 686 418 3 0 0 0 - - -, f 3;
#N canvas 1288 163 1269 892 pushbuttonlights 0;
#X obj 627 779 ctlout;
#X msg 932 632 127 44 \, 127 45 \, 127 46 \, 127 47, f 9;
#X obj 633 721 unpack f f;
#X msg 1017 632 0 44 \, 0 45 \, 0 46 \, 0 47, f 6;
#X text 938 598 arrows;
#X text 836 532 divisions;
#X text 427 557 play rec etc;
#X msg 438 585 127 85 \, 127 86 \, 127 87 \, 127 88 \, 127 89 \, 127
90 \,, f 9;
#X msg 927 249 127 54 \, 127 55 \, 127 56 \, 127 57 \, 127 58 \, 127
59 \, 127 60 \, 127 61 \, 127 62 \, 127 63 \,, f 9;
#X msg 937 467 127 48 \, 127 49 \, 127 50 \, 127 51 \, 127 52 \, 127
53 \,, f 8;
#X text 935 429 note session etc;
#X msg 926 101 127 110 \, 127 111 \, 127 112 \, 127 113 \, 127 114
\, 127 115 \,, f 9;
#X text 925 71 volume browse etc;
#X text 928 222 scales octave etc;
#X msg 840 248 127 29 \, 127 28 \,, f 9;
#X text 837 219 master stop;
#X msg 693 269 127 102 \, 127 103 \, 127 104 \, 127 105 \, 127 106
\, 127 107 \, 127 108 \, 127 109 \,, f 9;
#X text 690 243 track on off;
#X msg 697 83 127 20 \, 127 21 \, 127 22 \, 127 23 \, 127 24 \, 127
25 \, 127 26 \, 127 27 \,, f 9;
#X text 694 58 track select;
#X text 772 123 special led anim patterns, f 13;
#X msg 434 455 127 116 \, 127 117 \, 127 118 \, 127 119, f 9;
#X text 420 425 undo quantize etc;
#X msg 429 139 127 3 \, 127 9 \,, f 9;
#X obj 288 69 loadbang;
#X msg 158 673 240 \, 71 \, 127 \, 21 \, 98 \, 0 \, 1 \, 0 \, 247;
#X obj 130 727 midiout;
#X msg 158 608 240 \, 71 \, 127 \, 21 \, 98 \, 0 \, 1 \, 1 \, 247;
#X text 199 647 ableton mode;
#X text 188 579 user mode, f 13;
#X obj 237 69 inlet;
#X msg 833 560 127 36 \, 127 37 \, 127 38 \, 127 39 \, 127 40 \, 127
41 \, 127 42 \, 127 43 \,, f 9;
#X floatatom 240 815 5 0 0 0 - - -, f 5;
#X obj 240 762 hsl 128 15 0 7 0 1 empty empty empty -2 -8 0 10 -262144
-1 -1 11200 1;
#X obj 240 786 int;
#X text 426 110 tap tempo \, metronome;
#X floatatom 723 753 5 1 16 0 - - -, f 5;
#X obj 808 770 hradio 15 0 0 16 empty empty empty 0 -8 0 10 -262144
-1 -1 0;
#X floatatom 808 823 5 0 0 0 - - -, f 5;
#X obj 808 794 + 1;
#X obj 240 843 pack 0 85;
#X text 240 734 blink play button;
#X floatatom 391 815 5 0 0 0 - - -, f 5;
#X obj 391 762 hsl 128 15 0 7 0 1 empty empty empty -2 -8 0 10 -262144
-1 -1 11750 1;
#X obj 391 786 int;
#X obj 391 843 pack 0 86;
#X text 391 734 blink rec button;
#X connect 1 0 2 0;
#X connect 2 0 0 0;
#X connect 2 1 0 1;
#X connect 3 0 2 0;
#X connect 7 0 2 0;
#X connect 8 0 2 0;
#X connect 9 0 2 0;
#X connect 11 0 2 0;
#X connect 14 0 2 0;
#X connect 16 0 2 0;
#X connect 18 0 2 0;
#X connect 21 0 2 0;
#X connect 23 0 2 0;
#X connect 24 0 23 0;
#X connect 24 0 21 0;
#X connect 24 0 18 0;
#X connect 24 0 16 0;
#X connect 24 0 14 0;
#X connect 24 0 11 0;
#X connect 24 0 9 0;
#X connect 24 0 8 0;
#X connect 24 0 7 0;
#X connect 24 0 31 0;
#X connect 24 0 1 0;
#X connect 24 0 27 0;
#X connect 25 0 26 0;
#X connect 27 0 26 0;
#X connect 30 0 23 0;
#X connect 30 0 21 0;
#X connect 30 0 18 0;
#X connect 30 0 16 0;
#X connect 30 0 14 0;
#X connect 30 0 11 0;
#X connect 30 0 9 0;
#X connect 30 0 8 0;
#X connect 30 0 7 0;
#X connect 30 0 31 0;
#X connect 30 0 3 0;
#X connect 30 0 1 0;
#X connect 30 0 27 0;
#X connect 31 0 2 0;
#X connect 32 0 40 0;
#X connect 33 0 34 0;
#X connect 34 0 32 0;
#X connect 36 0 0 2;
#X connect 37 0 39 0;
#X connect 38 0 36 0;
#X connect 39 0 38 0;
#X connect 40 0 2 0;
#X connect 42 0 45 0;
#X connect 43 0 44 0;
#X connect 44 0 42 0;
#X connect 45 0 2 0;
#X restore 792 635 pd pushbuttonlights;
#X obj 90 295 f;
#X obj 128 295 + 1;
#X obj 90 325 mod 127;
#X obj 35 295 sel 0;
#X obj 35 325 bng 15 250 50 0 empty empty empty 17 7 0 10 -262144 -1
-1;
#X floatatom 90 355 5 0 0 0 - - -, f 5;
#X obj 35 263 mod 8;
#X floatatom 67 207 5 0 0 0 - - -, f 5;
#X obj 792 608 bng 15 250 50 0 empty empty empty 17 7 0 10 -262144
-1 -1;
#X obj 656 502 sel 85;
#X obj 656 531 bng 15 250 50 0 empty empty empty 17 7 0 10 -262144
-1 -1;
#X obj 524 462 sel 127;
#X obj 524 491 bng 15 250 50 0 empty empty empty 17 7 0 10 -262144
-1 -1;
#X obj 417 525 t b b;
#X obj 476 564 f 0;
#X obj 508 564 == 0;
#X obj 417 614 spigot;
#X obj 475 614 spigot;
#X obj 417 643 bng 15 250 50 0 empty empty empty 17 7 0 10 -262144
-1 -1;
#X obj 475 643 bng 15 250 50 0 empty empty empty 17 7 0 10 -262144
-1 -1;
#X obj 292 73 / 4;
#X floatatom 292 101 5 0 0 0 - - -, f 5;
#X obj 292 45 r ms;
#X obj 108 124 r run;
#X obj 67 235 * 1;
#X msg 292 183 0;
#X obj 163 183 metro;
#X floatatom 207 438 5 0 0 0 - - -, f 5;
#X msg 38 381 1;
#X msg 38 407 96;
#X obj 244 573 osc~ 440;
#X obj 221 635 dac~;
#X obj 610 129 hsl 128 15 0 127 0 0 empty empty empty -2 -8 0 10 -262144
-1 -1 8000 1;
#X obj 610 153 int;
#X msg 713 157 0;
#X msg 750 157 100;
#X obj 594 261 del 20;
#N canvas 562 78 335 375 debounce 0;
#X obj 49 72 inlet value;
#X obj 202 72 inlet delay;
#X obj 49 267 outlet;
#X floatatom 202 161 5 0 0 0 - - -, f 5;
#X obj 49 104 spigot 1;
#X msg 141 167 0;
#X msg 142 217 1;
#X obj 49 130 t a b b;
#X obj 142 192 delay 100;
#X connect 0 0 4 0;
#X connect 1 0 3 0;
#X connect 3 0 8 1;
#X connect 4 0 7 0;
#X connect 5 0 4 1;
#X connect 6 0 4 1;
#X connect 7 0 2 0;
#X connect 7 1 8 0;
#X connect 7 2 5 0;
#X connect 8 0 6 0;
#X restore 739 231 pd debounce;
#X obj 235 601 *~ 0.3;
#X floatatom 310 600 5 0 0 0 - - -, f 5;
#N canvas 1046 124 1436 1105.97 pushsysex 0;
#X obj 299 71 inlet refresh;
#X obj 737 71 inlet text value;
#X obj 601 276 spell;
#N canvas 1535 452 785 567 list-drip 0;
#X obj 73 94 t a a;
#X obj 73 251 spigot;
#X obj 112 159 bang;
#X obj 112 178 1;
#X obj 233 159 route bang;
#X obj 193 160 bang;
#X obj 193 179 0;
#X obj 112 124 list split 2;
#X obj 242 389 list split;
#X obj 309 338 list length;
#X obj 309 360 >> 1;
#X obj 73 270 t a a a a;
#X obj 73 456 list split;
#X obj 140 408 list length;
#X obj 140 433 >> 1;
#X obj 41 29 inlet;
#X obj 300 185 outlet;
#X text 83 29 Copyright 2009 by Mathieu Bouchard;
#X obj 41 63 t b a;
#X obj 475 129 outlet;
#X text 530 131 signal end of list;
#X text 391 33 made compatible with [list-drip]: fbar 2009;
#X connect 0 0 1 0;
#X connect 0 1 7 0;
#X connect 1 0 11 0;
#X connect 2 0 3 0;
#X connect 3 0 1 1;
#X connect 4 1 16 0;
#X connect 5 0 6 0;
#X connect 6 0 1 1;
#X connect 7 0 2 0;
#X connect 7 2 4 0;
#X connect 7 2 5 0;
#X connect 8 0 0 0;
#X connect 9 0 10 0;
#X connect 10 0 8 1;
#X connect 11 0 12 0;
#X connect 11 1 13 0;
#X connect 11 2 8 0;
#X connect 11 3 9 0;
#X connect 12 1 0 0;
#X connect 13 0 14 0;
#X connect 14 0 12 1;
#X connect 15 0 18 0;
#X connect 18 0 19 0;
#X connect 18 1 0 0;
#X restore 322 288 pd list-drip;
#X msg 396 340 add2 \$1;
#X msg 322 340 addcomma;
#X obj 322 314 t b f;
#X msg 299 143 240 71 127 21;
#X msg 402 949 240 \, 71 \, 127 \, 21 \, 26 \, 0 \, 69 \, 0 \, 56 \,
48 \, 32 \, 32 \, 32 \, 32 \, 32 \, 32 \, 32 \, 32 \, 32 \, 32 \, 32
\, 32 \, 32 \, 32 \, 32 \, 32 \, 32 \, 32 \, 32 \, 32 \, 32 \, 32 \,
32 \, 32 \, 32 \, 32 \, 32 \, 32 \, 32 \, 32 \, 32 \, 32 \, 32 \, 32
\, 32 \, 32 \, 32 \, 32 \, 32 \, 32 \, 32 \, 32 \, 32 \, 32 \, 32 \,
32 \, 32 \, 32 \, 32 \, 32 \, 32 \, 32 \, 32 \, 32 \, 32 \, 32 \, 32
\, 32 \, 32 \, 32 \, 32 \, 32 \, 32 \, 32 \, 32 \, 32 \, 247;
#X msg 248 340 add2 \$1;
#X obj 532 115 vradio 11 0 1 4 empty empty empty 32 5 1 10 -262144
-1 -1 2;
#X obj 216 278 + 24;
#X obj 216 251 f;
#N canvas 1535 452 785 567 list-drip 0;
#X obj 73 94 t a a;
#X obj 73 251 spigot;
#X obj 112 159 bang;
#X obj 112 178 1;
#X obj 233 159 route bang;
#X obj 193 160 bang;
#X obj 193 179 0;
#X obj 112 124 list split 2;
#X obj 242 389 list split;
#X obj 309 338 list length;
#X obj 309 360 >> 1;
#X obj 73 270 t a a a a;
#X obj 73 456 list split;
#X obj 140 408 list length;
#X obj 140 433 >> 1;
#X obj 41 29 inlet;
#X obj 300 185 outlet;
#X text 83 29 Copyright 2009 by Mathieu Bouchard;
#X obj 41 63 t b a;
#X obj 475 129 outlet;
#X text 530 131 signal end of list;
#X text 391 33 made compatible with [list-drip]: fbar 2009;
#X connect 0 0 1 0;
#X connect 0 1 7 0;
#X connect 1 0 11 0;
#X connect 2 0 3 0;
#X connect 3 0 1 1;
#X connect 4 1 16 0;
#X connect 5 0 6 0;
#X connect 6 0 1 1;
#X connect 7 0 2 0;
#X connect 7 2 4 0;
#X connect 7 2 5 0;
#X connect 8 0 0 0;
#X connect 9 0 10 0;
#X connect 10 0 8 1;
#X connect 11 0 12 0;
#X connect 11 1 13 0;
#X connect 11 2 8 0;
#X connect 11 3 9 0;
#X connect 12 1 0 0;
#X connect 13 0 14 0;
#X connect 14 0 12 1;
#X connect 15 0 18 0;
#X connect 18 0 19 0;
#X connect 18 1 0 0;
#X restore 157 610 pd list-drip;
#X msg 233 662 add2 \$1;
#X msg 157 662 addcomma;
#X obj 157 636 t b f;
#X msg 97 342 0 69 0;
#X msg 463 340 set;
#X text 175 278 Line;
#X text 61 343 ???;
#X msg 678 368 add2 \$1;
#X msg 601 368 addcomma;
#X msg 601 410 56 \, 48 \,;
#X msg 748 368 set;
#X obj 1071 366 f;
#X floatatom 1071 420 5 0 0 0 - - -, f 5;
#X obj 1113 366 + 1;
#X msg 1089 337 0;
#X obj 1071 340 bng 15 250 50 0 empty empty empty 17 7 0 10 -262144
-1 -1;
#X obj 1071 393 + 1;
#N canvas 1535 452 785 567 list-drip 0;
#X obj 73 94 t a a;
#X obj 73 251 spigot;
#X obj 112 159 bang;
#X obj 112 178 1;
#X obj 233 159 route bang;
#X obj 193 160 bang;
#X obj 193 179 0;
#X obj 112 124 list split 2;
#X obj 242 389 list split;
#X obj 309 338 list length;
#X obj 309 360 >> 1;
#X obj 73 270 t a a a a;
#X obj 73 456 list split;
#X obj 140 408 list length;
#X obj 140 433 >> 1;
#X obj 41 29 inlet;
#X obj 300 185 outlet;
#X text 83 29 Copyright 2009 by Mathieu Bouchard;
#X obj 41 63 t b a;
#X obj 475 129 outlet;
#X text 530 131 signal end of list;
#X text 391 33 made compatible with [list-drip]: fbar 2009;
#X connect 0 0 1 0;
#X connect 0 1 7 0;
#X connect 1 0 11 0;
#X connect 2 0 3 0;
#X connect 3 0 1 1;
#X connect 4 1 16 0;
#X connect 5 0 6 0;
#X connect 6 0 1 1;
#X connect 7 0 2 0;
#X connect 7 2 4 0;
#X connect 7 2 5 0;
#X connect 8 0 0 0;
#X connect 9 0 10 0;
#X connect 10 0 8 1;
#X connect 11 0 12 0;
#X connect 11 1 13 0;
#X connect 11 2 8 0;
#X connect 11 3 9 0;
#X connect 12 1 0 0;
#X connect 13 0 14 0;
#X connect 14 0 12 1;
#X connect 15 0 18 0;
#X connect 18 0 19 0;
#X connect 18 1 0 0;
#X restore 601 608 pd list-drip;
#X msg 676 660 add2 \$1;
#X msg 601 660 addcomma;
#X obj 601 634 t b f;
#X obj 1071 446 - 68;
#X obj 1071 540 abs;
#X floatatom 1071 568 5 0 0 0 - - -, f 5;
#X obj 1071 625 until;
#X obj 1071 711 list cat;
#X msg 1124 683 clear;
#X msg 1071 653 32;
#X msg 1144 763 add2 \$1;
#X msg 1071 763 addcomma;
#X msg 1071 814 32 \, 32 \, 32 \, 32 \, 32 \, 32 \, 32 \, 32 \, 32
\, 32 \, 32 \, 32 \, 32 \, 32 \, 32 \, 32 \, 32 \, 32 \, 32 \, 32 \,
32 \, 32 \, 32 \, 32 \, 32 \, 32 \, 32 \, 32 \, 32 \, 32 \, 32 \, 32
\, 32 \, 32 \, 32 \, 32 \, 32 \, 32 \, 32 \, 32 \, 32 \, 32 \, 32 \,
32 \, 32 \, 32 \, 32 \, 32 \, 32 \, 32 \, 32 \, 32 \, 32 \, 32 \, 32
\, 32 \, 32 \, 32 \, 32 \, 32 \, 32 \, 32 \, 32 \, 32 \, 32 \, 32 \,
, f 70;
#X msg 1210 763 set;
#X obj 1039 597 float;
#X obj 1039 571 bng 15 250 50 0 empty empty empty 17 7 0 10 -262144
-1 -1;
#X text 1116 420 Text length;
#X text 1116 568 DIfference to 68;
#X text 989 654 Add spaces;
#X obj 601 334 t b f;
#X text 1244 763 Clear message;
#X text 1170 683 Reset list;
#X text 1124 337 Reset counter;
#X text 496 340 Clear message;
#X text 785 368 Clear message;
#X obj 299 173 t b a b b b, f 14;
#X obj 526 184 bng 15 250 50 0 \$0-reset empty empty 17 7 0 10 -258625
-1 -1;
#X obj 1089 314 bng 15 250 50 0 empty \$0-reset empty 17 7 0 10 -258625
-1 -1;
#X obj 1124 657 bng 15 250 50 0 empty \$0-reset empty 17 7 0 10 -258625
-1 -1;
#X obj 1210 739 bng 15 250 50 0 empty \$0-reset empty 17 7 0 10 -258625
-1 -1;
#X obj 748 341 bng 15 250 50 0 empty \$0-reset empty 17 7 0 10 -258625
-1 -1;
#X text 602 223 The text;
#X text 551 182 Reset messages etc;
#X obj 1071 737 t b b f;
#X obj 97 791 t b b;
#X msg 129 817 add2 247;
#X text 199 817 End Sysex;
#X text 409 143 Start Sysex;
#X obj 97 372 t b b b a;
#X obj 402 1058 midiout;
#X msg 179 340 addcomma;
#X obj 216 305 t b b f;
#X msg 601 250 80;
#X floatatom 896 127 5 0 0 0 - - -, f 5;
#X msg 737 216 set \$1;
#X symbolatom 817 127 10 0 0 0 - - -, f 10;
#X obj 817 155 route symbol float;
#X symbolatom 817 184 10 0 0 0 - - -, f 10;
#X floatatom 896 184 5 0 0 0 - - -, f 5;
#X obj 532 71 inlet line selector;
#X msg 1178 193 set \$1;
#X symbolatom 1182 146 10 0 0 0 - - -, f 10;
#X floatatom 1287 143 5 0 0 0 - - -, f 5;
#X obj 1211 250 spell;
#X msg 1211 224 METIS;
#X msg 1375 317 add2 \$1;
#X msg 1298 317 addcomma;
#X msg 1298 359;
#X msg 1445 317 set;
#X obj 1298 283 t b f;
#X obj 1445 290 bng 15 250 50 0 empty \$0-reset empty 17 7 0 10 -258625
-1 -1;
#X obj 1136 222 bng 15 250 50 0 empty empty empty 17 7 0 10 -262144
-1 -1;
#X obj 1145 963 hradio 15 0 0 4 empty empty empty 0 -8 0 10 -262144
-1 -1 0;
#X floatatom 1145 1016 5 0 0 0 - - -, f 5;
#X obj 1145 987 * 17;
#X obj 895 919 vradio 11 0 1 4 empty empty empty 32 5 1 10 -262144
-1 -1 0;
#X obj 55 898 hsl 128 15 0 127 0 0 empty empty empty -2 -8 0 10 -262144
-1 -1 0 1;
#X msg 55 917 240 \, 71 \, 127 \, 21 \, 122 \, 0 \, 1 \, \$1 \, 247
;
#X floatatom 895 1001 5 0 0 0 - - -, f 5;
#X obj 55 1003 hsl 128 15 0 127 0 0 empty empty empty -2 -8 0 10 -262144
-1 -1 0 1;
#X msg 55 1022 240 \, 71 \, 127 \, 21 \, 124 \, 0 \, 1 \, \$1 \, 247
;
#X msg 895 1029 240 \, 71 \, 127 \, 21 \, \$1 \, 0 \, 0 \, 247;
#X msg 1165 1044 240 \, 71 \, 127 \, 21 \, 26 \, 0 \, 6 \, \$1 \, 116
\, 101 \, 115 \, 116 \, 101 \, 247;
#X obj 895 972 + 28;
#X text 55 979 Brightness;
#X text 55 874 Contrast;
#X text 1216 963 Write to blocks;
#X text 917 919 Clear whole lines;
#X obj 1195 1084 hradio 15 0 0 8 empty empty empty 0 -8 0 10 -262144
-1 -1 0;
#X floatatom 1195 1137 5 0 0 0 - - -, f 5;
#X obj 1195 1108 * 2;
#X text 1326 1084 Write to subdivisions of blocks;
#X floatatom 1145 1137 5 0 0 0 - - -, f 5;
#X obj 1177 1175 +;
#X msg 1177 1205 240 \, 71 \, 127 \, 21 \, 26 \, 0 \, 6 \, \$1 \, 77
\, 69 \, 84 \, 73 \, 83 \, 247;
#X connect 0 0 7 0;
#X connect 1 0 76 0;
#X connect 2 0 29 0;
#X connect 2 0 51 0;
#X connect 3 0 6 0;
#X connect 4 0 8 0;
#X connect 5 0 8 0;
#X connect 6 0 5 0;
#X connect 6 1 4 0;
#X connect 7 0 57 0;
#X connect 8 0 71 0;
#X connect 9 0 8 0;
#X connect 10 0 12 1;
#X connect 11 0 73 0;
#X connect 12 0 11 0;
#X connect 13 0 16 0;
#X connect 14 0 8 0;
#X connect 15 0 8 0;
#X connect 16 0 15 0;
#X connect 16 1 14 0;
#X connect 17 0 70 0;
#X connect 18 0 8 0;
#X connect 21 0 23 0;
#X connect 22 0 23 0;
#X connect 23 0 31 0;
#X connect 24 0 23 0;
#X connect 25 0 27 0;
#X connect 25 0 30 0;
#X connect 26 0 35 0;
#X connect 27 0 25 1;
#X connect 28 0 25 1;
#X connect 29 0 25 0;
#X connect 30 0 26 0;
#X connect 31 0 34 0;
#X connect 32 0 8 0;
#X connect 33 0 8 0;
#X connect 34 0 33 0;
#X connect 34 1 32 0;
#X connect 35 0 36 0;
#X connect 36 0 37 0;
#X connect 37 0 46 1;
#X connect 38 0 41 0;
#X connect 39 0 65 0;
#X connect 40 0 39 1;
#X connect 41 0 39 0;
#X connect 42 0 44 0;
#X connect 42 0 8 0;
#X connect 43 0 44 0;
#X connect 43 0 8 0;
#X connect 45 0 44 0;
#X connect 46 0 38 0;
#X connect 47 0 46 0;
#X connect 51 0 22 0;
#X connect 51 1 21 0;
#X connect 57 0 12 0;
#X connect 57 1 3 0;
#X connect 57 2 18 0;
#X connect 57 3 74 0;
#X connect 57 4 58 0;
#X connect 59 0 28 0;
#X connect 60 0 40 0;
#X connect 61 0 45 0;
#X connect 62 0 24 0;
#X connect 65 1 43 0;
#X connect 65 2 42 0;
#X connect 66 0 8 0;
#X connect 66 1 67 0;
#X connect 67 0 8 0;
#X connect 70 0 66 0;
#X connect 70 1 47 0;
#X connect 70 2 23 0;
#X connect 70 3 13 0;
#X connect 72 0 8 0;
#X connect 73 0 17 0;
#X connect 73 1 72 0;
#X connect 73 2 9 0;
#X connect 74 0 2 0;
#X connect 75 0 78 0;
#X connect 76 0 74 0;
#X connect 77 0 78 0;
#X connect 78 0 79 0;
#X connect 78 1 80 0;
#X connect 79 0 76 0;
#X connect 80 0 76 0;
#X connect 81 0 10 0;
#X connect 82 0 86 0;
#X connect 82 0 93 0;
#X connect 83 0 82 0;
#X connect 84 0 82 0;
#X connect 85 0 91 0;
#X connect 86 0 85 0;
#X connect 87 0 89 0;
#X connect 88 0 89 0;
#X connect 90 0 89 0;
#X connect 91 0 88 0;
#X connect 91 1 87 0;
#X connect 92 0 90 0;
#X connect 93 0 86 0;
#X connect 94 0 96 0;
#X connect 95 0 114 0;
#X connect 95 0 104 0;
#X connect 96 0 95 0;
#X connect 97 0 105 0;
#X connect 98 0 99 0;
#X connect 99 0 71 0;
#X connect 100 0 103 0;
#X connect 101 0 102 0;
#X connect 102 0 71 0;
#X connect 103 0 71 0;
#X connect 105 0 100 0;
#X connect 110 0 112 0;
#X connect 111 0 115 1;
#X connect 112 0 111 0;
#X connect 114 0 115 0;
#X connect 115 0 116 0;
#X connect 116 0 71 0;
#X restore 1174 536 pd pushsysex;
#X obj 1214 485 vradio 11 0 1 4 empty empty line 0 -6 1 8 -262144 -1
-1 2;
#X msg 1328 333 0;
#X obj 1174 455 del 20;
#X msg 1364 333 100;
#X obj 1174 102 ctlin;
#X obj 1226 204 f;
#X obj 1174 204 +;
#X obj 1174 138 moses 64;
#X obj 1227 167 - 128;
#X obj 1174 237 clip 0 127;
#X floatatom 1327 377 5 0 0 0 - - -, f 5;
#X obj 1174 324 spigot 1;
#X msg 1266 377 0;
#X msg 1267 442 1;
#X obj 1174 350 t a b b;
#X obj 1267 412 delay 100;
#X obj 1025 277 hsl 128 15 0 127 0 0 empty empty empty -2 -8 0 10 -262144
-1 -1 8000 1;
#X text 528 640 play/pause;
#X connect 1 0 15 0;
#X connect 2 0 15 1;
#X connect 3 0 7 0;
#X connect 3 0 58 0;
#X connect 4 0 5 0;
#X connect 4 0 8 0;
#X connect 5 0 4 1;
#X connect 6 0 1 0;
#X connect 7 0 57 0;
#X connect 8 0 6 0;
#X connect 8 0 38 0;
#X connect 9 0 23 0;
#X connect 9 1 69 0;
#X connect 11 0 23 1;
#X connect 11 0 69 1;
#X connect 16 0 15 3;
#X connect 17 0 15 4;
#X connect 18 0 19 0;
#X connect 19 0 15 2;
#X connect 19 0 59 0;
#X connect 21 0 64 0;
#X connect 23 0 68 0;
#X connect 25 0 10 1;
#X connect 26 0 41 0;
#X connect 27 0 29 0;
#X connect 27 0 43 0;
#X connect 28 0 27 0;
#X connect 28 1 26 0;
#X connect 28 2 30 0;
#X connect 32 0 33 0;
#X connect 32 0 34 0;
#X connect 33 0 32 1;
#X connect 34 0 37 0;
#X connect 35 0 36 0;
#X connect 36 0 32 0;
#X connect 37 0 2 0;
#X connect 38 0 35 0;
#X connect 39 0 56 0;
#X connect 40 0 31 0;
#X connect 41 0 42 0;
#X connect 43 0 44 0;
#X connect 44 0 45 0;
#X connect 45 0 49 0;
#X connect 45 0 48 0;
#X connect 45 1 46 0;
#X connect 46 0 47 0;
#X connect 46 0 48 1;
#X connect 47 0 46 1;
#X connect 47 0 49 1;
#X connect 48 0 50 0;
#X connect 49 0 51 0;
#X connect 52 0 53 0;
#X connect 53 0 58 1;
#X connect 54 0 52 0;
#X connect 55 0 7 0;
#X connect 55 0 58 0;
#X connect 56 0 38 1;
#X connect 57 0 4 1;
#X connect 57 0 32 1;
#X connect 58 0 4 0;
#X connect 60 0 2 0;
#X connect 61 0 2 0;
#X connect 62 0 70 0;
#X connect 64 0 65 0;
#X connect 65 0 9 0;
#X connect 66 0 11 0;
#X connect 67 0 11 0;
#X connect 69 0 10 2;
#X connect 70 0 63 0;
#X connect 70 0 63 1;
#X connect 71 0 70 1;
#X connect 73 0 72 1;
#X connect 74 0 83 0;
#X connect 75 0 72 0;
#X connect 76 0 83 0;
#X connect 77 0 80 0;
#X connect 78 0 79 1;
#X connect 79 0 82 0;
#X connect 80 0 79 0;
#X connect 80 1 81 0;
#X connect 81 0 79 0;
#X connect 82 0 78 0;
#X connect 82 0 89 0;
#X connect 82 0 84 0;
#X connect 83 0 88 1;
#X connect 84 0 87 0;
#X connect 85 0 84 1;
#X connect 86 0 84 1;
#X connect 87 0 75 0;
#X connect 87 0 72 2;
#X connect 87 1 88 0;
#X connect 87 2 85 0;
#X connect 88 0 86 0;
