#N canvas 462 119 1703 851 12;
#X obj 258 200 + 1;
#X obj 165 138 sel 0;
#X obj 220 345 mod 64;
#X obj 113 745 hradio 13 0 1 8 empty empty encoder\ bank 0 -8 1 8 -262144
-1 -1 1;
#X floatatom 842 170 3 0 0 0 - - -, f 3;
#X floatatom 803 170 3 0 0 0 - - -, f 3;
#X obj 803 51 ctlin;
#X floatatom 881 170 3 0 0 0 - - -, f 3;
#N canvas 386 152 1415 1072 pushbuttonlights 0;
#X msg 1162 632 127 44 \, 127 45 \, 127 46 \, 127 47, f 9;
#X obj 713 961 unpack f f;
#X msg 1247 632 0 44 \, 0 45 \, 0 46 \, 0 47, f 6;
#X text 1204 589 arrows;
#X text 1066 532 divisions;
#X text 427 557 play rec etc;
#X msg 438 585 127 85 \, 127 86 \, 127 87 \, 127 88 \, 127 89 \, 127
90 \,, f 9;
#X msg 1157 249 127 54 \, 127 55 \, 127 56 \, 127 57 \, 127 58 \, 127
59 \, 127 60 \, 127 61 \, 127 62 \, 127 63 \,, f 9;
#X msg 1167 467 127 48 \, 127 49 \, 127 50 \, 127 51 \, 127 52 \, 127
53 \,, f 8;
#X text 1165 429 note session etc;
#X msg 1156 101 127 110 \, 127 111 \, 127 112 \, 127 113 \, 127 114
\, 127 115 \,, f 9;
#X text 1155 71 volume browse etc;
#X text 1158 222 scales octave etc;
#X msg 1070 248 127 29 \, 127 28 \,, f 9;
#X text 1067 219 master stop;
#X text 765 238 track on off;
#X text 694 58 track select;
#X text 772 123 special led anim patterns, f 13;
#X msg 434 455 127 116 \, 127 117 \, 127 118 \, 127 119, f 9;
#X text 420 425 undo quantize etc;
#X msg 429 139 127 3 \, 127 9 \,, f 9;
#X msg 1061 950 240 \, 71 \, 127 \, 21 \, 98 \, 0 \, 1 \, 0 \, 247
;
#X obj 1033 1004 midiout;
#X msg 1061 885 240 \, 71 \, 127 \, 21 \, 98 \, 0 \, 1 \, 1 \, 247
;
#X text 1102 924 ableton mode;
#X text 1091 856 user mode, f 13;
#X msg 1063 560 127 36 \, 127 37 \, 127 38 \, 127 39 \, 127 40 \, 127
41 \, 127 42 \, 127 43 \,, f 9;
#X floatatom 246 841 5 0 0 0 - - -, f 5;
#X obj 246 788 hsl 128 15 0 7 0 1 empty empty empty -2 -8 0 10 -262144
-1 -1 8700 1;
#X obj 246 812 int;
#X text 426 110 tap tempo \, metronome;
#X obj 246 869 pack 0 85;
#X text 246 760 blink play button;
#X floatatom 397 841 5 0 0 0 - - -, f 5;
#X obj 397 788 hsl 128 15 0 7 0 1 empty empty empty -2 -8 0 10 -262144
-1 -1 11750 1;
#X obj 397 812 int;
#X obj 397 869 pack 0 86;
#X text 397 760 blink rec button;
#X obj 713 998 outlet;
#X obj 780 998 outlet;
#X floatatom 902 135 5 0 0 0 - - -, f 5;
#X obj 902 82 hsl 128 15 0 25 0 1 empty empty empty -2 -8 0 10 -262144
-1 -1 5350 1;
#X obj 902 106 int;
#X msg 911 179 \$1 20 \, \$1 21 \, \$1 22 \, \$1 23 \, \$1 24 \, \$1
25 \, \$1 26 \, \$1 27 \,, f 7;
#X text 902 54 blink track sel;
#X msg 172 812 6;
#X msg 209 812 4;
#X obj 1170 605 bng 16 250 50 0 empty initializeLights empty 17 7 0
10 -262144 -1 -1;
#X obj 1053 490 bng 16 250 50 0 empty initializeLights empty 17 7 0
10 -262144 -1 -1;
#X obj 1133 421 bng 16 250 50 0 empty initializeLights empty 17 7 0
10 -262144 -1 -1;
#X obj 1138 200 bng 16 250 50 0 empty initializeLights empty 17 7 0
10 -262144 -1 -1;
#X obj 1034 193 bng 16 250 50 0 empty initializeLights empty 17 7 0
10 -262144 -1 -1;
#X obj 1121 69 bng 16 250 50 0 empty initializeLights empty 17 7 0
10 -262144 -1 -1;
#X obj 663 31 bng 16 250 50 0 empty initializeLights empty 17 7 0 10
-262144 -1 -1;
#X obj 738 238 bng 16 250 50 0 empty initializeLights empty 17 7 0
10 -262144 -1 -1;
#X obj 410 93 bng 16 250 50 0 empty initializeLights empty 17 7 0 10
-262144 -1 -1;
#X obj 384 420 bng 16 250 50 0 empty initializeLights empty 17 7 0
10 -262144 -1 -1;
#X obj 404 550 bng 16 250 50 0 empty initializeLights empty 17 7 0
10 -262144 -1 -1;
#X obj 1024 842 bng 16 250 50 0 empty initializeLights empty 17 7 0
10 -262144 -1 -1;
#X obj 202 159 bng 16 250 50 0 initializeLights empty empty 17 7 0
10 -262144 -1 -1;
#X obj 192 126 loadbang;
#X obj 792 208 r gateOffColor;
#X msg 768 264 \$1 102 \, \$1 103 \, \$1 104 \, \$1 105 \, \$1 106
\, \$1 107 \, \$1 108 \, \$1 109 \,, f 9;
#X msg 697 83 \$1 20 \, \$1 21 \, \$1 22 \, \$1 23 \, \$1 24 \, \$1
25 \, \$1 26 \, \$1 27 \,, f 6;
#X obj 95 781 r run;
#X obj 95 810 tgl 15 1 empty empty empty 17 7 0 10 -262144 -1 -1 1
1;
#X obj 95 834 sel 0 1;
#X connect 0 0 1 0;
#X connect 1 0 38 0;
#X connect 1 1 39 0;
#X connect 2 0 1 0;
#X connect 6 0 1 0;
#X connect 7 0 1 0;
#X connect 8 0 1 0;
#X connect 10 0 1 0;
#X connect 13 0 1 0;
#X connect 18 0 1 0;
#X connect 20 0 1 0;
#X connect 21 0 22 0;
#X connect 23 0 22 0;
#X connect 26 0 1 0;
#X connect 27 0 31 0;
#X connect 28 0 29 0;
#X connect 31 0 1 0;
#X connect 33 0 36 0;
#X connect 34 0 35 0;
#X connect 36 0 1 0;
#X connect 40 0 43 0;
#X connect 41 0 42 0;
#X connect 42 0 40 0;
#X connect 45 0 31 0;
#X connect 46 0 31 0;
#X connect 47 0 0 0;
#X connect 48 0 26 0;
#X connect 49 0 8 0;
#X connect 50 0 7 0;
#X connect 51 0 13 0;
#X connect 52 0 10 0;
#X connect 55 0 20 0;
#X connect 56 0 18 0;
#X connect 57 0 6 0;
#X connect 58 0 23 0;
#X connect 60 0 59 0;
#X connect 62 0 1 0;
#X connect 63 0 1 0;
#X connect 64 0 65 0;
#X connect 65 0 66 0;
#X connect 66 0 45 0;
#X connect 66 1 46 0;
#X restore 112 610 pd pushbuttonlights;
#X obj 112 583 bng 15 250 50 0 empty empty empty 17 7 0 10 -262144
-1 -1;
#X obj 842 225 sel 85;
#X obj 803 321 sel 127;
#X obj 803 539 t b b;
#X obj 894 578 == 0;
#X obj 803 628 spigot;
#X obj 861 628 spigot;
#X obj 803 657 bng 15 250 50 0 empty empty empty 17 7 0 10 -262144
-1 -1;
#X obj 861 657 bng 15 250 50 0 empty empty empty 17 7 0 10 -262144
-1 -1;
#X floatatom 252 105 5 0 0 0 - - -, f 5;
#X obj 252 34 r ms;
#X obj 165 34 r run;
#X msg 165 166 0;
#X obj 220 140 metro;
#X msg 411 105 1;
#X msg 483 105 96;
#N canvas 685 71 1436 1128 pushsysex 0;
#X obj 299 71 inlet refresh;
#X obj 737 71 inlet text value;
#N canvas 1535 452 785 567 list-drip 0;
#X obj 73 94 t a a;
#X obj 73 251 spigot;
#X obj 112 159 bang;
#X obj 112 178 1;
#X obj 233 159 route bang;
#X obj 193 160 bang;
#X obj 193 179 0;
#X obj 112 124 list split 2;
#X obj 242 389 list split;
#X obj 309 338 list length;
#X obj 309 360 >> 1;
#X obj 73 270 t a a a a;
#X obj 73 456 list split;
#X obj 140 408 list length;
#X obj 140 433 >> 1;
#X obj 41 29 inlet;
#X obj 300 185 outlet;
#X text 83 29 Copyright 2009 by Mathieu Bouchard;
#X obj 41 63 t b a;
#X obj 475 129 outlet;
#X text 530 131 signal end of list;
#X text 391 33 made compatible with [list-drip]: fbar 2009;
#X connect 0 0 1 0;
#X connect 0 1 7 0;
#X connect 1 0 11 0;
#X connect 2 0 3 0;
#X connect 3 0 1 1;
#X connect 4 1 16 0;
#X connect 5 0 6 0;
#X connect 6 0 1 1;
#X connect 7 0 2 0;
#X connect 7 2 4 0;
#X connect 7 2 5 0;
#X connect 8 0 0 0;
#X connect 9 0 10 0;
#X connect 10 0 8 1;
#X connect 11 0 12 0;
#X connect 11 1 13 0;
#X connect 11 2 8 0;
#X connect 11 3 9 0;
#X connect 12 1 0 0;
#X connect 13 0 14 0;
#X connect 14 0 12 1;
#X connect 15 0 18 0;
#X connect 18 0 19 0;
#X connect 18 1 0 0;
#X restore 322 288 pd list-drip;
#X msg 396 340 add2 \$1;
#X msg 322 340 addcomma;
#X obj 322 314 t b f;
#X msg 299 143 240 71 127 21;
#X msg 402 949 240 \, 71 \, 127 \, 21 \, 25 \, 0 \, 69 \, 0 \, 54 \,
56 \, 32 \, 32 \, 32 \, 32 \, 32 \, 32 \, 32 \, 32 \, 32 \, 32 \, 32
\, 32 \, 32 \, 32 \, 32 \, 32 \, 32 \, 32 \, 32 \, 32 \, 32 \, 32 \,
32 \, 32 \, 32 \, 32 \, 32 \, 32 \, 32 \, 32 \, 32 \, 32 \, 32 \, 32
\, 32 \, 32 \, 32 \, 32 \, 32 \, 32 \, 32 \, 32 \, 32 \, 32 \, 32 \,
32 \, 32 \, 32 \, 32 \, 32 \, 32 \, 32 \, 32 \, 32 \, 32 \, 32 \, 32
\, 32 \, 32 \, 32 \, 32 \, 32 \, 32 \, 32 \, 32 \, 32 \, 247;
#X msg 248 340 add2 \$1;
#X obj 532 115 vradio 11 0 1 4 empty empty empty 32 5 1 10 -262144
-1 -1 1;
#X obj 216 278 + 24;
#X obj 216 251 f;
#N canvas 1535 452 785 567 list-drip 0;
#X obj 73 94 t a a;
#X obj 73 251 spigot;
#X obj 112 159 bang;
#X obj 112 178 1;
#X obj 233 159 route bang;
#X obj 193 160 bang;
#X obj 193 179 0;
#X obj 112 124 list split 2;
#X obj 242 389 list split;
#X obj 309 338 list length;
#X obj 309 360 >> 1;
#X obj 73 270 t a a a a;
#X obj 73 456 list split;
#X obj 140 408 list length;
#X obj 140 433 >> 1;
#X obj 41 29 inlet;
#X obj 300 185 outlet;
#X text 83 29 Copyright 2009 by Mathieu Bouchard;
#X obj 41 63 t b a;
#X obj 475 129 outlet;
#X text 530 131 signal end of list;
#X text 391 33 made compatible with [list-drip]: fbar 2009;
#X connect 0 0 1 0;
#X connect 0 1 7 0;
#X connect 1 0 11 0;
#X connect 2 0 3 0;
#X connect 3 0 1 1;
#X connect 4 1 16 0;
#X connect 5 0 6 0;
#X connect 6 0 1 1;
#X connect 7 0 2 0;
#X connect 7 2 4 0;
#X connect 7 2 5 0;
#X connect 8 0 0 0;
#X connect 9 0 10 0;
#X connect 10 0 8 1;
#X connect 11 0 12 0;
#X connect 11 1 13 0;
#X connect 11 2 8 0;
#X connect 11 3 9 0;
#X connect 12 1 0 0;
#X connect 13 0 14 0;
#X connect 14 0 12 1;
#X connect 15 0 18 0;
#X connect 18 0 19 0;
#X connect 18 1 0 0;
#X restore 157 610 pd list-drip;
#X msg 233 662 add2 \$1;
#X msg 157 662 addcomma;
#X obj 157 636 t b f;
#X msg 97 342 0 69 0;
#X msg 463 340 set;
#X text 175 278 Line;
#X text 61 343 ???;
#X msg 678 368 add2 \$1;
#X msg 601 368 addcomma;
#X msg 601 410 54 \, 56 \,;
#X msg 748 368 set;
#X obj 1071 366 f;
#X floatatom 1071 420 5 0 0 0 - - -, f 5;
#X obj 1113 366 + 1;
#X msg 1089 337 0;
#X obj 1071 340 bng 15 250 50 0 empty empty empty 17 7 0 10 -262144
-1 -1;
#X obj 1071 393 + 1;
#N canvas 1535 452 785 567 list-drip 0;
#X obj 73 94 t a a;
#X obj 73 251 spigot;
#X obj 112 159 bang;
#X obj 112 178 1;
#X obj 233 159 route bang;
#X obj 193 160 bang;
#X obj 193 179 0;
#X obj 112 124 list split 2;
#X obj 242 389 list split;
#X obj 309 338 list length;
#X obj 309 360 >> 1;
#X obj 73 270 t a a a a;
#X obj 73 456 list split;
#X obj 140 408 list length;
#X obj 140 433 >> 1;
#X obj 41 29 inlet;
#X obj 300 185 outlet;
#X text 83 29 Copyright 2009 by Mathieu Bouchard;
#X obj 41 63 t b a;
#X obj 475 129 outlet;
#X text 530 131 signal end of list;
#X text 391 33 made compatible with [list-drip]: fbar 2009;
#X connect 0 0 1 0;
#X connect 0 1 7 0;
#X connect 1 0 11 0;
#X connect 2 0 3 0;
#X connect 3 0 1 1;
#X connect 4 1 16 0;
#X connect 5 0 6 0;
#X connect 6 0 1 1;
#X connect 7 0 2 0;
#X connect 7 2 4 0;
#X connect 7 2 5 0;
#X connect 8 0 0 0;
#X connect 9 0 10 0;
#X connect 10 0 8 1;
#X connect 11 0 12 0;
#X connect 11 1 13 0;
#X connect 11 2 8 0;
#X connect 11 3 9 0;
#X connect 12 1 0 0;
#X connect 13 0 14 0;
#X connect 14 0 12 1;
#X connect 15 0 18 0;
#X connect 18 0 19 0;
#X connect 18 1 0 0;
#X restore 601 608 pd list-drip;
#X msg 676 660 add2 \$1;
#X msg 601 660 addcomma;
#X obj 601 634 t b f;
#X obj 1071 446 - 68;
#X obj 1071 540 abs;
#X floatatom 1071 568 5 0 0 0 - - -, f 5;
#X obj 1071 625 until;
#X msg 1071 653 32;
#X obj 1039 597 float;
#X obj 1039 571 bng 15 250 50 0 empty empty empty 17 7 0 10 -262144
-1 -1;
#X text 1116 420 Text length;
#X text 989 654 Add spaces;
#X obj 601 334 t b f;
#X text 1124 337 Reset counter;
#X text 496 340 Clear message;
#X text 785 368 Clear message;
#X obj 299 173 t b a b b b, f 14;
#X obj 526 184 bng 15 250 50 0 \$0-reset empty empty 17 7 0 10 -258625
-1 -1;
#X obj 1089 314 bng 15 250 50 0 empty \$0-reset empty 17 7 0 10 -258625
-1 -1;
#X obj 748 341 bng 15 250 50 0 empty \$0-reset empty 17 7 0 10 -258625
-1 -1;
#X text 602 223 The text;
#X text 551 182 Reset messages etc;
#X obj 97 791 t b b;
#X msg 129 817 add2 247;
#X text 199 817 End Sysex;
#X text 409 143 Start Sysex;
#X obj 97 372 t b b b a;
#X obj 402 1058 midiout;
#X msg 179 340 addcomma;
#X obj 216 305 t b b f;
#X msg 601 250 68;
#X floatatom 896 127 5 0 0 0 - - -, f 5;
#X msg 737 216 set \$1;
#X symbolatom 817 127 10 0 0 0 - - -, f 10;
#X obj 817 155 route symbol float;
#X symbolatom 817 184 10 0 0 0 - - -, f 10;
#X floatatom 896 184 5 0 0 0 - - -, f 5;
#X obj 532 71 inlet line selector;
#X msg 1178 193 set \$1;
#X symbolatom 1182 146 10 0 0 0 - - -, f 10;
#X floatatom 1287 143 5 0 0 0 - - -, f 5;
#X msg 1211 224 METIS;
#X msg 1375 317 add2 \$1;
#X msg 1298 317 addcomma;
#X msg 1298 359;
#X msg 1445 317 set;
#X obj 1298 283 t b f;
#X obj 1445 290 bng 15 250 50 0 empty \$0-reset empty 17 7 0 10 -258625
-1 -1;
#X obj 1136 222 bng 15 250 50 0 empty empty empty 17 7 0 10 -262144
-1 -1;
#X obj 1145 963 hradio 15 0 0 4 empty empty empty 0 -8 0 10 -262144
-1 -1 0;
#X floatatom 1145 1016 5 0 0 0 - - -, f 5;
#X obj 1145 987 * 17;
#X obj 895 919 vradio 11 0 1 4 empty empty empty 32 5 1 10 -262144
-1 -1 3;
#X obj 55 898 hsl 128 15 0 127 0 0 empty empty empty -2 -8 0 10 -262144
-1 -1 0 1;
#X msg 55 917 240 \, 71 \, 127 \, 21 \, 122 \, 0 \, 1 \, \$1 \, 247
;
#X floatatom 895 1001 5 0 0 0 - - -, f 5;
#X obj 55 1003 hsl 128 15 0 127 0 0 empty empty empty -2 -8 0 10 -262144
-1 -1 0 1;
#X msg 55 1022 240 \, 71 \, 127 \, 21 \, 124 \, 0 \, 1 \, \$1 \, 247
;
#X msg 895 1029 240 \, 71 \, 127 \, 21 \, \$1 \, 0 \, 0 \, 247;
#X msg 1165 1044 240 \, 71 \, 127 \, 21 \, 26 \, 0 \, 6 \, \$1 \, 116
\, 101 \, 115 \, 116 \, 101 \, 247;
#X obj 895 972 + 28;
#X text 55 979 Brightness;
#X text 55 874 Contrast;
#X text 1216 963 Write to blocks;
#X text 917 919 Clear whole lines;
#X obj 1195 1084 hradio 15 0 0 8 empty empty empty 0 -8 0 10 -262144
-1 -1 0;
#X floatatom 1195 1137 5 0 0 0 - - -, f 5;
#X obj 1195 1108 * 2;
#X text 1326 1084 Write to subdivisions of blocks;
#X floatatom 1145 1137 5 0 0 0 - - -, f 5;
#X obj 1177 1175 +;
#X msg 1177 1205 240 \, 71 \, 127 \, 21 \, 26 \, 0 \, 6 \, \$1 \, 77
\, 69 \, 84 \, 73 \, 83 \, 247;
#X obj 601 276 cyclone/spell;
#X obj 1211 250 cyclone/spell;
#X msg 1144 742 add2 \$1;
#X msg 1071 742 addcomma;
#X text 1170 662 Reset list;
#X obj 1145 664 bng 15 250 50 0 empty \$0-reset empty 17 7 0 10 -258625
-1 -1;
#X obj 1071 690 list append;
#X obj 1071 716 t b f;
#X text 1116 568 Difference to 68;
#X connect 0 0 6 0;
#X connect 1 0 63 0;
#X connect 2 0 5 0;
#X connect 3 0 7 0;
#X connect 4 0 7 0;
#X connect 5 0 4 0;
#X connect 5 1 3 0;
#X connect 6 0 47 0;
#X connect 7 0 58 0;
#X connect 8 0 7 0;
#X connect 9 0 11 1;
#X connect 10 0 60 0;
#X connect 11 0 10 0;
#X connect 12 0 15 0;
#X connect 13 0 7 0;
#X connect 14 0 7 0;
#X connect 15 0 14 0;
#X connect 15 1 13 0;
#X connect 16 0 57 0;
#X connect 17 0 7 0;
#X connect 20 0 22 0;
#X connect 21 0 22 0;
#X connect 22 0 30 0;
#X connect 23 0 22 0;
#X connect 24 0 26 0;
#X connect 24 0 29 0;
#X connect 25 0 34 0;
#X connect 26 0 24 1;
#X connect 27 0 24 1;
#X connect 28 0 24 0;
#X connect 29 0 25 0;
#X connect 30 0 33 0;
#X connect 31 0 7 0;
#X connect 32 0 7 0;
#X connect 33 0 32 0;
#X connect 33 1 31 0;
#X connect 34 0 35 0;
#X connect 35 0 36 0;
#X connect 36 0 39 1;
#X connect 37 0 38 0;
#X connect 38 0 109 0;
#X connect 39 0 37 0;
#X connect 40 0 39 0;
#X connect 43 0 21 0;
#X connect 43 1 20 0;
#X connect 47 0 11 0;
#X connect 47 1 2 0;
#X connect 47 2 17 0;
#X connect 47 3 61 0;
#X connect 47 4 48 0;
#X connect 49 0 27 0;
#X connect 50 0 23 0;
#X connect 53 0 7 0;
#X connect 53 1 54 0;
#X connect 54 0 7 0;
#X connect 57 0 53 0;
#X connect 57 1 40 0;
#X connect 57 2 22 0;
#X connect 57 3 12 0;
#X connect 59 0 7 0;
#X connect 60 0 16 0;
#X connect 60 1 59 0;
#X connect 60 2 8 0;
#X connect 61 0 103 0;
#X connect 62 0 65 0;
#X connect 63 0 61 0;
#X connect 64 0 65 0;
#X connect 65 0 66 0;
#X connect 65 1 67 0;
#X connect 66 0 63 0;
#X connect 67 0 63 0;
#X connect 68 0 9 0;
#X connect 69 0 72 0;
#X connect 69 0 79 0;
#X connect 70 0 69 0;
#X connect 71 0 69 0;
#X connect 72 0 104 0;
#X connect 73 0 75 0;
#X connect 74 0 75 0;
#X connect 76 0 75 0;
#X connect 77 0 74 0;
#X connect 77 1 73 0;
#X connect 78 0 76 0;
#X connect 79 0 72 0;
#X connect 80 0 82 0;
#X connect 81 0 100 0;
#X connect 81 0 90 0;
#X connect 82 0 81 0;
#X connect 83 0 91 0;
#X connect 84 0 85 0;
#X connect 85 0 58 0;
#X connect 86 0 89 0;
#X connect 87 0 88 0;
#X connect 88 0 58 0;
#X connect 89 0 58 0;
#X connect 91 0 86 0;
#X connect 96 0 98 0;
#X connect 97 0 101 1;
#X connect 98 0 97 0;
#X connect 100 0 101 0;
#X connect 101 0 102 0;
#X connect 102 0 58 0;
#X connect 103 0 28 0;
#X connect 103 0 43 0;
#X connect 104 0 77 0;
#X connect 105 0 7 0;
#X connect 106 0 7 0;
#X connect 108 0 109 1;
#X connect 109 0 110 0;
#X connect 110 0 106 0;
#X connect 110 1 105 0;
#X restore 1054 726 pd pushsysex;
#X obj 1094 675 vradio 11 0 1 4 empty empty line 0 -6 1 8 -262144 -1
-1 1;
#X obj 1054 645 del 20;
#X obj 1106 391 f;
#X obj 1054 391 +;
#X obj 1054 325 moses 64;
#X obj 1107 354 - 128;
#X obj 1054 424 clip 0 127;
#X obj 1054 514 spigot 1;
#X msg 1146 567 0;
#X msg 1147 632 1;
#X obj 1054 540 t a b b;
#X obj 1147 602 delay 100;
#X obj 1085 462 hsl 128 15 0 127 0 0 empty empty empty -2 -8 0 10 -262144
-1 -1 6700 1;
#X text 902 714 play/pause;
#X msg 447 105 60;
#X obj 883 716 tgl 15 0 empty empty empty 17 7 0 10 -262144 -1 -1 1
1;
#X msg 803 681 1;
#X msg 861 681 0;
#X msg 842 258 1;
#X msg 881 258 0;
#X obj 803 290 spigot;
#X msg 1093 258 1;
#X msg 1132 258 0;
#X obj 1054 290 spigot;
#X obj 112 655 ctlout;
#N canvas 743 252 1804 1126 sequencer 0;
#X floatatom 347 133 5 0 0 0 - - -, f 5;
#X obj 347 80 hsl 128 15 0 127 0 1 empty empty empty -2 -8 0 10 -262144
-1 -1 4250 1;
#X obj 347 104 int;
#X floatatom 125 82 5 0 0 0 - - -, f 5;
#X obj 125 202 f;
#X obj 163 202 + 1;
#X obj 125 232 mod 127;
#X floatatom 125 262 5 0 0 0 - - -, f 5;
#X obj 157 122 hradio 8 0 0 16 empty empty empty 0 -8 0 10 -262144
-1 -1 0;
#X obj 157 139 + 1;
#X obj 125 170 mod 8;
#X msg 350 337 0;
#X msg 380 337 1;
#X msg 410 337 2;
#X msg 440 337 3;
#X msg 471 337 4;
#X msg 501 337 5;
#X msg 531 337 6;
#X msg 561 337 7;
#X floatatom 636 367 5 0 0 0 - - -, f 5;
#X floatatom 559 133 5 0 0 0 - - -, f 5;
#X obj 559 80 hsl 128 15 0 127 0 1 empty empty empty -2 -8 0 10 -262144
-1 -1 150 1;
#X obj 559 104 int;
#X obj 347 161 s onColor;
#X obj 559 161 s offColor;
#X obj 350 302 sel 0 1 2 3 4 5 6 7, f 35;
#N canvas 385 834 530 383 aorb 0;
#X obj 61 89 sel 0 1, f 29;
#X obj 61 157 f;
#X obj 61 207 change;
#X obj 161 156 f;
#X obj 61 276 outlet;
#X obj 61 55 ==;
#X obj 61 19 inlet counter;
#X obj 171 19 inlet selected;
#X obj 61 236 pack, f 31;
#X obj 293 19 inlet lightOffset;
#X obj 275 57 +;
#X obj 79 124 r offColor;
#X obj 179 123 r onColor;
#X connect 0 0 1 0;
#X connect 0 1 3 0;
#X connect 1 0 2 0;
#X connect 2 0 8 0;
#X connect 3 0 2 0;
#X connect 5 0 0 0;
#X connect 6 0 5 0;
#X connect 7 0 5 1;
#X connect 7 0 10 0;
#X connect 8 0 4 0;
#X connect 9 0 10 1;
#X connect 10 0 8 1;
#X connect 11 0 1 1;
#X connect 12 0 3 1;
#X restore 61 431 pd aorb;
#N canvas 1067 810 530 314 aorb 0;
#X obj 113 100 sel 0 1, f 29;
#X obj 113 168 f;
#X obj 113 218 change;
#X obj 213 167 f;
#X obj 113 287 outlet;
#X obj 113 66 ==;
#X obj 113 30 inlet counter;
#X obj 223 30 inlet selected;
#X obj 113 247 pack, f 31;
#X obj 345 30 inlet lightOffset;
#X obj 327 68 +;
#X obj 131 135 r offColor;
#X obj 231 134 r onColor;
#X connect 0 0 1 0;
#X connect 0 1 3 0;
#X connect 1 0 2 0;
#X connect 2 0 8 0;
#X connect 3 0 2 0;
#X connect 5 0 0 0;
#X connect 6 0 5 0;
#X connect 7 0 5 1;
#X connect 7 0 10 0;
#X connect 8 0 4 0;
#X connect 9 0 10 1;
#X connect 10 0 8 1;
#X connect 11 0 1 1;
#X connect 12 0 3 1;
#X restore 125 431 pd aorb;
#N canvas 1067 810 530 314 aorb 0;
#X obj 61 89 sel 0 1, f 29;
#X obj 61 157 f;
#X obj 61 207 change;
#X obj 161 156 f;
#X obj 61 276 outlet;
#X obj 61 55 ==;
#X obj 61 19 inlet counter;
#X obj 171 19 inlet selected;
#X obj 61 236 pack, f 31;
#X obj 293 19 inlet lightOffset;
#X obj 275 57 +;
#X obj 79 124 r offColor;
#X obj 179 123 r onColor;
#X connect 0 0 1 0;
#X connect 0 1 3 0;
#X connect 1 0 2 0;
#X connect 2 0 8 0;
#X connect 3 0 2 0;
#X connect 5 0 0 0;
#X connect 6 0 5 0;
#X connect 7 0 5 1;
#X connect 7 0 10 0;
#X connect 8 0 4 0;
#X connect 9 0 10 1;
#X connect 10 0 8 1;
#X connect 11 0 1 1;
#X connect 12 0 3 1;
#X restore 189 431 pd aorb;
#N canvas 1067 810 530 314 aorb 0;
#X obj 61 89 sel 0 1, f 29;
#X obj 61 157 f;
#X obj 61 207 change;
#X obj 161 156 f;
#X obj 61 276 outlet;
#X obj 61 55 ==;
#X obj 61 19 inlet counter;
#X obj 171 19 inlet selected;
#X obj 61 236 pack, f 31;
#X obj 293 19 inlet lightOffset;
#X obj 275 57 +;
#X obj 79 124 r offColor;
#X obj 179 123 r onColor;
#X connect 0 0 1 0;
#X connect 0 1 3 0;
#X connect 1 0 2 0;
#X connect 2 0 8 0;
#X connect 3 0 2 0;
#X connect 5 0 0 0;
#X connect 6 0 5 0;
#X connect 7 0 5 1;
#X connect 7 0 10 0;
#X connect 8 0 4 0;
#X connect 9 0 10 1;
#X connect 10 0 8 1;
#X connect 11 0 1 1;
#X connect 12 0 3 1;
#X restore 253 431 pd aorb;
#N canvas 1067 810 530 314 aorb 0;
#X obj 61 89 sel 0 1, f 29;
#X obj 61 157 f;
#X obj 61 207 change;
#X obj 161 156 f;
#X obj 61 276 outlet;
#X obj 61 55 ==;
#X obj 61 19 inlet counter;
#X obj 171 19 inlet selected;
#X obj 61 236 pack, f 31;
#X obj 293 19 inlet lightOffset;
#X obj 275 57 +;
#X obj 179 123 r onColor;
#X obj 79 124 r offColor;
#X connect 0 0 1 0;
#X connect 0 1 3 0;
#X connect 1 0 2 0;
#X connect 2 0 8 0;
#X connect 3 0 2 0;
#X connect 5 0 0 0;
#X connect 6 0 5 0;
#X connect 7 0 5 1;
#X connect 7 0 10 0;
#X connect 8 0 4 0;
#X connect 9 0 10 1;
#X connect 10 0 8 1;
#X connect 11 0 3 1;
#X connect 12 0 1 1;
#X restore 381 431 pd aorb;
#N canvas 1067 810 530 314 aorb 0;
#X obj 61 89 sel 0 1, f 29;
#X obj 61 157 f;
#X obj 61 207 change;
#X obj 161 156 f;
#X obj 61 276 outlet;
#X obj 61 55 ==;
#X obj 61 19 inlet counter;
#X obj 171 19 inlet selected;
#X obj 61 236 pack, f 31;
#X obj 293 19 inlet lightOffset;
#X obj 275 57 +;
#X obj 79 124 r offColor;
#X obj 179 123 r onColor;
#X connect 0 0 1 0;
#X connect 0 1 3 0;
#X connect 1 0 2 0;
#X connect 2 0 8 0;
#X connect 3 0 2 0;
#X connect 5 0 0 0;
#X connect 6 0 5 0;
#X connect 7 0 5 1;
#X connect 7 0 10 0;
#X connect 8 0 4 0;
#X connect 9 0 10 1;
#X connect 10 0 8 1;
#X connect 11 0 1 1;
#X connect 12 0 3 1;
#X restore 317 431 pd aorb;
#N canvas 1067 810 530 314 aorb 0;
#X obj 61 89 sel 0 1, f 29;
#X obj 61 157 f;
#X obj 61 207 change;
#X obj 161 156 f;
#X obj 61 276 outlet;
#X obj 61 55 ==;
#X obj 61 19 inlet counter;
#X obj 171 19 inlet selected;
#X obj 61 236 pack, f 31;
#X obj 293 19 inlet lightOffset;
#X obj 275 57 +;
#X obj 79 124 r offColor;
#X obj 179 123 r onColor;
#X connect 0 0 1 0;
#X connect 0 1 3 0;
#X connect 1 0 2 0;
#X connect 2 0 8 0;
#X connect 3 0 2 0;
#X connect 5 0 0 0;
#X connect 6 0 5 0;
#X connect 7 0 5 1;
#X connect 7 0 10 0;
#X connect 8 0 4 0;
#X connect 9 0 10 1;
#X connect 10 0 8 1;
#X connect 11 0 1 1;
#X connect 12 0 3 1;
#X restore 445 431 pd aorb;
#N canvas 1067 810 530 314 aorb 0;
#X obj 61 89 sel 0 1, f 29;
#X obj 61 157 f;
#X obj 61 207 change;
#X obj 161 156 f;
#X obj 61 276 outlet;
#X obj 61 55 ==;
#X obj 61 19 inlet counter;
#X obj 171 19 inlet selected;
#X obj 61 236 pack, f 31;
#X obj 293 19 inlet lightOffset;
#X obj 275 57 +;
#X obj 79 124 r offColor;
#X obj 179 123 r onColor;
#X connect 0 0 1 0;
#X connect 0 1 3 0;
#X connect 1 0 2 0;
#X connect 2 0 8 0;
#X connect 3 0 2 0;
#X connect 5 0 0 0;
#X connect 6 0 5 0;
#X connect 7 0 5 1;
#X connect 7 0 10 0;
#X connect 8 0 4 0;
#X connect 9 0 10 1;
#X connect 10 0 8 1;
#X connect 11 0 1 1;
#X connect 12 0 3 1;
#X restore 509 431 pd aorb;
#X obj 125 506 unpack;
#X obj 125 535 outlet;
#X obj 182 535 outlet;
#X msg 636 338 102;
#X obj 636 309 loadbang;
#N canvas 0 22 450 300 (subpatch) 0;
#X array seq 8 float 19 black black;
#A 0 0.535401 0.763891 0.622093 0.425272 0.425197 0.496063 0.653718
0.795262;
#X coords 0 1 8 0 200 140 1;
#X restore 877 58 graph;
#X obj 878 326 tabread seq;
#X obj 887 656 s readingSeqTab;
#X obj 878 353 * 127;
#X floatatom 767 598 5 0 0 0 - - -, f 5;
#X floatatom 767 410 5 0 0 0 - - -, f 5;
#X msg 890 451 0 2 4 5 7 9 11;
#X msg 890 472 0 2 3 5 7 8 10;
#X msg 890 493 0 4 7;
#X msg 890 514 0 3 7;
#X floatatom 807 431 5 0 11 0 - - -, f 5;
#X text 847 430 Root;
#X text 997 451 Major scale;
#X text 997 472 Minor scale;
#X text 997 493 Major triad;
#X text 997 514 Minor triad;
#X msg 890 535 0 2 4 7 9;
#X text 997 535 Major pentatonic scale;
#X msg 890 556 0 3 5 7 10;
#X text 997 556 Minor pentatonic scale;
#X obj 767 577 mscale;
#X obj 125 53 r counter;
#X obj 198 53 r othercounter;
#X obj 687 469 loadbang;
#X msg 1125 215 \; seq 0 \$1;
#X obj 1145 119 vsl 16 78 0 1 0 1 empty empty empty 0 -9 0 10 -262144
-1 -1 4123 1;
#X obj 1225 119 vsl 16 78 0 1 0 1 empty empty empty 0 -9 0 10 -262144
-1 -1 5882 1;
#X obj 1205 86 r seqVal-1;
#X obj 1305 119 vsl 16 78 0 1 0 1 empty empty empty 0 -9 0 10 -262144
-1 -1 4790 1;
#X obj 1385 119 vsl 16 78 0 1 0 1 empty empty empty 0 -9 0 10 -262144
-1 -1 3275 1;
#X obj 1465 119 vsl 16 78 0 1 0 1 empty empty empty 0 -9 0 10 -262144
-1 -1 3274 1;
#X obj 1545 119 vsl 16 78 0 1 0 1 empty empty empty 0 -9 0 10 -262144
-1 -1 3820 1;
#X obj 1625 119 vsl 16 78 0 1 0 1 empty empty empty 0 -9 0 10 -262144
-1 -1 5034 1;
#X obj 1705 119 vsl 16 78 0 1 0 1 empty empty empty 0 -9 0 10 -262144
-1 -1 6124 1;
#X obj 1125 86 r seqVal-0;
#X obj 1285 86 r seqVal-2;
#X obj 1365 86 r seqVal-3;
#X obj 1445 86 r seqVal-4;
#X obj 1525 86 r seqVal-5;
#X obj 1605 86 r seqVal-6;
#X obj 1685 86 r seqVal-7;
#X msg 1205 215 \; seq 1 \$1;
#X msg 1285 215 \; seq 2 \$1;
#X msg 1365 215 \; seq 3 \$1;
#X msg 1445 215 \; seq 4 \$1;
#X msg 1525 215 \; seq 5 \$1;
#X msg 1605 215 \; seq 6 \$1;
#X msg 1685 215 \; seq 7 \$1;
#X msg 674 338 20;
#N canvas 0 22 450 300 (subpatch) 0;
#X array gate 8 float 23 black black;
#A 0 0 1 1 1 1 0 0 1;
#X coords 0 1 8 0 200 14 1;
#X restore 877 212 graph;
#X msg 1125 405 \; gate 0 \$1;
#X msg 1205 405 \; gate 1 \$1;
#X msg 1285 405 \; gate 2 \$1;
#X msg 1365 405 \; gate 3 \$1;
#X msg 1445 406 \; gate 4 \$1;
#X msg 1525 405 \; gate 5 \$1;
#X msg 1605 405 \; gate 6 \$1;
#X msg 1685 405 \; gate 7 \$1;
#X obj 1125 378 tgl 15 1 empty empty empty 17 7 0 10 -262144 -1 -1
0 1;
#X obj 1205 378 tgl 15 1 empty empty empty 17 7 0 10 -262144 -1 -1
1 1;
#X obj 1285 378 tgl 15 1 empty empty empty 17 7 0 10 -262144 -1 -1
1 1;
#X obj 1365 378 tgl 15 1 empty empty empty 17 7 0 10 -262144 -1 -1
1 1;
#X obj 1445 378 tgl 15 1 empty empty empty 17 7 0 10 -262144 -1 -1
1 1;
#X obj 1525 378 tgl 15 1 empty empty empty 17 7 0 10 -262144 -1 -1
0 1;
#X obj 1605 378 tgl 15 1 empty empty empty 17 7 0 10 -262144 -1 -1
0 1;
#X obj 1685 378 tgl 15 1 empty empty empty 17 7 0 10 -262144 -1 -1
1 1;
#X obj 1125 337 r gateVal-0;
#X obj 1205 336 r gateVal-1;
#X obj 1285 336 r gateVal-2;
#X obj 1365 336 r gateVal-3;
#X obj 1445 336 r gateVal-4;
#X obj 1525 336 r gateVal-5;
#X obj 1605 336 r gateVal-6;
#X obj 1685 336 r gateVal-7;
#X obj 229 805 tabread gate;
#X floatatom 229 834 5 0 0 0 - - -, f 5;
#X obj 229 862 bng 15 50 20 0 empty empty empty 17 7 0 10 -262144 -1
-1;
#X obj 279 836 tgl 15 0 empty empty empty 17 7 0 10 -262144 -1 -1 1
1;
#X floatatom 559 700 5 0 0 0 - - -, f 5;
#X obj 559 649 hsl 128 15 0 25 0 1 empty empty empty -2 -8 0 10 -262144
-1 -1 850 1;
#X obj 559 672 int;
#X floatatom 347 699 5 0 0 0 - - -, f 5;
#X obj 347 648 hsl 128 15 0 25 0 1 empty empty empty -2 -8 0 10 -262144
-1 -1 4850 1;
#X obj 347 671 int;
#X obj 347 726 s gateOnColor;
#X obj 559 727 s gateOffColor;
#X text 347 620 gate on colors;
#X text 559 621 gate off colors;
#X text 347 52 seq on colors;
#X text 559 52 seq off colors;
#X obj 271 920 s readingGateTab;
#X msg 883 394 6;
#X msg 928 394 8;
#X msg 973 394 0;
#X obj 877 272 hradio 25 0 0 8 empty empty empty 0 -8 0 10 -262144
-1 -1 2;
#N canvas 0 22 450 300 (subpatch) 0;
#X array tie 8 float 23 black black;
#A 0 0 0 0 0 0 0 0 0;
#X coords 0 1 8 0 200 14 1;
#X restore 877 245 graph;
#X floatatom 831 728 5 0 0 0 - - -, f 5;
#X obj 831 756 bng 15 50 20 0 empty empty empty 17 7 0 10 -262144 -1
-1;
#X obj 881 730 tgl 15 0 empty empty empty 17 7 0 10 -262144 -1 -1 0
0.642859;
#X obj 831 699 tabread tie;
#X obj 875 813 s readingTieTab;
#X obj 56 806 t f f;
#X obj 109 838 tabread gate;
#X floatatom 109 868 5 0 0 0 - - -, f 5;
#X floatatom 56 868 5 0 0 0 - - -, f 5;
#X obj 56 896 pack f f;
#X obj 56 928 s gateMsg;
#X obj 743 40 bng 15 250 50 0 empty empty empty 17 7 0 10 -262144 -1
-1;
#X obj 1094 939 tabread gate;
#X obj 1062 786 until;
#X obj 1062 817 f;
#X obj 1104 817 + 1;
#X msg 1062 755 8;
#X msg 1104 879 0;
#X obj 1062 724 loadbang;
#X obj 1062 994 s initGate;
#X obj 1062 966 pack;
#X obj 1062 909 t f f;
#N canvas 0 22 450 300 (subpatch) 0;
#X array seqGood 8 float 19 black black;
#A 0 0.574803 0.732283 0.629921 0.590551 0.755906 0.543307 0.574803
0.716535;
#X coords 0 1 8 0 200 140 1;
#X restore 1259 575 graph;
#X obj 1584 775 until;
#X obj 1584 806 f;
#X obj 1627 806 + 1;
#X msg 1584 744 8;
#X msg 1627 868 0;
#X obj 1584 713 loadbang;
#X obj 1584 951 pack;
#X obj 1584 894 t f f;
#X obj 1616 924 tabread seq;
#X obj 1584 979 s initSeq;
#X obj 1627 837 sel 7;
#X obj 1104 848 sel 7;
#X obj 1182 626 tgl 15 1 empty empty empty 17 7 0 10 -262144 -1 -1
1 1;
#N canvas 1055 23 475 501 oneOrTheOther 0;
#X obj 279 137 tgl 15 1 empty empty empty 17 7 0 10 -262144 -1 -1 1
1;
#X obj 279 230 == 0;
#X obj 279 255 tgl 15 0 empty empty empty 17 7 0 10 -262144 -1 -1 0
1;
#X obj 279 278 pack 0 12;
#X obj 279 168 pack 0 12;
#X obj 136 226 *;
#X obj 206 313 *;
#X floatatom 136 251 5 0 0 0 - - -, f 5;
#X floatatom 206 338 5 0 0 0 - - -, f 5;
#X obj 279 303 line 0 1;
#X obj 279 193 line 0 1;
#X obj 206 362 sel 0;
#X obj 136 275 sel 0;
#X obj 279 63 inlet toggle;
#X obj 136 63 inlet A;
#X obj 206 63 inlet B;
#X obj 164 430 outlet;
#X connect 0 0 4 0;
#X connect 1 0 2 0;
#X connect 2 0 3 0;
#X connect 3 0 9 0;
#X connect 4 0 10 0;
#X connect 5 0 7 0;
#X connect 6 0 8 0;
#X connect 7 0 12 0;
#X connect 8 0 11 0;
#X connect 9 0 6 1;
#X connect 10 0 1 0;
#X connect 10 0 5 1;
#X connect 11 1 16 0;
#X connect 12 1 16 0;
#X connect 13 0 0 0;
#X connect 14 0 5 0;
#X connect 15 0 6 0;
#X restore 1052 624 pd oneOrTheOther;
#X connect 0 0 23 0;
#X connect 1 0 2 0;
#X connect 2 0 0 0;
#X connect 3 0 10 0;
#X connect 4 0 5 0;
#X connect 4 0 6 0;
#X connect 5 0 4 1;
#X connect 6 0 7 0;
#X connect 7 0 25 0;
#X connect 7 0 26 0;
#X connect 7 0 33 0;
#X connect 7 0 32 0;
#X connect 7 0 31 0;
#X connect 7 0 30 0;
#X connect 7 0 29 0;
#X connect 7 0 28 0;
#X connect 7 0 40 0;
#X connect 7 0 113 0;
#X connect 7 0 27 0;
#X connect 7 0 133 0;
#X connect 7 0 138 0;
#X connect 7 0 140 0;
#X connect 8 0 9 0;
#X connect 9 0 10 1;
#X connect 10 0 4 0;
#X connect 11 0 26 1;
#X connect 12 0 27 1;
#X connect 13 0 28 1;
#X connect 14 0 29 1;
#X connect 15 0 31 1;
#X connect 16 0 30 1;
#X connect 17 0 32 1;
#X connect 18 0 33 1;
#X connect 19 0 26 2;
#X connect 19 0 33 2;
#X connect 19 0 32 2;
#X connect 19 0 31 2;
#X connect 19 0 30 2;
#X connect 19 0 29 2;
#X connect 19 0 28 2;
#X connect 19 0 27 2;
#X connect 20 0 24 0;
#X connect 21 0 22 0;
#X connect 22 0 20 0;
#X connect 25 0 11 0;
#X connect 25 1 12 0;
#X connect 25 2 13 0;
#X connect 25 3 14 0;
#X connect 25 4 15 0;
#X connect 25 5 16 0;
#X connect 25 6 17 0;
#X connect 25 7 18 0;
#X connect 26 0 34 0;
#X connect 27 0 34 0;
#X connect 28 0 34 0;
#X connect 29 0 34 0;
#X connect 30 0 34 0;
#X connect 31 0 34 0;
#X connect 32 0 34 0;
#X connect 33 0 34 0;
#X connect 34 0 35 0;
#X connect 34 1 36 0;
#X connect 37 0 19 0;
#X connect 38 0 87 0;
#X connect 40 0 42 0;
#X connect 42 0 44 0;
#X connect 42 0 171 0;
#X connect 43 0 171 1;
#X connect 44 0 59 0;
#X connect 45 0 59 2;
#X connect 46 0 59 2;
#X connect 47 0 59 2;
#X connect 48 0 59 2;
#X connect 49 0 59 1;
#X connect 55 0 59 2;
#X connect 57 0 59 2;
#X connect 59 0 43 0;
#X connect 60 0 3 0;
#X connect 62 0 48 0;
#X connect 66 0 65 0;
#X connect 66 0 80 0;
#X connect 73 0 64 0;
#X connect 73 0 63 0;
#X connect 74 0 67 0;
#X connect 74 0 81 0;
#X connect 75 0 68 0;
#X connect 75 0 82 0;
#X connect 76 0 69 0;
#X connect 76 0 83 0;
#X connect 77 0 70 0;
#X connect 77 0 84 0;
#X connect 78 0 71 0;
#X connect 78 0 85 0;
#X connect 79 0 72 0;
#X connect 79 0 86 0;
#X connect 87 0 19 0;
#X connect 97 0 89 0;
#X connect 98 0 90 0;
#X connect 99 0 91 0;
#X connect 100 0 92 0;
#X connect 101 0 93 0;
#X connect 102 0 94 0;
#X connect 103 0 95 0;
#X connect 104 0 96 0;
#X connect 105 0 97 0;
#X connect 106 0 98 0;
#X connect 107 0 99 0;
#X connect 108 0 100 0;
#X connect 109 0 101 0;
#X connect 110 0 102 0;
#X connect 111 0 103 0;
#X connect 112 0 104 0;
#X connect 113 0 114 0;
#X connect 113 0 116 0;
#X connect 114 0 115 0;
#X connect 114 0 129 0;
#X connect 117 0 124 0;
#X connect 118 0 119 0;
#X connect 119 0 117 0;
#X connect 120 0 123 0;
#X connect 121 0 122 0;
#X connect 122 0 120 0;
#X connect 130 0 49 0;
#X connect 131 0 49 0;
#X connect 132 0 49 0;
#X connect 135 0 136 0;
#X connect 135 0 139 0;
#X connect 138 0 135 0;
#X connect 138 0 137 0;
#X connect 140 0 143 0;
#X connect 140 1 141 0;
#X connect 141 0 142 0;
#X connect 142 0 144 1;
#X connect 143 0 144 0;
#X connect 144 0 145 0;
#X connect 146 0 21 0;
#X connect 146 0 118 0;
#X connect 146 0 121 0;
#X connect 146 0 1 0;
#X connect 147 0 155 1;
#X connect 148 0 149 0;
#X connect 149 0 150 0;
#X connect 149 0 156 0;
#X connect 149 0 169 0;
#X connect 150 0 149 1;
#X connect 151 0 148 0;
#X connect 152 0 149 1;
#X connect 153 0 151 0;
#X connect 155 0 154 0;
#X connect 156 0 155 0;
#X connect 156 1 147 0;
#X connect 158 0 159 0;
#X connect 159 0 160 0;
#X connect 159 0 165 0;
#X connect 159 0 168 0;
#X connect 160 0 159 1;
#X connect 161 0 158 0;
#X connect 162 0 159 1;
#X connect 163 0 161 0;
#X connect 164 0 167 0;
#X connect 165 0 164 0;
#X connect 165 1 166 0;
#X connect 166 0 164 1;
#X connect 168 0 162 0;
#X connect 169 0 152 0;
#X connect 170 0 171 2;
#X connect 171 0 41 0;
#X restore 1342 608 pd sequencer;
#X obj 1342 656 ctlout;
#X obj 883 776 s run;
#X obj 220 200 f;
#X obj 165 107 tgl 15 0 empty empty empty 17 7 0 10 -262144 -1 -1 1
1;
#X floatatom 165 384 5 0 0 0 - - -, f 5;
#X obj 165 437 s othercounter;
#X obj 1054 483 +;
#X msg 1034 144 0;
#X msg 1064 144 1;
#X msg 1094 144 2;
#X msg 1124 144 3;
#X msg 1155 144 4;
#X msg 1185 144 5;
#X msg 1215 144 6;
#X msg 1245 144 7;
#X obj 1034 109 sel 0 1 2 3 4 5 6 7, f 35;
#X floatatom 910 121 5 0 0 0 - - -, f 5;
#X obj 910 92 - 71;
#X obj 1064 173 bng 15 250 50 0 empty empty empty 17 7 0 10 -262144
-1 -1;
#X obj 1094 173 bng 15 250 50 0 empty empty empty 17 7 0 10 -262144
-1 -1;
#X obj 1124 173 bng 15 250 50 0 empty empty empty 17 7 0 10 -262144
-1 -1;
#X obj 1155 173 bng 15 250 50 0 empty empty empty 17 7 0 10 -262144
-1 -1;
#X obj 1185 173 bng 15 250 50 0 empty empty empty 17 7 0 10 -262144
-1 -1;
#X obj 1215 173 bng 15 250 50 0 empty empty empty 17 7 0 10 -262144
-1 -1;
#X obj 1245 173 bng 15 250 50 0 empty empty empty 17 7 0 10 -262144
-1 -1;
#X obj 1034 173 bng 15 250 50 0 empty empty empty 17 7 0 10 -262144
-1 -1;
#X obj 292 34 loadbang;
#X msg 292 68 138.8;
#X obj 1359 370 +;
#X obj 1359 304 moses 64;
#X obj 1412 333 - 128;
#X obj 1359 403 clip 0 127;
#X obj 1359 432 outlet;
#X obj 1411 370 hsl 128 15 0 127 0 1 empty empty empty -2 -8 0 10 -262144
-1 -1 6300 1;
#X obj 1359 273 ctlin 71;
#X obj 862 578 f 1;
#N canvas 1223 274 535 437 leds 0;
#X floatatom 67 158 5 0 0 0 - - -, f 5;
#X floatatom 110 158 5 0 0 0 - - -, f 5;
#N canvas 1335 356 515 363 grid 0;
#X obj 75 335 outlet;
#X obj 75 102 mod 4;
#X obj 124 139 sel 0;
#X obj 162 168 + 1;
#X obj 124 168 f;
#X obj 124 207 sel 3;
#X msg 124 236 0;
#X obj 75 237 +;
#X obj 75 56 inlet step;
#X obj 175 56 inlet width;
#X obj 385 56 inlet reset;
#X obj 275 56 inlet height;
#X obj 385 206 bng 15 250 50 0 empty empty empty 17 7 0 10 -262144
-1 -1;
#X obj 275 165 - 1;
#X obj 93 207 * 8;
#X obj 75 131 t f f;
#X connect 1 0 15 0;
#X connect 2 0 4 0;
#X connect 3 0 4 1;
#X connect 4 0 3 0;
#X connect 4 0 5 0;
#X connect 4 0 14 0;
#X connect 5 0 6 0;
#X connect 6 0 4 1;
#X connect 7 0 0 0;
#X connect 8 0 1 0;
#X connect 9 0 1 1;
#X connect 9 0 12 0;
#X connect 10 0 12 0;
#X connect 11 0 13 0;
#X connect 11 0 12 0;
#X connect 12 0 6 0;
#X connect 13 0 5 1;
#X connect 14 0 7 1;
#X connect 15 0 7 0;
#X connect 15 1 2 0;
#X restore 52 223 pd grid;
#X floatatom 132 223 5 0 0 0 - - -, f 5;
#N canvas 1030 174 483 585 otherhandler 0;
#X floatatom 191 126 5 0 0 0 - - -, f 5;
#X obj 191 154 div 8;
#X floatatom 125 504 5 0 0 0 - - -, f 5;
#X obj 125 154 mod 8;
#X floatatom 125 183 5 0 0 0 - - -, f 5;
#X obj 125 329 +;
#X floatatom 125 358 5 0 0 0 - - -, f 5;
#X obj 191 247 abs;
#X obj 191 222 - 8;
#X obj 191 272 - 1;
#X obj 143 302 * 8;
#X obj 125 388 hsl 131 15 0 63 0 0 empty empty empty -2 -8 0 10 -262144
-1 -1 8667 1;
#X obj 269 387 hradio 17 1 0 8 empty empty empty 0 -8 0 10 -262144
-1 -1 5;
#X floatatom 191 185 5 0 0 0 - - -, f 5;
#X obj 125 412 + 36;
#X obj 191 48 inlet;
#X obj 125 532 outlet;
#X connect 0 0 1 0;
#X connect 0 0 3 0;
#X connect 1 0 13 0;
#X connect 2 0 16 0;
#X connect 3 0 4 0;
#X connect 4 0 5 0;
#X connect 5 0 6 0;
#X connect 6 0 11 0;
#X connect 7 0 9 0;
#X connect 8 0 7 0;
#X connect 9 0 10 0;
#X connect 9 0 12 0;
#X connect 10 0 5 1;
#X connect 11 0 14 0;
#X connect 13 0 8 0;
#X connect 14 0 2 0;
#X connect 15 0 0 0;
#X restore 52 281 pd otherhandler;
#X obj 52 252 +;
#N canvas 1058 463 475 343 otherpushpadcontrol 0;
#X obj 35 49 inlet pad;
#X obj 109 49 inlet color;
#X obj 197 49 inlet led anim;
#X floatatom 109 145 3 0 0 0 - - -, f 3;
#X floatatom 35 277 3 0 0 0 - - -, f 3;
#X obj 35 311 noteout;
#X msg 309 145 0;
#X obj 250 237 bng 15 250 50 0 empty empty empty 17 7 0 10 -262144
-1 -1;
#X floatatom 197 145 5 0 16 0 - - -, f 5;
#X obj 309 49 inlet reset color;
#X connect 0 0 4 0;
#X connect 1 0 3 0;
#X connect 2 0 8 0;
#X connect 3 0 5 1;
#X connect 4 0 5 0;
#X connect 6 0 5 1;
#X connect 6 0 7 0;
#X connect 7 0 4 0;
#X connect 8 0 5 2;
#X connect 8 0 7 0;
#X connect 9 0 6 0;
#X restore 52 390 pd otherpushpadcontrol;
#X obj 89 340 hsl 139 15 0 127 0 1 empty empty empty -2 -8 0 10 -262144
-1 -1 109 1;
#X msg 259 312 1;
#X floatatom 259 340 5 0 0 0 - - -, f 5;
#X msg 339 312 5;
#X msg 299 312 3;
#X obj 326 362 bng 15 250 50 0 empty empty empty 17 7 0 10 -262144
-1 -1;
#X floatatom 89 312 5 0 0 0 - - -, f 5;
#X obj 52 18 inlet;
#X obj 112 18 inlet;
#X obj 172 18 inlet;
#X obj 232 18 inlet;
#X obj 292 18 inlet;
#X obj 352 18 inlet;
#X obj 412 18 inlet;
#X connect 0 0 2 1;
#X connect 1 0 2 2;
#X connect 2 0 5 0;
#X connect 3 0 5 1;
#X connect 4 0 6 0;
#X connect 5 0 4 0;
#X connect 7 0 6 1;
#X connect 8 0 9 0;
#X connect 9 0 6 2;
#X connect 10 0 9 0;
#X connect 11 0 9 0;
#X connect 12 0 6 3;
#X connect 13 0 7 0;
#X connect 14 0 2 0;
#X connect 15 0 0 0;
#X connect 16 0 1 0;
#X connect 17 0 3 0;
#X connect 18 0 13 0;
#X connect 19 0 9 0;
#X connect 20 0 2 3;
#X restore 339 236 pd leds;
#X obj 485 187 hradio 9 0 1 16 empty empty empty 0 -8 0 10 -262144
-1 -1 3;
#X obj 485 203 + 1;
#X obj 483 155 hsl 139 15 0 127 0 1 empty empty color 60 -10 0 10 -262144
-1 -1 109 1;
#X msg 411 295 1;
#X msg 483 295 96;
#X msg 447 295 60;
#N canvas 1223 274 578 376 leds 0;
#X floatatom 67 158 5 0 0 0 - - -, f 5;
#X floatatom 110 158 5 0 0 0 - - -, f 5;
#N canvas 1335 356 515 363 grid 0;
#X obj 75 335 outlet;
#X obj 75 102 mod 4;
#X obj 124 139 sel 0;
#X obj 162 168 + 1;
#X obj 124 168 f;
#X obj 124 207 sel 3;
#X msg 124 236 0;
#X obj 75 237 +;
#X obj 75 56 inlet step;
#X obj 175 56 inlet width;
#X obj 385 56 inlet reset;
#X obj 275 56 inlet height;
#X obj 385 206 bng 15 250 50 0 empty empty empty 17 7 0 10 -262144
-1 -1;
#X obj 275 165 - 1;
#X obj 93 207 * 8;
#X obj 75 131 t f f;
#X connect 1 0 15 0;
#X connect 2 0 4 0;
#X connect 3 0 4 1;
#X connect 4 0 3 0;
#X connect 4 0 5 0;
#X connect 4 0 14 0;
#X connect 5 0 6 0;
#X connect 6 0 4 1;
#X connect 7 0 0 0;
#X connect 8 0 1 0;
#X connect 9 0 1 1;
#X connect 9 0 12 0;
#X connect 10 0 12 0;
#X connect 11 0 13 0;
#X connect 11 0 12 0;
#X connect 12 0 6 0;
#X connect 13 0 5 1;
#X connect 14 0 7 1;
#X connect 15 0 7 0;
#X connect 15 1 2 0;
#X restore 52 223 pd grid;
#X floatatom 132 223 5 0 0 0 - - -, f 5;
#N canvas 1030 174 483 585 otherhandler 0;
#X floatatom 191 126 5 0 0 0 - - -, f 5;
#X obj 191 154 div 8;
#X floatatom 125 504 5 0 0 0 - - -, f 5;
#X obj 125 154 mod 8;
#X floatatom 125 183 5 0 0 0 - - -, f 5;
#X obj 125 329 +;
#X floatatom 125 358 5 0 0 0 - - -, f 5;
#X obj 191 247 abs;
#X obj 191 222 - 8;
#X obj 191 272 - 1;
#X obj 143 302 * 8;
#X obj 125 388 hsl 131 15 0 63 0 0 empty empty empty -2 -8 0 10 -262144
-1 -1 9492 1;
#X obj 269 387 hradio 17 1 0 8 empty empty empty 0 -8 0 10 -262144
-1 -1 5;
#X floatatom 191 185 5 0 0 0 - - -, f 5;
#X obj 125 412 + 36;
#X obj 191 48 inlet;
#X obj 125 532 outlet;
#X connect 0 0 1 0;
#X connect 0 0 3 0;
#X connect 1 0 13 0;
#X connect 2 0 16 0;
#X connect 3 0 4 0;
#X connect 4 0 5 0;
#X connect 5 0 6 0;
#X connect 6 0 11 0;
#X connect 7 0 9 0;
#X connect 8 0 7 0;
#X connect 9 0 10 0;
#X connect 9 0 12 0;
#X connect 10 0 5 1;
#X connect 11 0 14 0;
#X connect 13 0 8 0;
#X connect 14 0 2 0;
#X connect 15 0 0 0;
#X restore 52 281 pd otherhandler;
#X obj 52 252 +;
#N canvas 1058 463 475 343 otherpushpadcontrol 0;
#X obj 35 49 inlet pad;
#X obj 109 49 inlet color;
#X obj 197 49 inlet led anim;
#X floatatom 109 145 3 0 0 0 - - -, f 3;
#X floatatom 35 277 3 0 0 0 - - -, f 3;
#X obj 35 311 noteout;
#X msg 309 145 0;
#X obj 250 237 bng 15 250 50 0 empty empty empty 17 7 0 10 -262144
-1 -1;
#X floatatom 197 145 5 0 16 0 - - -, f 5;
#X obj 309 49 inlet reset color;
#X connect 0 0 4 0;
#X connect 1 0 3 0;
#X connect 2 0 8 0;
#X connect 3 0 5 1;
#X connect 4 0 5 0;
#X connect 6 0 5 1;
#X connect 6 0 7 0;
#X connect 7 0 4 0;
#X connect 8 0 5 2;
#X connect 8 0 7 0;
#X connect 9 0 6 0;
#X restore 52 390 pd otherpushpadcontrol;
#X obj 89 340 hsl 139 15 0 127 0 1 empty empty empty -2 -8 0 10 -262144
-1 -1 6520 1;
#X msg 259 312 1;
#X floatatom 259 340 5 0 0 0 - - -, f 5;
#X msg 339 312 5;
#X msg 299 312 3;
#X obj 326 362 bng 15 250 50 0 empty empty empty 17 7 0 10 -262144
-1 -1;
#X floatatom 89 312 5 0 0 0 - - -, f 5;
#X obj 52 18 inlet;
#X obj 112 18 inlet;
#X obj 172 18 inlet;
#X obj 232 18 inlet;
#X obj 292 18 inlet;
#X obj 352 18 inlet;
#X obj 412 18 inlet;
#X connect 0 0 2 1;
#X connect 1 0 2 2;
#X connect 2 0 5 0;
#X connect 3 0 5 1;
#X connect 4 0 6 0;
#X connect 5 0 4 0;
#X connect 7 0 6 1;
#X connect 8 0 9 0;
#X connect 9 0 6 2;
#X connect 10 0 9 0;
#X connect 11 0 9 0;
#X connect 12 0 6 3;
#X connect 13 0 7 0;
#X connect 14 0 2 0;
#X connect 15 0 0 0;
#X connect 16 0 1 0;
#X connect 17 0 3 0;
#X connect 18 0 13 0;
#X connect 19 0 9 0;
#X connect 20 0 2 3;
#X restore 339 426 pd leds;
#X obj 485 377 hradio 9 0 1 16 empty empty empty 0 -8 0 10 -262144
-1 -1 3;
#X obj 485 393 + 1;
#X obj 483 345 hsl 139 15 0 127 0 1 empty empty color 60 -10 0 10 -262144
-1 -1 6520 1;
#X msg 411 485 1;
#X msg 483 485 96;
#X msg 447 485 60;
#N canvas 1223 274 578 376 leds 0;
#X floatatom 67 158 5 0 0 0 - - -, f 5;
#X floatatom 110 158 5 0 0 0 - - -, f 5;
#N canvas 1335 356 515 363 grid 0;
#X obj 75 335 outlet;
#X obj 75 102 mod 4;
#X obj 124 139 sel 0;
#X obj 162 168 + 1;
#X obj 124 168 f;
#X obj 124 207 sel 3;
#X msg 124 236 0;
#X obj 75 237 +;
#X obj 75 56 inlet step;
#X obj 175 56 inlet width;
#X obj 385 56 inlet reset;
#X obj 275 56 inlet height;
#X obj 385 206 bng 15 250 50 0 empty empty empty 17 7 0 10 -262144
-1 -1;
#X obj 275 165 - 1;
#X obj 93 207 * 8;
#X obj 75 131 t f f;
#X connect 1 0 15 0;
#X connect 2 0 4 0;
#X connect 3 0 4 1;
#X connect 4 0 3 0;
#X connect 4 0 5 0;
#X connect 4 0 14 0;
#X connect 5 0 6 0;
#X connect 6 0 4 1;
#X connect 7 0 0 0;
#X connect 8 0 1 0;
#X connect 9 0 1 1;
#X connect 9 0 12 0;
#X connect 10 0 12 0;
#X connect 11 0 13 0;
#X connect 11 0 12 0;
#X connect 12 0 6 0;
#X connect 13 0 5 1;
#X connect 14 0 7 1;
#X connect 15 0 7 0;
#X connect 15 1 2 0;
#X restore 52 223 pd grid;
#X floatatom 132 223 5 0 0 0 - - -, f 5;
#N canvas 1030 174 483 585 otherhandler 0;
#X floatatom 191 126 5 0 0 0 - - -, f 5;
#X obj 191 154 div 8;
#X floatatom 125 504 5 0 0 0 - - -, f 5;
#X obj 125 154 mod 8;
#X floatatom 125 183 5 0 0 0 - - -, f 5;
#X obj 125 329 +;
#X floatatom 125 358 5 0 0 0 - - -, f 5;
#X obj 191 247 abs;
#X obj 191 222 - 8;
#X obj 191 272 - 1;
#X obj 143 302 * 8;
#X obj 125 388 hsl 131 15 0 63 0 0 empty empty empty -2 -8 0 10 -262144
-1 -1 2063 1;
#X obj 269 387 hradio 17 1 0 8 empty empty empty 0 -8 0 10 -262144
-1 -1 1;
#X floatatom 191 185 5 0 0 0 - - -, f 5;
#X obj 125 412 + 36;
#X obj 191 48 inlet;
#X obj 125 532 outlet;
#X connect 0 0 1 0;
#X connect 0 0 3 0;
#X connect 1 0 13 0;
#X connect 2 0 16 0;
#X connect 3 0 4 0;
#X connect 4 0 5 0;
#X connect 5 0 6 0;
#X connect 6 0 11 0;
#X connect 7 0 9 0;
#X connect 8 0 7 0;
#X connect 9 0 10 0;
#X connect 9 0 12 0;
#X connect 10 0 5 1;
#X connect 11 0 14 0;
#X connect 13 0 8 0;
#X connect 14 0 2 0;
#X connect 15 0 0 0;
#X restore 52 281 pd otherhandler;
#X obj 52 252 +;
#N canvas 1058 463 475 343 otherpushpadcontrol 0;
#X obj 35 49 inlet pad;
#X obj 109 49 inlet color;
#X obj 197 49 inlet led anim;
#X floatatom 109 145 3 0 0 0 - - -, f 3;
#X floatatom 35 277 3 0 0 0 - - -, f 3;
#X obj 35 311 noteout;
#X msg 309 145 0;
#X obj 250 237 bng 15 250 50 0 empty empty empty 17 7 0 10 -262144
-1 -1;
#X floatatom 197 145 5 0 16 0 - - -, f 5;
#X obj 309 49 inlet reset color;
#X connect 0 0 4 0;
#X connect 1 0 3 0;
#X connect 2 0 8 0;
#X connect 3 0 5 1;
#X connect 4 0 5 0;
#X connect 6 0 5 1;
#X connect 6 0 7 0;
#X connect 7 0 4 0;
#X connect 8 0 5 2;
#X connect 8 0 7 0;
#X connect 9 0 6 0;
#X restore 52 390 pd otherpushpadcontrol;
#X obj 89 340 hsl 139 15 0 127 0 1 empty empty empty -2 -8 0 10 -262144
-1 -1 10431 1;
#X msg 259 312 1;
#X floatatom 259 340 5 0 0 0 - - -, f 5;
#X msg 339 312 5;
#X msg 299 312 3;
#X obj 326 362 bng 15 250 50 0 empty empty empty 17 7 0 10 -262144
-1 -1;
#X floatatom 89 312 5 0 0 0 - - -, f 5;
#X obj 52 18 inlet;
#X obj 112 18 inlet;
#X obj 172 18 inlet;
#X obj 232 18 inlet;
#X obj 292 18 inlet;
#X obj 352 18 inlet;
#X obj 412 18 inlet;
#X connect 0 0 2 1;
#X connect 1 0 2 2;
#X connect 2 0 5 0;
#X connect 3 0 5 1;
#X connect 4 0 6 0;
#X connect 5 0 4 0;
#X connect 7 0 6 1;
#X connect 8 0 9 0;
#X connect 9 0 6 2;
#X connect 10 0 9 0;
#X connect 11 0 9 0;
#X connect 12 0 6 3;
#X connect 13 0 7 0;
#X connect 14 0 2 0;
#X connect 15 0 0 0;
#X connect 16 0 1 0;
#X connect 17 0 3 0;
#X connect 18 0 13 0;
#X connect 19 0 9 0;
#X connect 20 0 2 3;
#X restore 339 616 pd leds;
#X obj 485 567 hradio 9 0 1 16 empty empty empty 0 -8 0 10 -262144
-1 -1 1;
#X obj 485 583 + 1;
#X obj 483 535 hsl 139 15 0 127 0 1 empty empty color 60 -10 0 10 -262144
-1 -1 10431 1;
#X obj 343 164 nbx 2 16 0 8 0 1 empty empty W 4 -8 0 12 -262144 -1
-1 4 256 0;
#X obj 377 164 nbx 2 16 0 8 0 1 empty empty H 4 -8 0 12 -262144 -1
-1 4 256 0;
#X obj 411 164 nbx 2 16 0 64 0 1 empty empty offset 4 -8 0 12 -262144
-1 -1 0 256 0;
#X obj 341 353 nbx 2 16 0 8 0 1 empty empty W 4 -8 0 12 -262144 -1
-1 4 256 0;
#X obj 375 353 nbx 2 16 0 8 0 1 empty empty H 4 -8 0 12 -262144 -1
-1 4 256 0;
#X obj 409 353 nbx 2 16 0 64 0 1 empty empty offset 4 -8 0 12 -262144
-1 -1 4 256 0;
#X obj 351 554 nbx 2 16 0 8 0 1 empty empty W 4 -8 0 12 -262144 -1
-1 4 256 0;
#X obj 385 554 nbx 2 16 0 8 0 1 empty empty H 4 -8 0 12 -262144 -1
-1 4 256 0;
#X obj 419 554 nbx 2 16 0 64 0 1 empty empty offset 4 -8 0 12 -262144
-1 -1 32 256 0;
#N canvas 497 330 1933 300 encoders 0;
#X obj 45 58 zz_ableton_push_encoder 71;
#X obj 45 121 / 127;
#X obj 233 121 / 127;
#X obj 421 121 / 127;
#X obj 609 121 / 127;
#X obj 797 121 / 127;
#X obj 985 121 / 127;
#X obj 1173 121 / 127;
#X obj 1361 121 / 127;
#X obj 233 58 zz_ableton_push_encoder 72;
#X obj 421 58 zz_ableton_push_encoder 73;
#X obj 609 58 zz_ableton_push_encoder 74;
#X obj 797 58 zz_ableton_push_encoder 75;
#X obj 985 58 zz_ableton_push_encoder 76;
#X obj 1173 58 zz_ableton_push_encoder 77;
#X obj 1361 58 zz_ableton_push_encoder 78;
#X obj 45 154 s seqVal-0;
#X obj 233 154 s seqVal-1;
#X obj 421 154 s seqVal-2;
#X obj 609 154 s seqVal-3;
#X obj 797 154 s seqVal-4;
#X obj 985 154 s seqVal-5;
#X obj 1173 154 s seqVal-6;
#X obj 1361 154 s seqVal-7;
#X obj 511 193 zz_ableton_push_lowerbuttons 104;
#X obj 744 193 zz_ableton_push_lowerbuttons 105;
#X obj 977 193 zz_ableton_push_lowerbuttons 106;
#X obj 1210 193 zz_ableton_push_lowerbuttons 107;
#X obj 1443 193 zz_ableton_push_lowerbuttons 108;
#X obj 1676 193 zz_ableton_push_lowerbuttons 109;
#X obj 45 223 s gateVal-0;
#X obj 511 222 s gateVal-2;
#X obj 744 223 s gateVal-3;
#X obj 977 222 s gateVal-4;
#X obj 1210 222 s gateVal-5;
#X obj 1443 222 s gateVal-6;
#X obj 1676 222 s gateVal-7;
#X obj 278 223 s gateVal-1;
#X obj 278 193 zz_ableton_push_lowerbuttons 103;
#X obj 45 193 zz_ableton_push_lowerbuttons 102;
#X obj 75 91 hsl 39 17 0 127 0 1 empty empty empty -2 -8 0 10 -262144
-1 -1 2035 1;
#X obj 263 91 hsl 39 17 0 127 0 1 empty empty empty -2 -8 0 10 -262144
-1 -1 2903 1;
#X obj 451 91 hsl 39 17 0 127 0 1 empty empty empty -2 -8 0 10 -262144
-1 -1 2364 1;
#X obj 639 91 hsl 39 17 0 127 0 1 empty empty empty -2 -8 0 10 -262144
-1 -1 1616 1;
#X obj 827 91 hsl 39 17 0 127 0 1 empty empty empty -2 -8 0 10 -262144
-1 -1 1616 1;
#X obj 1015 91 hsl 39 17 0 127 0 1 empty empty empty -2 -8 0 10 -262144
-1 -1 1885 1;
#X obj 1203 91 hsl 39 17 0 127 0 1 empty empty empty -2 -8 0 10 -262144
-1 -1 2484 1;
#X obj 1391 91 hsl 39 17 0 127 0 1 empty empty empty -2 -8 0 10 -262144
-1 -1 3022 1;
#X connect 0 0 1 0;
#X connect 0 0 40 0;
#X connect 1 0 16 0;
#X connect 2 0 17 0;
#X connect 3 0 18 0;
#X connect 4 0 19 0;
#X connect 5 0 20 0;
#X connect 6 0 21 0;
#X connect 7 0 22 0;
#X connect 8 0 23 0;
#X connect 9 0 41 0;
#X connect 9 0 2 0;
#X connect 10 0 42 0;
#X connect 10 0 3 0;
#X connect 11 0 43 0;
#X connect 11 0 4 0;
#X connect 12 0 44 0;
#X connect 12 0 5 0;
#X connect 13 0 45 0;
#X connect 13 0 6 0;
#X connect 14 0 46 0;
#X connect 14 0 7 0;
#X connect 15 0 47 0;
#X connect 15 0 8 0;
#X connect 24 0 31 0;
#X connect 25 0 32 0;
#X connect 26 0 33 0;
#X connect 27 0 34 0;
#X connect 28 0 35 0;
#X connect 29 0 36 0;
#X connect 38 0 37 0;
#X connect 39 0 30 0;
#X restore 303 740 pd encoders and buttons;
#X connect 0 0 54 1;
#X connect 1 0 21 0;
#X connect 2 0 56 0;
#X connect 4 0 10 0;
#X connect 5 0 46 0;
#X connect 5 0 49 0;
#X connect 6 0 5 0;
#X connect 6 1 4 0;
#X connect 6 1 69 0;
#X connect 6 2 7 0;
#X connect 8 0 50 0;
#X connect 8 1 50 1;
#X connect 10 0 44 0;
#X connect 10 0 48 0;
#X connect 10 1 45 0;
#X connect 10 1 47 0;
#X connect 11 0 12 0;
#X connect 12 0 15 0;
#X connect 12 0 14 0;
#X connect 12 1 87 0;
#X connect 13 0 15 1;
#X connect 13 0 87 1;
#X connect 14 0 16 0;
#X connect 15 0 17 0;
#X connect 16 0 42 0;
#X connect 17 0 43 0;
#X connect 18 0 22 1;
#X connect 19 0 18 0;
#X connect 20 0 55 0;
#X connect 21 0 54 1;
#X connect 21 0 88 6;
#X connect 21 0 95 6;
#X connect 21 0 56 0;
#X connect 21 0 102 6;
#X connect 22 0 54 0;
#X connect 23 0 91 0;
#X connect 24 0 91 0;
#X connect 26 0 25 1;
#X connect 27 0 25 0;
#X connect 28 0 29 1;
#X connect 29 0 32 0;
#X connect 30 0 29 0;
#X connect 30 1 31 0;
#X connect 31 0 29 0;
#X connect 32 0 28 0;
#X connect 32 0 38 0;
#X connect 32 0 58 0;
#X connect 33 0 36 0;
#X connect 34 0 33 1;
#X connect 35 0 33 1;
#X connect 36 0 25 2;
#X connect 36 0 27 0;
#X connect 36 1 37 0;
#X connect 36 2 34 0;
#X connect 37 0 35 0;
#X connect 40 0 91 0;
#X connect 41 0 53 0;
#X connect 42 0 41 0;
#X connect 43 0 41 0;
#X connect 44 0 46 1;
#X connect 45 0 46 1;
#X connect 46 0 11 0;
#X connect 47 0 49 1;
#X connect 48 0 49 1;
#X connect 49 0 30 0;
#X connect 51 0 52 0;
#X connect 51 1 52 1;
#X connect 54 0 0 0;
#X connect 54 0 2 0;
#X connect 54 0 88 0;
#X connect 54 0 95 0;
#X connect 54 0 102 0;
#X connect 55 0 1 0;
#X connect 55 0 22 0;
#X connect 56 0 57 0;
#X connect 59 0 77 0;
#X connect 60 0 70 0;
#X connect 61 0 71 0;
#X connect 62 0 72 0;
#X connect 63 0 73 0;
#X connect 64 0 74 0;
#X connect 65 0 75 0;
#X connect 66 0 76 0;
#X connect 67 0 59 0;
#X connect 67 1 60 0;
#X connect 67 2 61 0;
#X connect 67 3 62 0;
#X connect 67 4 63 0;
#X connect 67 5 64 0;
#X connect 67 6 65 0;
#X connect 67 7 66 0;
#X connect 68 0 67 0;
#X connect 69 0 68 0;
#X connect 78 0 79 0;
#X connect 79 0 18 0;
#X connect 80 0 83 0;
#X connect 81 0 80 0;
#X connect 81 1 82 0;
#X connect 82 0 80 0;
#X connect 83 0 84 0;
#X connect 83 0 85 0;
#X connect 85 0 80 1;
#X connect 86 0 81 0;
#X connect 87 0 14 1;
#X connect 87 0 13 0;
#X connect 89 0 90 0;
#X connect 90 0 88 5;
#X connect 91 0 88 4;
#X connect 92 0 98 0;
#X connect 93 0 98 0;
#X connect 94 0 98 0;
#X connect 96 0 97 0;
#X connect 97 0 95 5;
#X connect 98 0 95 4;
#X connect 99 0 105 0;
#X connect 100 0 105 0;
#X connect 101 0 105 0;
#X connect 103 0 104 0;
#X connect 104 0 102 5;
#X connect 105 0 102 4;
#X connect 106 0 88 1;
#X connect 107 0 88 2;
#X connect 108 0 88 3;
#X connect 109 0 95 1;
#X connect 110 0 95 2;
#X connect 111 0 95 3;
#X connect 112 0 102 1;
#X connect 113 0 102 2;
#X connect 114 0 102 3;
