#N canvas 1120 229 234 375 12;
#X obj 59 49 notein;
#X obj 59 133 t b b;
#X obj 150 172 == 0;
#X obj 59 222 spigot;
#X obj 117 222 spigot;
#X obj 59 251 bng 15 250 50 0 empty empty empty 17 7 0 10 -262144 -1
-1;
#X obj 117 251 bng 15 250 50 0 empty empty empty 17 7 0 10 -262144
-1 -1;
#X obj 59 310 tgl 15 0 empty empty empty 17 7 0 10 -262144 -1 -1 0
1;
#X msg 59 275 1;
#X msg 117 275 0;
#X obj 118 172 f 1;
#X obj 59 78 stripnote;
#X obj 59 105 sel \$1;
#X obj 59 334 outlet;
#X connect 0 0 11 0;
#X connect 0 1 11 1;
#X connect 1 0 4 0;
#X connect 1 0 3 0;
#X connect 1 1 10 0;
#X connect 2 0 4 1;
#X connect 2 0 10 1;
#X connect 3 0 5 0;
#X connect 4 0 6 0;
#X connect 5 0 8 0;
#X connect 6 0 9 0;
#X connect 7 0 13 0;
#X connect 8 0 7 0;
#X connect 9 0 7 0;
#X connect 10 0 3 1;
#X connect 10 0 2 0;
#X connect 11 0 12 0;
#X connect 12 0 1 0;
