#N canvas 717 295 458 487 12;
#X obj 64 41 ctlin;
#X obj 64 184 sel 127;
#X obj 64 221 t b b;
#X obj 122 260 f 0;
#X obj 154 260 == 0;
#X obj 64 310 spigot;
#X obj 121 310 spigot;
#X msg 103 123 1;
#X msg 142 123 0;
#X obj 64 153 spigot;
#X obj 103 90 sel \$1;
#X obj 64 440 ctlout;
#X obj 64 411 pack 0 \$1;
#X obj 64 375 f;
#X obj 197 310 r gateOnColor;
#X obj 307 310 r gateOffColor;
#X obj 121 375 f;
#X obj 197 437 outlet;
#X msg 197 375 0;
#X msg 251 375 1;
#X connect 0 0 9 0;
#X connect 0 1 10 0;
#X connect 1 0 2 0;
#X connect 2 0 6 0;
#X connect 2 0 5 0;
#X connect 2 1 3 0;
#X connect 3 0 4 0;
#X connect 3 0 5 1;
#X connect 4 0 3 1;
#X connect 4 0 6 1;
#X connect 5 0 16 0;
#X connect 5 0 18 0;
#X connect 6 0 13 0;
#X connect 6 0 19 0;
#X connect 7 0 9 1;
#X connect 8 0 9 1;
#X connect 9 0 1 0;
#X connect 10 0 7 0;
#X connect 10 1 8 0;
#X connect 12 0 11 0;
#X connect 13 0 12 0;
#X connect 14 0 13 1;
#X connect 15 0 16 1;
#X connect 16 0 12 0;
#X connect 18 0 17 0;
#X connect 19 0 17 0;
