#N canvas 1191 528 505 325 12;
#X obj 226 45 cnv 15 171 33 empty empty empty 20 12 0 14 -261869 -66577
0;
#X obj 82 119 f;
#X obj 139 145 + 1;
#X floatatom 82 178 5 0 0 0 - - -, f 5;
#X obj 139 178 mod;
#X obj 82 148 +;
#X msg 139 84 0;
#X floatatom 174 156 2 0 0 0 - - -, f 2;
#X obj 82 78 bng 15 50 20 0 empty empty empty 17 7 0 10 -262144 -1
-1;
#X obj 82 235 bng 15 50 20 0 empty empty empty 17 7 0 10 -262144 -1
-1;
#X obj 82 206 sel 0;
#X obj 222 107 hradio 11 0 1 8 empty empty empty 0 -8 0 10 -262144
-1 -1 3;
#X obj 174 132 + 1;
#X obj 82 18 inlet;
#X obj 139 18 inlet;
#X obj 82 259 outlet;
#X obj 231 51 hradio 20 0 1 8 empty empty empty 0 -8 0 10 -261268 -262053
-1 3;
#X text 235 50 1;
#X text 255 50 2;
#X text 275 50 3;
#X text 295 50 4;
#X text 315 50 5;
#X text 335 50 6;
#X text 355 50 7;
#X text 375 50 8;
#X obj 419 18 inlet;
#X obj 419 47 - 1;
#X connect 1 0 2 0;
#X connect 1 0 5 0;
#X connect 2 0 4 0;
#X connect 3 0 10 0;
#X connect 4 0 1 1;
#X connect 5 0 3 0;
#X connect 6 0 1 1;
#X connect 7 0 4 1;
#X connect 8 0 1 0;
#X connect 9 0 15 0;
#X connect 10 0 9 0;
#X connect 11 0 12 0;
#X connect 12 0 7 0;
#X connect 13 0 8 0;
#X connect 14 0 6 0;
#X connect 16 0 12 0;
#X connect 16 0 6 0;
#X connect 25 0 26 0;
#X connect 26 0 16 0;
#X coords 0 -1 1 1 177 58 1 223 23;
